<?xml version="1.0" encoding="UTF-8" standalone="no"?>
<!DOCTYPE svg PUBLIC "-//W3C//DTD SVG 1.1//EN"
 "http://www.w3.org/Graphics/SVG/1.1/DTD/svg11.dtd">
<!-- Generated by graphviz version 8.1.0 (20230707.0739)
 -->
<!-- Title: G Pages: 1 -->
<svg width="382pt" height="476pt"
 viewBox="0.00 0.00 381.67 476.00" xmlns="http://www.w3.org/2000/svg" xmlns:xlink="http://www.w3.org/1999/xlink">
<g id="graph0" class="graph" transform="scale(1 1) rotate(0) translate(4 472)">
<title>G</title>
<polygon fill="white" stroke="none" points="-4,4 -4,-472 377.67,-472 377.67,4 -4,4"/>
<!-- album -->
<g id="node1" class="node">
<title>album</title>
<ellipse fill="#b2dfee" stroke="#b2dfee" cx="33.1" cy="-450" rx="33.1" ry="18"/>
<text text-anchor="middle" x="33.1" y="-444.57" font-family="Times New Roman,serif" font-size="14.00">album</text>
</g>
<!-- album1 -->
<g id="node2" class="node">
<title>album1</title>
<ellipse fill="#b2dfee" stroke="#b2dfee" cx="122.1" cy="-450" rx="37.59" ry="18"/>
<text text-anchor="middle" x="122.1" y="-444.57" font-family="Times New Roman,serif" font-size="14.00">album1</text>
</g>
<!-- album&#45;&gt;album1 -->
<g id="edge1" class="edge">
<title>album&#45;&gt;album1</title>
<path fill="none" stroke="black" d="M66.48,-450C68.8,-450 71.11,-450 73.43,-450"/>
<polygon fill="black" stroke="black" points="73.29,-453.5 83.29,-450 73.29,-446.5 73.29,-453.5"/>
</g>
<!-- album4 -->
<g id="node3" class="node">
<title>album4</title>
<ellipse fill="#b2dfee" stroke="#b2dfee" cx="220.1" cy="-450" rx="37.59" ry="18"/>
<text text-anchor="middle" x="220.1" y="-444.57" font-family="Times New Roman,serif" font-size="14.00">album4</text>
</g>
<!-- album1&#45;&gt;album4 -->
<g id="edge2" class="edge">
<title>album1&#45;&gt;album4</title>
<path fill="none" stroke="black" d="M160,-450C163.79,-450 167.58,-450 171.38,-450"/>
<polygon fill="black" stroke="black" points="171.07,-453.5 181.07,-450 171.07,-446.5 171.07,-453.5"/>
</g>
<!-- album10 -->
<g id="node5" class="node">
<title>album10</title>
<ellipse fill="#b2dfee" stroke="#b2dfee" cx="118.1" cy="-378" rx="42.08" ry="18"/>
<text text-anchor="middle" x="118.1" y="-372.57" font-family="Times New Roman,serif" font-size="14.00">album10</text>
</g>
<!-- album1&#45;&gt;album10 -->
<g id="edge4" class="edge">
<title>album1&#45;&gt;album10</title>
<path fill="none" stroke="black" d="M121.11,-431.7C120.69,-424.24 120.18,-415.32 119.7,-406.97"/>
<polygon fill="black" stroke="black" points="123.14,-406.89 119.08,-397.1 116.15,-407.29 123.14,-406.89"/>
</g>
<!-- album5 -->
<g id="node4" class="node">
<title>album5</title>
<ellipse fill="#b2dfee" stroke="#b2dfee" cx="318.1" cy="-450" rx="37.59" ry="18"/>
<text text-anchor="middle" x="318.1" y="-444.57" font-family="Times New Roman,serif" font-size="14.00">album5</text>
</g>
<!-- album4&#45;&gt;album5 -->
<g id="edge3" class="edge">
<title>album4&#45;&gt;album5</title>
<path fill="none" stroke="black" d="M258,-450C261.79,-450 265.58,-450 269.38,-450"/>
<polygon fill="black" stroke="black" points="269.07,-453.5 279.07,-450 269.07,-446.5 269.07,-453.5"/>
</g>
<!-- album41 -->
<g id="node9" class="node">
<title>album41</title>
<ellipse fill="#b2dfee" stroke="#b2dfee" cx="220.1" cy="-378" rx="42.08" ry="18"/>
<text text-anchor="middle" x="220.1" y="-372.57" font-family="Times New Roman,serif" font-size="14.00">album41</text>
</g>
<!-- album4&#45;&gt;album41 -->
<g id="edge8" class="edge">
<title>album4&#45;&gt;album41</title>
<path fill="none" stroke="black" d="M220.1,-431.7C220.1,-424.24 220.1,-415.32 220.1,-406.97"/>
<polygon fill="black" stroke="black" points="223.6,-407.1 220.1,-397.1 216.6,-407.1 223.6,-407.1"/>
</g>
<!-- album57 -->
<g id="node13" class="node">
<title>album57</title>
<ellipse fill="#b2dfee" stroke="#b2dfee" cx="323.1" cy="-378" rx="42.08" ry="18"/>
<text text-anchor="middle" x="323.1" y="-372.57" font-family="Times New Roman,serif" font-size="14.00">album57</text>
</g>
<!-- album5&#45;&gt;album57 -->
<g id="edge12" class="edge">
<title>album5&#45;&gt;album57</title>
<path fill="none" stroke="black" d="M319.34,-431.7C319.87,-424.24 320.51,-415.32 321.1,-406.97"/>
<polygon fill="black" stroke="black" points="324.66,-407.33 321.88,-397.1 317.67,-406.83 324.66,-407.33"/>
</g>
<!-- album12 -->
<g id="node6" class="node">
<title>album12</title>
<ellipse fill="#b2dfee" stroke="#b2dfee" cx="116.1" cy="-306" rx="42.08" ry="18"/>
<text text-anchor="middle" x="116.1" y="-300.57" font-family="Times New Roman,serif" font-size="14.00">album12</text>
</g>
<!-- album10&#45;&gt;album12 -->
<g id="edge5" class="edge">
<title>album10&#45;&gt;album12</title>
<path fill="none" stroke="black" d="M117.61,-359.7C117.39,-352.24 117.14,-343.32 116.9,-334.97"/>
<polygon fill="black" stroke="black" points="120.37,-335 116.59,-325.1 113.38,-335.2 120.37,-335"/>
</g>
<!-- album14 -->
<g id="node7" class="node">
<title>album14</title>
<ellipse fill="#b2dfee" stroke="#b2dfee" cx="113.1" cy="-234" rx="42.08" ry="18"/>
<text text-anchor="middle" x="113.1" y="-228.57" font-family="Times New Roman,serif" font-size="14.00">album14</text>
</g>
<!-- album12&#45;&gt;album14 -->
<g id="edge6" class="edge">
<title>album12&#45;&gt;album14</title>
<path fill="none" stroke="black" d="M115.36,-287.7C115.04,-280.24 114.66,-271.32 114.3,-262.97"/>
<polygon fill="black" stroke="black" points="117.76,-262.95 113.83,-253.1 110.76,-263.25 117.76,-262.95"/>
</g>
<!-- album18 -->
<g id="node8" class="node">
<title>album18</title>
<ellipse fill="#b2dfee" stroke="#b2dfee" cx="113.1" cy="-162" rx="42.08" ry="18"/>
<text text-anchor="middle" x="113.1" y="-156.57" font-family="Times New Roman,serif" font-size="14.00">album18</text>
</g>
<!-- album14&#45;&gt;album18 -->
<g id="edge7" class="edge">
<title>album14&#45;&gt;album18</title>
<path fill="none" stroke="black" d="M113.1,-215.7C113.1,-208.24 113.1,-199.32 113.1,-190.97"/>
<polygon fill="black" stroke="black" points="116.6,-191.1 113.1,-181.1 109.6,-191.1 116.6,-191.1"/>
</g>
<!-- album43 -->
<g id="node10" class="node">
<title>album43</title>
<ellipse fill="#b2dfee" stroke="#b2dfee" cx="220.1" cy="-306" rx="42.08" ry="18"/>
<text text-anchor="middle" x="220.1" y="-300.57" font-family="Times New Roman,serif" font-size="14.00">album43</text>
</g>
<!-- album41&#45;&gt;album43 -->
<g id="edge9" class="edge">
<title>album41&#45;&gt;album43</title>
<path fill="none" stroke="black" d="M220.1,-359.7C220.1,-352.24 220.1,-343.32 220.1,-334.97"/>
<polygon fill="black" stroke="black" points="223.6,-335.1 220.1,-325.1 216.6,-335.1 223.6,-335.1"/>
</g>
<!-- album411 -->
<g id="node11" class="node">
<title>album411</title>
<ellipse fill="#b2dfee" stroke="#b2dfee" cx="220.1" cy="-234" rx="46.57" ry="18"/>
<text text-anchor="middle" x="220.1" y="-228.57" font-family="Times New Roman,serif" font-size="14.00">album411</text>
</g>
<!-- album43&#45;&gt;album411 -->
<g id="edge10" class="edge">
<title>album43&#45;&gt;album411</title>
<path fill="none" stroke="black" d="M220.1,-287.7C220.1,-280.24 220.1,-271.32 220.1,-262.97"/>
<polygon fill="black" stroke="black" points="223.6,-263.1 220.1,-253.1 216.6,-263.1 223.6,-263.1"/>
</g>
<!-- album48 -->
<g id="node12" class="node">
<title>album48</title>
<ellipse fill="#b2dfee" stroke="#b2dfee" cx="220.1" cy="-162" rx="42.08" ry="18"/>
<text text-anchor="middle" x="220.1" y="-156.57" font-family="Times New Roman,serif" font-size="14.00">album48</text>
</g>
<!-- album411&#45;&gt;album48 -->
<g id="edge11" class="edge">
<title>album411&#45;&gt;album48</title>
<path fill="none" stroke="black" d="M220.1,-215.7C220.1,-208.24 220.1,-199.32 220.1,-190.97"/>
<polygon fill="black" stroke="black" points="223.6,-191.1 220.1,-181.1 216.6,-191.1 223.6,-191.1"/>
</g>
<!-- album52 -->
<g id="node14" class="node">
<title>album52</title>
<ellipse fill="#b2dfee" stroke="#b2dfee" cx="325.1" cy="-306" rx="42.08" ry="18"/>
<text text-anchor="middle" x="325.1" y="-300.57" font-family="Times New Roman,serif" font-size="14.00">album52</text>
</g>
<!-- album57&#45;&gt;album52 -->
<g id="edge13" class="edge">
<title>album57&#45;&gt;album52</title>
<path fill="none" stroke="black" d="M323.59,-359.7C323.81,-352.24 324.06,-343.32 324.3,-334.97"/>
<polygon fill="black" stroke="black" points="327.82,-335.2 324.61,-325.1 320.83,-335 327.82,-335.2"/>
</g>
<!-- album59 -->
<g id="node15" class="node">
<title>album59</title>
<ellipse fill="#b2dfee" stroke="#b2dfee" cx="327.1" cy="-234" rx="42.08" ry="18"/>
<text text-anchor="middle" x="327.1" y="-228.57" font-family="Times New Roman,serif" font-size="14.00">album59</text>
</g>
<!-- album52&#45;&gt;album59 -->
<g id="edge14" class="edge">
<title>album52&#45;&gt;album59</title>
<path fill="none" stroke="black" d="M325.59,-287.7C325.81,-280.24 326.06,-271.32 326.3,-262.97"/>
<polygon fill="black" stroke="black" points="329.82,-263.2 326.61,-253.1 322.83,-263 329.82,-263.2"/>
</g>
<!-- album510 -->
<g id="node16" class="node">
<title>album510</title>
<ellipse fill="#b2dfee" stroke="#b2dfee" cx="327.1" cy="-162" rx="46.57" ry="18"/>
<text text-anchor="middle" x="327.1" y="-156.57" font-family="Times New Roman,serif" font-size="14.00">album510</text>
</g>
<!-- album59&#45;&gt;album510 -->
<g id="edge15" class="edge">
<title>album59&#45;&gt;album510</title>
<path fill="none" stroke="black" d="M327.1,-215.7C327.1,-208.24 327.1,-199.32 327.1,-190.97"/>
<polygon fill="black" stroke="black" points="330.6,-191.1 327.1,-181.1 323.6,-191.1 330.6,-191.1"/>
</g>
<!-- album513 -->
<g id="node17" class="node">
<title>album513</title>
<ellipse fill="#b2dfee" stroke="#b2dfee" cx="327.1" cy="-90" rx="46.57" ry="18"/>
<text text-anchor="middle" x="327.1" y="-84.58" font-family="Times New Roman,serif" font-size="14.00">album513</text>
</g>
<!-- album510&#45;&gt;album513 -->
<g id="edge16" class="edge">
<title>album510&#45;&gt;album513</title>
<path fill="none" stroke="black" d="M327.1,-143.7C327.1,-136.24 327.1,-127.32 327.1,-118.97"/>
<polygon fill="black" stroke="black" points="330.6,-119.1 327.1,-109.1 323.6,-119.1 330.6,-119.1"/>
</g>
<!-- album55 -->
<g id="node18" class="node">
<title>album55</title>
<ellipse fill="#b2dfee" stroke="#b2dfee" cx="327.1" cy="-18" rx="42.08" ry="18"/>
<text text-anchor="middle" x="327.1" y="-12.57" font-family="Times New Roman,serif" font-size="14.00">album55</text>
</g>
<!-- album513&#45;&gt;album55 -->
<g id="edge17" class="edge">
<title>album513&#45;&gt;album55</title>
<path fill="none" stroke="black" d="M327.1,-71.7C327.1,-64.24 327.1,-55.32 327.1,-46.97"/>
<polygon fill="black" stroke="black" points="330.6,-47.1 327.1,-37.1 323.6,-47.1 330.6,-47.1"/>
</g>
</g>
</svg>
