<?xml version="1.0" encoding="UTF-8" standalone="no"?>
<!DOCTYPE svg PUBLIC "-//W3C//DTD SVG 1.1//EN"
 "http://www.w3.org/Graphics/SVG/1.1/DTD/svg11.dtd">
<!-- Generated by graphviz version 8.1.0 (20230707.0739)
 -->
<!-- Title: btree Pages: 1 -->
<svg width="466pt" height="188pt"
 viewBox="0.00 0.00 465.61 188.00" xmlns="http://www.w3.org/2000/svg" xmlns:xlink="http://www.w3.org/1999/xlink">
<g id="graph0" class="graph" transform="scale(1 1) rotate(0) translate(4 184)">
<title>btree</title>
<polygon fill="white" stroke="none" points="-4,4 -4,-184 461.61,-184 461.61,4 -4,4"/>
<!-- arbolB -->
<g id="node1" class="node">
<title>arbolB</title>
<ellipse fill="yellow" stroke="yellow" cx="216.61" cy="-162" rx="35.6" ry="18"/>
<text text-anchor="middle" x="216.61" y="-156.57" font-family="Times New Roman,serif" font-size="14.00">arbolB</text>
</g>
<!-- natalia -->
<g id="node2" class="node">
<title>natalia</title>
<ellipse fill="yellow" stroke="yellow" cx="216.61" cy="-90" rx="33.6" ry="18"/>
<text text-anchor="middle" x="216.61" y="-84.58" font-family="Times New Roman,serif" font-size="14.00">natalia</text>
</g>
<!-- arbolB&#45;&gt;natalia -->
<g id="edge1" class="edge">
<title>arbolB&#45;&gt;natalia</title>
<path fill="none" stroke="black" d="M216.61,-143.7C216.61,-136.24 216.61,-127.32 216.61,-118.97"/>
<polygon fill="black" stroke="black" points="220.11,-119.1 216.61,-109.1 213.11,-119.1 220.11,-119.1"/>
</g>
<!-- natalia&#45;&gt;natalia -->
<g id="edge5" class="edge">
<title>natalia&#45;&gt;natalia</title>
<path fill="none" stroke="black" d="M248.35,-96.75C259.33,-96.82 268.2,-94.57 268.2,-90 268.2,-87.07 264.56,-85.1 259.06,-84.07"/>
<polygon fill="black" stroke="black" points="259.59,-80.53 249.35,-83.25 259.05,-87.51 259.59,-80.53"/>
</g>
<!-- natalia&#45;&gt;natalia -->
<g id="edge7" class="edge">
<title>natalia&#45;&gt;natalia</title>
<path fill="none" stroke="black" d="M243.03,-101.6C264.27,-106.24 286.2,-102.38 286.2,-90 286.2,-79.66 270.88,-75.26 253.44,-76.8"/>
<polygon fill="black" stroke="black" points="253.38,-73.42 244.03,-78.4 254.44,-80.34 253.38,-73.42"/>
</g>
<!-- maria -->
<g id="node3" class="node">
<title>maria</title>
<ellipse fill="yellow" stroke="yellow" cx="30.61" cy="-18" rx="30.61" ry="18"/>
<text text-anchor="middle" x="30.61" y="-12.57" font-family="Times New Roman,serif" font-size="14.00">maria</text>
</g>
<!-- natalia&#45;&gt;maria -->
<g id="edge2" class="edge">
<title>natalia&#45;&gt;maria</title>
<path fill="none" stroke="black" d="M188.72,-79.38C159.22,-69.08 111.38,-52.05 70.61,-36 68.66,-35.23 66.66,-34.43 64.65,-33.61"/>
<polygon fill="black" stroke="black" points="66.21,-30.06 55.63,-29.46 63.53,-36.52 66.21,-30.06"/>
</g>
<!-- pepetachi -->
<g id="node4" class="node">
<title>pepetachi</title>
<ellipse fill="yellow" stroke="yellow" cx="125.61" cy="-18" rx="46.07" ry="18"/>
<text text-anchor="middle" x="125.61" y="-12.57" font-family="Times New Roman,serif" font-size="14.00">pepetachi</text>
</g>
<!-- natalia&#45;&gt;pepetachi -->
<g id="edge3" class="edge">
<title>natalia&#45;&gt;pepetachi</title>
<path fill="none" stroke="black" d="M198.19,-74.83C185.63,-65.17 168.74,-52.18 154.42,-41.17"/>
<polygon fill="black" stroke="black" points="156.95,-37.93 146.89,-34.61 152.69,-43.48 156.95,-37.93"/>
</g>
<!-- raiz -->
<g id="node5" class="node">
<title>raiz</title>
<ellipse fill="yellow" stroke="yellow" cx="216.61" cy="-18" rx="27" ry="18"/>
<text text-anchor="middle" x="216.61" y="-12.57" font-family="Times New Roman,serif" font-size="14.00">raiz</text>
</g>
<!-- natalia&#45;&gt;raiz -->
<g id="edge4" class="edge">
<title>natalia&#45;&gt;raiz</title>
<path fill="none" stroke="black" d="M216.61,-71.7C216.61,-64.24 216.61,-55.32 216.61,-46.97"/>
<polygon fill="black" stroke="black" points="220.11,-47.1 216.61,-37.1 213.11,-47.1 220.11,-47.1"/>
</g>
<!-- nonopruebaA -->
<g id="node6" class="node">
<title>nonopruebaA</title>
<ellipse fill="yellow" stroke="yellow" cx="323.61" cy="-18" rx="61.54" ry="18"/>
<text text-anchor="middle" x="323.61" y="-12.57" font-family="Times New Roman,serif" font-size="14.00">nonopruebaA</text>
</g>
<!-- natalia&#45;&gt;nonopruebaA -->
<g id="edge6" class="edge">
<title>natalia&#45;&gt;nonopruebaA</title>
<path fill="none" stroke="black" d="M237.24,-75.5C252.34,-65.62 273.14,-52.01 290.55,-40.63"/>
<polygon fill="black" stroke="black" points="291.84,-43.31 298.29,-34.91 288.01,-37.45 291.84,-43.31"/>
</g>
<g id="node7" class="node">
<title></title>
<ellipse fill="yellow" stroke="yellow" cx="430.61" cy="-18" rx="27" ry="18"/>
</g>
<!-- natalia&#45;&gt; -->
<g id="edge8" class="edge">
<title>natalia&#45;&gt;</title>
<path fill="none" stroke="black" d="M246.67,-81.54C282.44,-72.33 343.71,-55.47 394.61,-36 396.29,-35.35 398.01,-34.66 399.73,-33.94"/>
<polygon fill="black" stroke="black" points="400.79,-36.86 408.52,-29.61 397.96,-30.46 400.79,-36.86"/>
</g>
</g>
</svg>
