<?xml version="1.0" encoding="UTF-8" standalone="no"?>
<!DOCTYPE svg PUBLIC "-//W3C//DTD SVG 1.1//EN"
 "http://www.w3.org/Graphics/SVG/1.1/DTD/svg11.dtd">
<!-- Generated by graphviz version 8.1.0 (20230707.0739)
 -->
<!-- Title: btree Pages: 1 -->
<svg width="481pt" height="116pt"
 viewBox="0.00 0.00 480.61 116.00" xmlns="http://www.w3.org/2000/svg" xmlns:xlink="http://www.w3.org/1999/xlink">
<g id="graph0" class="graph" transform="scale(1 1) rotate(0) translate(4 112)">
<title>btree</title>
<polygon fill="white" stroke="none" points="-4,4 -4,-112 476.61,-112 476.61,4 -4,4"/>
<!-- natalia -->
<g id="node1" class="node">
<title>natalia</title>
<ellipse fill="pink" stroke="pink" cx="224.61" cy="-90" rx="33.6" ry="18"/>
<text text-anchor="middle" x="224.61" y="-84.58" font-family="Times New Roman,serif" font-size="14.00">natalia</text>
</g>
<!-- natalia&#45;&gt;natalia -->
<g id="edge1" class="edge">
<title>natalia&#45;&gt;natalia</title>
<path fill="none" stroke="black" d="M257.86,-93.37C268.13,-93.3 276.2,-92.18 276.2,-90 276.2,-88.67 273.21,-87.74 268.54,-87.19"/>
<polygon fill="black" stroke="black" points="269.03,-83.66 258.86,-86.63 268.66,-90.65 269.03,-83.66"/>
</g>
<!-- natalia&#45;&gt;natalia -->
<g id="edge5" class="edge">
<title>natalia&#45;&gt;natalia</title>
<path fill="none" stroke="black" d="M256.46,-96.3C275.85,-97.76 294.2,-95.66 294.2,-90 294.2,-85.4 282.09,-83.15 267.14,-83.25"/>
<polygon fill="black" stroke="black" points="267.31,-79.79 257.46,-83.7 267.6,-86.78 267.31,-79.79"/>
</g>
<!-- natalia&#45;&gt;natalia -->
<g id="edge6" class="edge">
<title>natalia&#45;&gt;natalia</title>
<path fill="none" stroke="black" d="M254.68,-98.26C282.36,-102.4 312.2,-99.65 312.2,-90 312.2,-81.59 289.56,-78.42 265.42,-80.48"/>
<polygon fill="black" stroke="black" points="265.2,-77.1 255.68,-81.74 266.02,-84.06 265.2,-77.1"/>
</g>
<!-- natalia&#45;&gt;natalia -->
<g id="edge8" class="edge">
<title>natalia&#45;&gt;natalia</title>
<path fill="none" stroke="black" d="M253.53,-99.63C288.73,-107.03 330.2,-103.82 330.2,-90 330.2,-77.53 296.43,-73.7 263.97,-78.5"/>
<polygon fill="black" stroke="black" points="263.76,-75.17 254.53,-80.37 264.99,-82.06 263.76,-75.17"/>
</g>
<!-- maria -->
<g id="node2" class="node">
<title>maria</title>
<ellipse fill="pink" stroke="pink" cx="30.61" cy="-18" rx="30.61" ry="18"/>
<text text-anchor="middle" x="30.61" y="-12.57" font-family="Times New Roman,serif" font-size="14.00">maria</text>
</g>
<!-- natalia&#45;&gt;maria -->
<g id="edge2" class="edge">
<title>natalia&#45;&gt;maria</title>
<path fill="none" stroke="black" d="M196.29,-79.92C165.23,-69.8 114.03,-52.67 70.61,-36 68.65,-35.25 66.65,-34.46 64.64,-33.65"/>
<polygon fill="black" stroke="black" points="66.19,-30.1 55.61,-29.52 63.52,-36.57 66.19,-30.1"/>
</g>
<!-- pepetachi -->
<g id="node3" class="node">
<title>pepetachi</title>
<ellipse fill="pink" stroke="pink" cx="125.61" cy="-18" rx="46.07" ry="18"/>
<text text-anchor="middle" x="125.61" y="-12.57" font-family="Times New Roman,serif" font-size="14.00">pepetachi</text>
</g>
<!-- natalia&#45;&gt;pepetachi -->
<g id="edge3" class="edge">
<title>natalia&#45;&gt;pepetachi</title>
<path fill="none" stroke="black" d="M205.05,-75.17C191.1,-65.31 172.08,-51.86 156.15,-40.6"/>
<polygon fill="black" stroke="black" points="158.37,-37.17 148.19,-34.26 154.33,-42.89 158.37,-37.17"/>
</g>
<!-- raiznat -->
<g id="node4" class="node">
<title>raiznat</title>
<ellipse fill="pink" stroke="pink" cx="224.61" cy="-18" rx="34.6" ry="18"/>
<text text-anchor="middle" x="224.61" y="-12.57" font-family="Times New Roman,serif" font-size="14.00">raiznat</text>
</g>
<!-- natalia&#45;&gt;raiznat -->
<g id="edge4" class="edge">
<title>natalia&#45;&gt;raiznat</title>
<path fill="none" stroke="black" d="M224.61,-71.7C224.61,-64.24 224.61,-55.32 224.61,-46.97"/>
<polygon fill="black" stroke="black" points="228.11,-47.1 224.61,-37.1 221.11,-47.1 228.11,-47.1"/>
</g>
<!-- nonopruebaA -->
<g id="node5" class="node">
<title>nonopruebaA</title>
<ellipse fill="pink" stroke="pink" cx="338.61" cy="-18" rx="61.54" ry="18"/>
<text text-anchor="middle" x="338.61" y="-12.57" font-family="Times New Roman,serif" font-size="14.00">nonopruebaA</text>
</g>
<!-- natalia&#45;&gt;nonopruebaA -->
<g id="edge7" class="edge">
<title>natalia&#45;&gt;nonopruebaA</title>
<path fill="none" stroke="black" d="M246.05,-75.83C262.27,-65.87 284.89,-51.98 303.71,-40.43"/>
<polygon fill="black" stroke="black" points="305.18,-43.02 311.87,-34.8 301.51,-37.05 305.18,-43.02"/>
</g>
<g id="node6" class="node">
<title></title>
<ellipse fill="pink" stroke="pink" cx="445.61" cy="-18" rx="27" ry="18"/>
</g>
<!-- natalia&#45;&gt; -->
<g id="edge9" class="edge">
<title>natalia&#45;&gt;</title>
<path fill="none" stroke="black" d="M255.22,-81.85C292.31,-72.82 356.45,-56.01 409.61,-36 411.29,-35.36 413.01,-34.68 414.74,-33.97"/>
<polygon fill="black" stroke="black" points="415.79,-36.89 423.53,-29.65 412.97,-30.48 415.79,-36.89"/>
</g>
</g>
</svg>
