<?xml version="1.0" encoding="UTF-8" standalone="no"?>
<!DOCTYPE svg PUBLIC "-//W3C//DTD SVG 1.1//EN"
 "http://www.w3.org/Graphics/SVG/1.1/DTD/svg11.dtd">
<!-- Generated by graphviz version 8.1.0 (20230707.0739)
 -->
<!-- Title: btree Pages: 1 -->
<svg width="402pt" height="188pt"
 viewBox="0.00 0.00 401.61 188.00" xmlns="http://www.w3.org/2000/svg" xmlns:xlink="http://www.w3.org/1999/xlink">
<g id="graph0" class="graph" transform="scale(1 1) rotate(0) translate(4 184)">
<title>btree</title>
<polygon fill="white" stroke="none" points="-4,4 -4,-184 397.61,-184 397.61,4 -4,4"/>
<!-- arbolB -->
<g id="node1" class="node">
<title>arbolB</title>
<ellipse fill="pink" stroke="pink" cx="216.61" cy="-162" rx="35.6" ry="18"/>
<text text-anchor="middle" x="216.61" y="-156.57" font-family="Times New Roman,serif" font-size="14.00">arbolB</text>
</g>
<!-- natalia -->
<g id="node2" class="node">
<title>natalia</title>
<ellipse fill="pink" stroke="pink" cx="216.61" cy="-90" rx="33.6" ry="18"/>
<text text-anchor="middle" x="216.61" y="-84.58" font-family="Times New Roman,serif" font-size="14.00">natalia</text>
</g>
<!-- arbolB&#45;&gt;natalia -->
<g id="edge1" class="edge">
<title>arbolB&#45;&gt;natalia</title>
<path fill="none" stroke="black" d="M216.61,-143.7C216.61,-136.24 216.61,-127.32 216.61,-118.97"/>
<polygon fill="black" stroke="black" points="220.11,-119.1 216.61,-109.1 213.11,-119.1 220.11,-119.1"/>
</g>
<!-- natalia&#45;&gt;natalia -->
<g id="edge5" class="edge">
<title>natalia&#45;&gt;natalia</title>
<path fill="none" stroke="black" d="M241.02,-102.76C255.1,-105.36 268.2,-101.11 268.2,-90 268.2,-81.84 261.14,-77.38 251.81,-76.62"/>
<polygon fill="black" stroke="black" points="251.81,-73.17 242.02,-77.24 252.21,-80.16 251.81,-73.17"/>
</g>
<!-- maria -->
<g id="node3" class="node">
<title>maria</title>
<ellipse fill="pink" stroke="pink" cx="30.61" cy="-18" rx="30.61" ry="18"/>
<text text-anchor="middle" x="30.61" y="-12.57" font-family="Times New Roman,serif" font-size="14.00">maria</text>
</g>
<!-- natalia&#45;&gt;maria -->
<g id="edge2" class="edge">
<title>natalia&#45;&gt;maria</title>
<path fill="none" stroke="black" d="M188.72,-79.38C159.22,-69.08 111.38,-52.05 70.61,-36 68.66,-35.23 66.66,-34.43 64.65,-33.61"/>
<polygon fill="black" stroke="black" points="66.21,-30.06 55.63,-29.46 63.53,-36.52 66.21,-30.06"/>
</g>
<!-- pepetachi -->
<g id="node4" class="node">
<title>pepetachi</title>
<ellipse fill="pink" stroke="pink" cx="125.61" cy="-18" rx="46.07" ry="18"/>
<text text-anchor="middle" x="125.61" y="-12.57" font-family="Times New Roman,serif" font-size="14.00">pepetachi</text>
</g>
<!-- natalia&#45;&gt;pepetachi -->
<g id="edge3" class="edge">
<title>natalia&#45;&gt;pepetachi</title>
<path fill="none" stroke="black" d="M198.19,-74.83C185.63,-65.17 168.74,-52.18 154.42,-41.17"/>
<polygon fill="black" stroke="black" points="156.95,-37.93 146.89,-34.61 152.69,-43.48 156.95,-37.93"/>
</g>
<!-- raiz -->
<g id="node5" class="node">
<title>raiz</title>
<ellipse fill="pink" stroke="pink" cx="216.61" cy="-18" rx="27" ry="18"/>
<text text-anchor="middle" x="216.61" y="-12.57" font-family="Times New Roman,serif" font-size="14.00">raiz</text>
</g>
<!-- natalia&#45;&gt;raiz -->
<g id="edge4" class="edge">
<title>natalia&#45;&gt;raiz</title>
<path fill="none" stroke="black" d="M216.61,-71.7C216.61,-64.24 216.61,-55.32 216.61,-46.97"/>
<polygon fill="black" stroke="black" points="220.11,-47.1 216.61,-37.1 213.11,-47.1 220.11,-47.1"/>
</g>
<!-- nono -->
<g id="node6" class="node">
<title>nono</title>
<ellipse fill="pink" stroke="pink" cx="291.61" cy="-18" rx="29.61" ry="18"/>
<text text-anchor="middle" x="291.61" y="-12.57" font-family="Times New Roman,serif" font-size="14.00">nono</text>
</g>
<!-- natalia&#45;&gt;nono -->
<g id="edge6" class="edge">
<title>natalia&#45;&gt;nono</title>
<path fill="none" stroke="black" d="M232.88,-73.81C243.14,-64.23 256.56,-51.7 267.99,-41.04"/>
<polygon fill="black" stroke="black" points="269.95,-44.06 274.88,-34.68 265.18,-38.94 269.95,-44.06"/>
</g>
<g id="node7" class="node">
<title></title>
<ellipse fill="pink" stroke="pink" cx="366.61" cy="-18" rx="27" ry="18"/>
</g>
<!-- natalia&#45;&gt; -->
<g id="edge7" class="edge">
<title>natalia&#45;&gt;</title>
<path fill="none" stroke="black" d="M241.53,-77.46C264.64,-66.76 299.97,-50.35 330.61,-36 332.05,-35.32 333.53,-34.63 335.03,-33.93"/>
<polygon fill="black" stroke="black" points="336.36,-36.7 343.91,-29.27 333.37,-30.36 336.36,-36.7"/>
</g>
</g>
</svg>
