<?xml version="1.0" encoding="UTF-8" standalone="no"?>
<!DOCTYPE svg PUBLIC "-//W3C//DTD SVG 1.1//EN"
 "http://www.w3.org/Graphics/SVG/1.1/DTD/svg11.dtd">
<!-- Generated by graphviz version 8.1.0 (20230707.0739)
 -->
<!-- Title: btree Pages: 1 -->
<svg width="453pt" height="188pt"
 viewBox="0.00 0.00 452.61 188.00" xmlns="http://www.w3.org/2000/svg" xmlns:xlink="http://www.w3.org/1999/xlink">
<g id="graph0" class="graph" transform="scale(1 1) rotate(0) translate(4 184)">
<title>btree</title>
<polygon fill="white" stroke="none" points="-4,4 -4,-184 448.61,-184 448.61,4 -4,4"/>
<!-- arbolB -->
<g id="node1" class="node">
<title>arbolB</title>
<ellipse fill="yellow" stroke="yellow" cx="267.61" cy="-162" rx="35.6" ry="18"/>
<text text-anchor="middle" x="267.61" y="-156.57" font-family="Times New Roman,serif" font-size="14.00">arbolB</text>
</g>
<!-- natalia -->
<g id="node2" class="node">
<title>natalia</title>
<ellipse fill="yellow" stroke="yellow" cx="267.61" cy="-90" rx="33.6" ry="18"/>
<text text-anchor="middle" x="267.61" y="-84.58" font-family="Times New Roman,serif" font-size="14.00">natalia</text>
</g>
<!-- arbolB&#45;&gt;natalia -->
<g id="edge1" class="edge">
<title>arbolB&#45;&gt;natalia</title>
<path fill="none" stroke="black" d="M267.61,-143.7C267.61,-136.24 267.61,-127.32 267.61,-118.97"/>
<polygon fill="black" stroke="black" points="271.11,-119.1 267.61,-109.1 264.11,-119.1 271.11,-119.1"/>
</g>
<!-- natalia&#45;&gt;natalia -->
<g id="edge5" class="edge">
<title>natalia&#45;&gt;natalia</title>
<path fill="none" stroke="black" d="M299.35,-96.75C310.33,-96.82 319.2,-94.57 319.2,-90 319.2,-87.07 315.56,-85.1 310.06,-84.07"/>
<polygon fill="black" stroke="black" points="310.59,-80.53 300.35,-83.25 310.05,-87.51 310.59,-80.53"/>
</g>
<!-- natalia&#45;&gt;natalia -->
<g id="edge7" class="edge">
<title>natalia&#45;&gt;natalia</title>
<path fill="none" stroke="black" d="M294.03,-101.6C315.27,-106.24 337.2,-102.38 337.2,-90 337.2,-79.66 321.88,-75.26 304.44,-76.8"/>
<polygon fill="black" stroke="black" points="304.38,-73.42 295.03,-78.4 305.44,-80.34 304.38,-73.42"/>
</g>
<!-- maria -->
<g id="node3" class="node">
<title>maria</title>
<ellipse fill="yellow" stroke="yellow" cx="30.61" cy="-18" rx="30.61" ry="18"/>
<text text-anchor="middle" x="30.61" y="-12.57" font-family="Times New Roman,serif" font-size="14.00">maria</text>
</g>
<!-- natalia&#45;&gt;maria -->
<g id="edge2" class="edge">
<title>natalia&#45;&gt;maria</title>
<path fill="none" stroke="black" d="M236.99,-82.31C197.71,-73.38 127.72,-56.32 69.61,-36 67.67,-35.32 65.7,-34.59 63.72,-33.83"/>
<polygon fill="black" stroke="black" points="65.47,-30.36 54.89,-29.82 62.83,-36.84 65.47,-30.36"/>
</g>
<!-- pepetachiprueba -->
<g id="node4" class="node">
<title>pepetachiprueba</title>
<ellipse fill="yellow" stroke="yellow" cx="150.61" cy="-18" rx="71.52" ry="18"/>
<text text-anchor="middle" x="150.61" y="-12.57" font-family="Times New Roman,serif" font-size="14.00">pepetachiprueba</text>
</g>
<!-- natalia&#45;&gt;pepetachiprueba -->
<g id="edge3" class="edge">
<title>natalia&#45;&gt;pepetachiprueba</title>
<path fill="none" stroke="black" d="M245.87,-76C229.36,-66.12 206.29,-52.31 186.98,-40.76"/>
<polygon fill="black" stroke="black" points="188.95,-37.26 178.57,-35.13 185.35,-43.27 188.95,-37.26"/>
</g>
<!-- raiz -->
<g id="node5" class="node">
<title>raiz</title>
<ellipse fill="yellow" stroke="yellow" cx="267.61" cy="-18" rx="27" ry="18"/>
<text text-anchor="middle" x="267.61" y="-12.57" font-family="Times New Roman,serif" font-size="14.00">raiz</text>
</g>
<!-- natalia&#45;&gt;raiz -->
<g id="edge4" class="edge">
<title>natalia&#45;&gt;raiz</title>
<path fill="none" stroke="black" d="M267.61,-71.7C267.61,-64.24 267.61,-55.32 267.61,-46.97"/>
<polygon fill="black" stroke="black" points="271.11,-47.1 267.61,-37.1 264.11,-47.1 271.11,-47.1"/>
</g>
<!-- nono -->
<g id="node6" class="node">
<title>nono</title>
<ellipse fill="yellow" stroke="yellow" cx="342.61" cy="-18" rx="29.61" ry="18"/>
<text text-anchor="middle" x="342.61" y="-12.57" font-family="Times New Roman,serif" font-size="14.00">nono</text>
</g>
<!-- natalia&#45;&gt;nono -->
<g id="edge6" class="edge">
<title>natalia&#45;&gt;nono</title>
<path fill="none" stroke="black" d="M283.88,-73.81C294.14,-64.23 307.56,-51.7 318.99,-41.04"/>
<polygon fill="black" stroke="black" points="320.95,-44.06 325.88,-34.68 316.18,-38.94 320.95,-44.06"/>
</g>
<g id="node7" class="node">
<title></title>
<ellipse fill="yellow" stroke="yellow" cx="417.61" cy="-18" rx="27" ry="18"/>
</g>
<!-- natalia&#45;&gt; -->
<g id="edge8" class="edge">
<title>natalia&#45;&gt;</title>
<path fill="none" stroke="black" d="M292.53,-77.46C315.64,-66.76 350.97,-50.35 381.61,-36 383.05,-35.32 384.53,-34.63 386.03,-33.93"/>
<polygon fill="black" stroke="black" points="387.36,-36.7 394.91,-29.27 384.37,-30.36 387.36,-36.7"/>
</g>
</g>
</svg>
