<?xml version="1.0" encoding="UTF-8" standalone="no"?>
<!DOCTYPE svg PUBLIC "-//W3C//DTD SVG 1.1//EN"
 "http://www.w3.org/Graphics/SVG/1.1/DTD/svg11.dtd">
<!-- Generated by graphviz version 8.1.0 (20230707.0739)
 -->
<!-- Title: btree Pages: 1 -->
<svg width="474pt" height="188pt"
 viewBox="0.00 0.00 473.61 188.00" xmlns="http://www.w3.org/2000/svg" xmlns:xlink="http://www.w3.org/1999/xlink">
<g id="graph0" class="graph" transform="scale(1 1) rotate(0) translate(4 184)">
<title>btree</title>
<polygon fill="white" stroke="none" points="-4,4 -4,-184 469.61,-184 469.61,4 -4,4"/>
<!-- arbolB -->
<g id="node1" class="node">
<title>arbolB</title>
<ellipse fill="yellow" stroke="yellow" cx="252.61" cy="-162" rx="35.6" ry="18"/>
<text text-anchor="middle" x="252.61" y="-156.57" font-family="Times New Roman,serif" font-size="14.00">arbolB</text>
</g>
<!-- natalia -->
<g id="node2" class="node">
<title>natalia</title>
<ellipse fill="yellow" stroke="yellow" cx="252.61" cy="-90" rx="33.6" ry="18"/>
<text text-anchor="middle" x="252.61" y="-84.58" font-family="Times New Roman,serif" font-size="14.00">natalia</text>
</g>
<!-- arbolB&#45;&gt;natalia -->
<g id="edge1" class="edge">
<title>arbolB&#45;&gt;natalia</title>
<path fill="none" stroke="black" d="M252.61,-143.7C252.61,-136.24 252.61,-127.32 252.61,-118.97"/>
<polygon fill="black" stroke="black" points="256.11,-119.1 252.61,-109.1 249.11,-119.1 256.11,-119.1"/>
</g>
<!-- natalia&#45;&gt;natalia -->
<g id="edge6" class="edge">
<title>natalia&#45;&gt;natalia</title>
<path fill="none" stroke="black" d="M277.02,-102.76C291.1,-105.36 304.2,-101.11 304.2,-90 304.2,-81.84 297.14,-77.38 287.81,-76.62"/>
<polygon fill="black" stroke="black" points="287.81,-73.17 278.02,-77.24 288.21,-80.16 287.81,-73.17"/>
</g>
<!-- maria -->
<g id="node3" class="node">
<title>maria</title>
<ellipse fill="yellow" stroke="yellow" cx="30.61" cy="-18" rx="30.61" ry="18"/>
<text text-anchor="middle" x="30.61" y="-12.57" font-family="Times New Roman,serif" font-size="14.00">maria</text>
</g>
<!-- natalia&#45;&gt;maria -->
<g id="edge2" class="edge">
<title>natalia&#45;&gt;maria</title>
<path fill="none" stroke="black" d="M222.63,-81.44C186.27,-72 123.3,-54.8 70.61,-36 68.63,-35.3 66.62,-34.55 64.59,-33.77"/>
<polygon fill="black" stroke="black" points="66.12,-30.21 55.54,-29.72 63.5,-36.7 66.12,-30.21"/>
</g>
<!-- pepetachi -->
<g id="node4" class="node">
<title>pepetachi</title>
<ellipse fill="yellow" stroke="yellow" cx="125.61" cy="-18" rx="46.07" ry="18"/>
<text text-anchor="middle" x="125.61" y="-12.57" font-family="Times New Roman,serif" font-size="14.00">pepetachi</text>
</g>
<!-- natalia&#45;&gt;pepetachi -->
<g id="edge3" class="edge">
<title>natalia&#45;&gt;pepetachi</title>
<path fill="none" stroke="black" d="M229.9,-76.49C210.76,-65.93 183.04,-50.66 160.99,-38.5"/>
<polygon fill="black" stroke="black" points="163.06,-35.1 152.62,-33.34 159.68,-41.23 163.06,-35.1"/>
</g>
<!-- raiz -->
<g id="node5" class="node">
<title>raiz</title>
<ellipse fill="yellow" stroke="yellow" cx="216.61" cy="-18" rx="27" ry="18"/>
<text text-anchor="middle" x="216.61" y="-12.57" font-family="Times New Roman,serif" font-size="14.00">raiz</text>
</g>
<!-- natalia&#45;&gt;raiz -->
<g id="edge4" class="edge">
<title>natalia&#45;&gt;raiz</title>
<path fill="none" stroke="black" d="M244.07,-72.41C239.9,-64.3 234.79,-54.35 230.1,-45.25"/>
<polygon fill="black" stroke="black" points="232.76,-43.76 225.08,-36.47 226.54,-46.96 232.76,-43.76"/>
</g>
<!-- f2 -->
<g id="node6" class="node">
<title>f2</title>
<ellipse fill="yellow" stroke="yellow" cx="288.61" cy="-18" rx="27" ry="18"/>
<text text-anchor="middle" x="288.61" y="-12.57" font-family="Times New Roman,serif" font-size="14.00">f2</text>
</g>
<!-- natalia&#45;&gt;f2 -->
<g id="edge5" class="edge">
<title>natalia&#45;&gt;f2</title>
<path fill="none" stroke="black" d="M261.14,-72.41C265.31,-64.3 270.42,-54.35 275.11,-45.25"/>
<polygon fill="black" stroke="black" points="278.67,-46.96 280.13,-36.47 272.45,-43.76 278.67,-46.96"/>
</g>
<!-- nono -->
<g id="node7" class="node">
<title>nono</title>
<ellipse fill="yellow" stroke="yellow" cx="363.61" cy="-18" rx="29.61" ry="18"/>
<text text-anchor="middle" x="363.61" y="-12.57" font-family="Times New Roman,serif" font-size="14.00">nono</text>
</g>
<!-- natalia&#45;&gt;nono -->
<g id="edge7" class="edge">
<title>natalia&#45;&gt;nono</title>
<path fill="none" stroke="black" d="M273.74,-75.67C290.96,-64.81 315.46,-49.36 334.53,-37.34"/>
<polygon fill="black" stroke="black" points="336.07,-39.87 342.66,-31.58 332.34,-33.95 336.07,-39.87"/>
</g>
<g id="node8" class="node">
<title></title>
<ellipse fill="yellow" stroke="yellow" cx="438.61" cy="-18" rx="27" ry="18"/>
</g>
<!-- natalia&#45;&gt; -->
<g id="edge8" class="edge">
<title>natalia&#45;&gt;</title>
<path fill="none" stroke="black" d="M281.13,-79.88C311.55,-69.94 360.97,-53.13 402.61,-36 404.27,-35.31 405.98,-34.59 407.69,-33.84"/>
<polygon fill="black" stroke="black" points="408.78,-36.74 416.44,-29.43 405.89,-30.36 408.78,-36.74"/>
</g>
</g>
</svg>
