<?xml version="1.0" encoding="UTF-8" standalone="no"?>
<!DOCTYPE svg PUBLIC "-//W3C//DTD SVG 1.1//EN"
 "http://www.w3.org/Graphics/SVG/1.1/DTD/svg11.dtd">
<!-- Generated by graphviz version 8.1.0 (20230707.0739)
 -->
<!-- Title: G Pages: 1 -->
<svg width="178pt" height="173pt"
 viewBox="0.00 0.00 178.00 172.75" xmlns="http://www.w3.org/2000/svg" xmlns:xlink="http://www.w3.org/1999/xlink">
<g id="graph0" class="graph" transform="scale(1 1) rotate(0) translate(4 168.75)">
<title>G</title>
<polygon fill="white" stroke="none" points="-4,4 -4,-168.75 174,-168.75 174,4 -4,4"/>
<text text-anchor="middle" x="85" y="-6.45" font-family="Times New Roman,serif" font-size="14.00">IMAGEN</text>
<!-- some_node -->
<g id="node1" class="node">
<title>some_node</title>
<polygon fill="ORANGE" stroke="none" points="8,-141.75 8,-160.75 30,-160.75 30,-141.75 8,-141.75"/>
<text text-anchor="start" x="9.62" y="-145.45" font-family="Times New Roman,serif" font-size="14.00"> &#160;&#160;&#160;&#160;</text>
<polygon fill="White" stroke="none" points="30,-141.75 30,-160.75 52,-160.75 52,-141.75 30,-141.75"/>
<text text-anchor="start" x="31.62" y="-145.45" font-family="Times New Roman,serif" font-size="14.00"> &#160;&#160;&#160;&#160;</text>
<polygon fill="White" stroke="none" points="52,-141.75 52,-160.75 74,-160.75 74,-141.75 52,-141.75"/>
<text text-anchor="start" x="53.62" y="-145.45" font-family="Times New Roman,serif" font-size="14.00"> &#160;&#160;&#160;&#160;</text>
<polygon fill="White" stroke="none" points="74,-141.75 74,-160.75 96,-160.75 96,-141.75 74,-141.75"/>
<text text-anchor="start" x="75.62" y="-145.45" font-family="Times New Roman,serif" font-size="14.00"> &#160;&#160;&#160;&#160;</text>
<polygon fill="BLACK" stroke="none" points="96,-141.75 96,-160.75 118,-160.75 118,-141.75 96,-141.75"/>
<text text-anchor="start" x="97.62" y="-145.45" font-family="Times New Roman,serif" font-size="14.00"> &#160;&#160;&#160;&#160;</text>
<polygon fill="White" stroke="none" points="118,-141.75 118,-160.75 140,-160.75 140,-141.75 118,-141.75"/>
<text text-anchor="start" x="119.62" y="-145.45" font-family="Times New Roman,serif" font-size="14.00"> &#160;&#160;&#160;&#160;</text>
<polygon fill="White" stroke="none" points="140,-141.75 140,-160.75 162,-160.75 162,-141.75 140,-141.75"/>
<text text-anchor="start" x="141.62" y="-145.45" font-family="Times New Roman,serif" font-size="14.00"> &#160;&#160;&#160;&#160;</text>
<polygon fill="White" stroke="none" points="8,-122.75 8,-141.75 30,-141.75 30,-122.75 8,-122.75"/>
<text text-anchor="start" x="9.62" y="-126.45" font-family="Times New Roman,serif" font-size="14.00"> &#160;&#160;&#160;&#160;</text>
<polygon fill="ORANGE" stroke="none" points="30,-122.75 30,-141.75 52,-141.75 52,-122.75 30,-122.75"/>
<text text-anchor="start" x="31.62" y="-126.45" font-family="Times New Roman,serif" font-size="14.00"> &#160;&#160;&#160;&#160;</text>
<polygon fill="White" stroke="none" points="52,-122.75 52,-141.75 74,-141.75 74,-122.75 52,-122.75"/>
<text text-anchor="start" x="53.62" y="-126.45" font-family="Times New Roman,serif" font-size="14.00"> &#160;&#160;&#160;&#160;</text>
<polygon fill="White" stroke="none" points="74,-122.75 74,-141.75 96,-141.75 96,-122.75 74,-122.75"/>
<text text-anchor="start" x="75.62" y="-126.45" font-family="Times New Roman,serif" font-size="14.00"> &#160;&#160;&#160;&#160;</text>
<polygon fill="BLACK" stroke="none" points="96,-122.75 96,-141.75 118,-141.75 118,-122.75 96,-122.75"/>
<text text-anchor="start" x="97.62" y="-126.45" font-family="Times New Roman,serif" font-size="14.00"> &#160;&#160;&#160;&#160;</text>
<polygon fill="White" stroke="none" points="118,-122.75 118,-141.75 140,-141.75 140,-122.75 118,-122.75"/>
<text text-anchor="start" x="119.62" y="-126.45" font-family="Times New Roman,serif" font-size="14.00"> &#160;&#160;&#160;&#160;</text>
<polygon fill="White" stroke="none" points="140,-122.75 140,-141.75 162,-141.75 162,-122.75 140,-122.75"/>
<text text-anchor="start" x="141.62" y="-126.45" font-family="Times New Roman,serif" font-size="14.00"> &#160;&#160;&#160;&#160;</text>
<polygon fill="White" stroke="none" points="8,-103.75 8,-122.75 30,-122.75 30,-103.75 8,-103.75"/>
<text text-anchor="start" x="9.62" y="-107.45" font-family="Times New Roman,serif" font-size="14.00"> &#160;&#160;&#160;&#160;</text>
<polygon fill="White" stroke="none" points="30,-103.75 30,-122.75 52,-122.75 52,-103.75 30,-103.75"/>
<text text-anchor="start" x="31.62" y="-107.45" font-family="Times New Roman,serif" font-size="14.00"> &#160;&#160;&#160;&#160;</text>
<polygon fill="ORANGE" stroke="none" points="52,-103.75 52,-122.75 74,-122.75 74,-103.75 52,-103.75"/>
<text text-anchor="start" x="53.62" y="-107.45" font-family="Times New Roman,serif" font-size="14.00"> &#160;&#160;&#160;&#160;</text>
<polygon fill="White" stroke="none" points="74,-103.75 74,-122.75 96,-122.75 96,-103.75 74,-103.75"/>
<text text-anchor="start" x="75.62" y="-107.45" font-family="Times New Roman,serif" font-size="14.00"> &#160;&#160;&#160;&#160;</text>
<polygon fill="BLACK" stroke="none" points="96,-103.75 96,-122.75 118,-122.75 118,-103.75 96,-103.75"/>
<text text-anchor="start" x="97.62" y="-107.45" font-family="Times New Roman,serif" font-size="14.00"> &#160;&#160;&#160;&#160;</text>
<polygon fill="White" stroke="none" points="118,-103.75 118,-122.75 140,-122.75 140,-103.75 118,-103.75"/>
<text text-anchor="start" x="119.62" y="-107.45" font-family="Times New Roman,serif" font-size="14.00"> &#160;&#160;&#160;&#160;</text>
<polygon fill="White" stroke="none" points="140,-103.75 140,-122.75 162,-122.75 162,-103.75 140,-103.75"/>
<text text-anchor="start" x="141.62" y="-107.45" font-family="Times New Roman,serif" font-size="14.00"> &#160;&#160;&#160;&#160;</text>
<polygon fill="BLUE" stroke="none" points="8,-84.75 8,-103.75 30,-103.75 30,-84.75 8,-84.75"/>
<text text-anchor="start" x="9.62" y="-88.45" font-family="Times New Roman,serif" font-size="14.00"> &#160;&#160;&#160;&#160;</text>
<polygon fill="BLUE" stroke="none" points="30,-84.75 30,-103.75 52,-103.75 52,-84.75 30,-84.75"/>
<text text-anchor="start" x="31.62" y="-88.45" font-family="Times New Roman,serif" font-size="14.00"> &#160;&#160;&#160;&#160;</text>
<polygon fill="RED" stroke="none" points="52,-84.75 52,-103.75 74,-103.75 74,-84.75 52,-84.75"/>
<text text-anchor="start" x="53.62" y="-88.45" font-family="Times New Roman,serif" font-size="14.00"> &#160;&#160;&#160;&#160;</text>
<polygon fill="ORANGE" stroke="none" points="74,-84.75 74,-103.75 96,-103.75 96,-84.75 74,-84.75"/>
<text text-anchor="start" x="75.62" y="-88.45" font-family="Times New Roman,serif" font-size="14.00"> &#160;&#160;&#160;&#160;</text>
<polygon fill="GREEN" stroke="none" points="96,-84.75 96,-103.75 118,-103.75 118,-84.75 96,-84.75"/>
<text text-anchor="start" x="97.62" y="-88.45" font-family="Times New Roman,serif" font-size="14.00"> &#160;&#160;&#160;&#160;</text>
<polygon fill="RED" stroke="none" points="118,-84.75 118,-103.75 140,-103.75 140,-84.75 118,-84.75"/>
<text text-anchor="start" x="119.62" y="-88.45" font-family="Times New Roman,serif" font-size="14.00"> &#160;&#160;&#160;&#160;</text>
<polygon fill="BLUE" stroke="none" points="140,-84.75 140,-103.75 162,-103.75 162,-84.75 140,-84.75"/>
<text text-anchor="start" x="141.62" y="-88.45" font-family="Times New Roman,serif" font-size="14.00"> &#160;&#160;&#160;&#160;</text>
<polygon fill="White" stroke="none" points="8,-65.75 8,-84.75 30,-84.75 30,-65.75 8,-65.75"/>
<text text-anchor="start" x="9.62" y="-69.45" font-family="Times New Roman,serif" font-size="14.00"> &#160;&#160;&#160;&#160;</text>
<polygon fill="White" stroke="none" points="30,-65.75 30,-84.75 52,-84.75 52,-65.75 30,-65.75"/>
<text text-anchor="start" x="31.62" y="-69.45" font-family="Times New Roman,serif" font-size="14.00"> &#160;&#160;&#160;&#160;</text>
<polygon fill="White" stroke="none" points="52,-65.75 52,-84.75 74,-84.75 74,-65.75 52,-65.75"/>
<text text-anchor="start" x="53.62" y="-69.45" font-family="Times New Roman,serif" font-size="14.00"> &#160;&#160;&#160;&#160;</text>
<polygon fill="White" stroke="none" points="74,-65.75 74,-84.75 96,-84.75 96,-65.75 74,-65.75"/>
<text text-anchor="start" x="75.62" y="-69.45" font-family="Times New Roman,serif" font-size="14.00"> &#160;&#160;&#160;&#160;</text>
<polygon fill="ORANGE" stroke="none" points="96,-65.75 96,-84.75 118,-84.75 118,-65.75 96,-65.75"/>
<text text-anchor="start" x="97.62" y="-69.45" font-family="Times New Roman,serif" font-size="14.00"> &#160;&#160;&#160;&#160;</text>
<polygon fill="White" stroke="none" points="118,-65.75 118,-84.75 140,-84.75 140,-65.75 118,-65.75"/>
<text text-anchor="start" x="119.62" y="-69.45" font-family="Times New Roman,serif" font-size="14.00"> &#160;&#160;&#160;&#160;</text>
<polygon fill="White" stroke="none" points="140,-65.75 140,-84.75 162,-84.75 162,-65.75 140,-65.75"/>
<text text-anchor="start" x="141.62" y="-69.45" font-family="Times New Roman,serif" font-size="14.00"> &#160;&#160;&#160;&#160;</text>
<polygon fill="White" stroke="none" points="8,-46.75 8,-65.75 30,-65.75 30,-46.75 8,-46.75"/>
<text text-anchor="start" x="9.62" y="-50.45" font-family="Times New Roman,serif" font-size="14.00"> &#160;&#160;&#160;&#160;</text>
<polygon fill="White" stroke="none" points="30,-46.75 30,-65.75 52,-65.75 52,-46.75 30,-46.75"/>
<text text-anchor="start" x="31.62" y="-50.45" font-family="Times New Roman,serif" font-size="14.00"> &#160;&#160;&#160;&#160;</text>
<polygon fill="White" stroke="none" points="52,-46.75 52,-65.75 74,-65.75 74,-46.75 52,-46.75"/>
<text text-anchor="start" x="53.62" y="-50.45" font-family="Times New Roman,serif" font-size="14.00"> &#160;&#160;&#160;&#160;</text>
<polygon fill="White" stroke="none" points="74,-46.75 74,-65.75 96,-65.75 96,-46.75 74,-46.75"/>
<text text-anchor="start" x="75.62" y="-50.45" font-family="Times New Roman,serif" font-size="14.00"> &#160;&#160;&#160;&#160;</text>
<polygon fill="BLACK" stroke="none" points="96,-46.75 96,-65.75 118,-65.75 118,-46.75 96,-46.75"/>
<text text-anchor="start" x="97.62" y="-50.45" font-family="Times New Roman,serif" font-size="14.00"> &#160;&#160;&#160;&#160;</text>
<polygon fill="White" stroke="none" points="118,-46.75 118,-65.75 140,-65.75 140,-46.75 118,-46.75"/>
<text text-anchor="start" x="119.62" y="-50.45" font-family="Times New Roman,serif" font-size="14.00"> &#160;&#160;&#160;&#160;</text>
<polygon fill="White" stroke="none" points="140,-46.75 140,-65.75 162,-65.75 162,-46.75 140,-46.75"/>
<text text-anchor="start" x="141.62" y="-50.45" font-family="Times New Roman,serif" font-size="14.00"> &#160;&#160;&#160;&#160;</text>
<polygon fill="White" stroke="none" points="8,-27.75 8,-46.75 30,-46.75 30,-27.75 8,-27.75"/>
<text text-anchor="start" x="9.62" y="-31.45" font-family="Times New Roman,serif" font-size="14.00"> &#160;&#160;&#160;&#160;</text>
<polygon fill="White" stroke="none" points="30,-27.75 30,-46.75 52,-46.75 52,-27.75 30,-27.75"/>
<text text-anchor="start" x="31.62" y="-31.45" font-family="Times New Roman,serif" font-size="14.00"> &#160;&#160;&#160;&#160;</text>
<polygon fill="White" stroke="none" points="52,-27.75 52,-46.75 74,-46.75 74,-27.75 52,-27.75"/>
<text text-anchor="start" x="53.62" y="-31.45" font-family="Times New Roman,serif" font-size="14.00"> &#160;&#160;&#160;&#160;</text>
<polygon fill="White" stroke="none" points="74,-27.75 74,-46.75 96,-46.75 96,-27.75 74,-27.75"/>
<text text-anchor="start" x="75.62" y="-31.45" font-family="Times New Roman,serif" font-size="14.00"> &#160;&#160;&#160;&#160;</text>
<polygon fill="White" stroke="none" points="96,-27.75 96,-46.75 118,-46.75 118,-27.75 96,-27.75"/>
<text text-anchor="start" x="97.62" y="-31.45" font-family="Times New Roman,serif" font-size="14.00"> &#160;&#160;&#160;&#160;</text>
<polygon fill="White" stroke="none" points="118,-27.75 118,-46.75 140,-46.75 140,-27.75 118,-27.75"/>
<text text-anchor="start" x="119.62" y="-31.45" font-family="Times New Roman,serif" font-size="14.00"> &#160;&#160;&#160;&#160;</text>
<polygon fill="ORANGE" stroke="none" points="140,-27.75 140,-46.75 162,-46.75 162,-27.75 140,-27.75"/>
<text text-anchor="start" x="141.62" y="-31.45" font-family="Times New Roman,serif" font-size="14.00"> &#160;&#160;&#160;&#160;</text>
</g>
</g>
</svg>
