<?xml version="1.0" encoding="UTF-8" standalone="no"?>
<!DOCTYPE svg PUBLIC "-//W3C//DTD SVG 1.1//EN"
 "http://www.w3.org/Graphics/SVG/1.1/DTD/svg11.dtd">
<!-- Generated by graphviz version 8.1.0 (20230707.0739)
 -->
<!-- Title: G Pages: 1 -->
<svg width="178pt" height="140pt"
 viewBox="0.00 0.00 178.00 139.75" xmlns="http://www.w3.org/2000/svg" xmlns:xlink="http://www.w3.org/1999/xlink">
<g id="graph0" class="graph" transform="scale(1 1) rotate(0) translate(4 135.75)">
<title>G</title>
<polygon fill="white" stroke="none" points="-4,4 -4,-135.75 174,-135.75 174,4 -4,4"/>
<text text-anchor="middle" x="85" y="-6.45" font-family="Times New Roman,serif" font-size="14.00">IMAGEN</text>
<!-- some_node -->
<g id="node1" class="node">
<title>some_node</title>
<polygon fill="White" stroke="none" points="8,-108.75 8,-127.75 30,-127.75 30,-108.75 8,-108.75"/>
<text text-anchor="start" x="9.62" y="-112.45" font-family="Times New Roman,serif" font-size="14.00"> &#160;&#160;&#160;&#160;</text>
<polygon fill="White" stroke="none" points="30,-108.75 30,-127.75 52,-127.75 52,-108.75 30,-108.75"/>
<text text-anchor="start" x="31.62" y="-112.45" font-family="Times New Roman,serif" font-size="14.00"> &#160;&#160;&#160;&#160;</text>
<polygon fill="White" stroke="none" points="52,-108.75 52,-127.75 74,-127.75 74,-108.75 52,-108.75"/>
<text text-anchor="start" x="53.62" y="-112.45" font-family="Times New Roman,serif" font-size="14.00"> &#160;&#160;&#160;&#160;</text>
<polygon fill="White" stroke="none" points="74,-108.75 74,-127.75 96,-127.75 96,-108.75 74,-108.75"/>
<text text-anchor="start" x="75.62" y="-112.45" font-family="Times New Roman,serif" font-size="14.00"> &#160;&#160;&#160;&#160;</text>
<polygon fill="White" stroke="none" points="96,-108.75 96,-127.75 118,-127.75 118,-108.75 96,-108.75"/>
<text text-anchor="start" x="97.62" y="-112.45" font-family="Times New Roman,serif" font-size="14.00"> &#160;&#160;&#160;&#160;</text>
<polygon fill="White" stroke="none" points="118,-108.75 118,-127.75 140,-127.75 140,-108.75 118,-108.75"/>
<text text-anchor="start" x="119.62" y="-112.45" font-family="Times New Roman,serif" font-size="14.00"> &#160;&#160;&#160;&#160;</text>
<polygon fill="White" stroke="none" points="140,-108.75 140,-127.75 162,-127.75 162,-108.75 140,-108.75"/>
<text text-anchor="start" x="141.62" y="-112.45" font-family="Times New Roman,serif" font-size="14.00"> &#160;&#160;&#160;&#160;</text>
<polygon fill="White" stroke="none" points="8,-89.75 8,-108.75 30,-108.75 30,-89.75 8,-89.75"/>
<text text-anchor="start" x="9.62" y="-93.45" font-family="Times New Roman,serif" font-size="14.00"> &#160;&#160;&#160;&#160;</text>
<polygon fill="White" stroke="none" points="30,-89.75 30,-108.75 52,-108.75 52,-89.75 30,-89.75"/>
<text text-anchor="start" x="31.62" y="-93.45" font-family="Times New Roman,serif" font-size="14.00"> &#160;&#160;&#160;&#160;</text>
<polygon fill="White" stroke="none" points="52,-89.75 52,-108.75 74,-108.75 74,-89.75 52,-89.75"/>
<text text-anchor="start" x="53.62" y="-93.45" font-family="Times New Roman,serif" font-size="14.00"> &#160;&#160;&#160;&#160;</text>
<polygon fill="White" stroke="none" points="74,-89.75 74,-108.75 96,-108.75 96,-89.75 74,-89.75"/>
<text text-anchor="start" x="75.62" y="-93.45" font-family="Times New Roman,serif" font-size="14.00"> &#160;&#160;&#160;&#160;</text>
<polygon fill="White" stroke="none" points="96,-89.75 96,-108.75 118,-108.75 118,-89.75 96,-89.75"/>
<text text-anchor="start" x="97.62" y="-93.45" font-family="Times New Roman,serif" font-size="14.00"> &#160;&#160;&#160;&#160;</text>
<polygon fill="White" stroke="none" points="118,-89.75 118,-108.75 140,-108.75 140,-89.75 118,-89.75"/>
<text text-anchor="start" x="119.62" y="-93.45" font-family="Times New Roman,serif" font-size="14.00"> &#160;&#160;&#160;&#160;</text>
<polygon fill="White" stroke="none" points="140,-89.75 140,-108.75 162,-108.75 162,-89.75 140,-89.75"/>
<text text-anchor="start" x="141.62" y="-93.45" font-family="Times New Roman,serif" font-size="14.00"> &#160;&#160;&#160;&#160;</text>
<polygon fill="White" stroke="none" points="8,-70.75 8,-89.75 30,-89.75 30,-70.75 8,-70.75"/>
<text text-anchor="start" x="9.62" y="-74.45" font-family="Times New Roman,serif" font-size="14.00"> &#160;&#160;&#160;&#160;</text>
<polygon fill="White" stroke="none" points="30,-70.75 30,-89.75 52,-89.75 52,-70.75 30,-70.75"/>
<text text-anchor="start" x="31.62" y="-74.45" font-family="Times New Roman,serif" font-size="14.00"> &#160;&#160;&#160;&#160;</text>
<polygon fill="White" stroke="none" points="52,-70.75 52,-89.75 74,-89.75 74,-70.75 52,-70.75"/>
<text text-anchor="start" x="53.62" y="-74.45" font-family="Times New Roman,serif" font-size="14.00"> &#160;&#160;&#160;&#160;</text>
<polygon fill="White" stroke="none" points="74,-70.75 74,-89.75 96,-89.75 96,-70.75 74,-70.75"/>
<text text-anchor="start" x="75.62" y="-74.45" font-family="Times New Roman,serif" font-size="14.00"> &#160;&#160;&#160;&#160;</text>
<polygon fill="White" stroke="none" points="96,-70.75 96,-89.75 118,-89.75 118,-70.75 96,-70.75"/>
<text text-anchor="start" x="97.62" y="-74.45" font-family="Times New Roman,serif" font-size="14.00"> &#160;&#160;&#160;&#160;</text>
<polygon fill="White" stroke="none" points="118,-70.75 118,-89.75 140,-89.75 140,-70.75 118,-70.75"/>
<text text-anchor="start" x="119.62" y="-74.45" font-family="Times New Roman,serif" font-size="14.00"> &#160;&#160;&#160;&#160;</text>
<polygon fill="White" stroke="none" points="140,-70.75 140,-89.75 162,-89.75 162,-70.75 140,-70.75"/>
<text text-anchor="start" x="141.62" y="-74.45" font-family="Times New Roman,serif" font-size="14.00"> &#160;&#160;&#160;&#160;</text>
<polygon fill="BLUE" stroke="none" points="8,-51.75 8,-70.75 30,-70.75 30,-51.75 8,-51.75"/>
<text text-anchor="start" x="9.62" y="-55.45" font-family="Times New Roman,serif" font-size="14.00"> &#160;&#160;&#160;&#160;</text>
<polygon fill="BLUE" stroke="none" points="30,-51.75 30,-70.75 52,-70.75 52,-51.75 30,-51.75"/>
<text text-anchor="start" x="31.62" y="-55.45" font-family="Times New Roman,serif" font-size="14.00"> &#160;&#160;&#160;&#160;</text>
<polygon fill="RED" stroke="none" points="52,-51.75 52,-70.75 74,-70.75 74,-51.75 52,-51.75"/>
<text text-anchor="start" x="53.62" y="-55.45" font-family="Times New Roman,serif" font-size="14.00"> &#160;&#160;&#160;&#160;</text>
<polygon fill="BLUE" stroke="none" points="74,-51.75 74,-70.75 96,-70.75 96,-51.75 74,-51.75"/>
<text text-anchor="start" x="75.62" y="-55.45" font-family="Times New Roman,serif" font-size="14.00"> &#160;&#160;&#160;&#160;</text>
<polygon fill="GREEN" stroke="none" points="96,-51.75 96,-70.75 118,-70.75 118,-51.75 96,-51.75"/>
<text text-anchor="start" x="97.62" y="-55.45" font-family="Times New Roman,serif" font-size="14.00"> &#160;&#160;&#160;&#160;</text>
<polygon fill="RED" stroke="none" points="118,-51.75 118,-70.75 140,-70.75 140,-51.75 118,-51.75"/>
<text text-anchor="start" x="119.62" y="-55.45" font-family="Times New Roman,serif" font-size="14.00"> &#160;&#160;&#160;&#160;</text>
<polygon fill="BLUE" stroke="none" points="140,-51.75 140,-70.75 162,-70.75 162,-51.75 140,-51.75"/>
<text text-anchor="start" x="141.62" y="-55.45" font-family="Times New Roman,serif" font-size="14.00"> &#160;&#160;&#160;&#160;</text>
</g>
</g>
</svg>
