<?xml version="1.0" encoding="UTF-8" standalone="no"?>
<!DOCTYPE svg PUBLIC "-//W3C//DTD SVG 1.1//EN"
 "http://www.w3.org/Graphics/SVG/1.1/DTD/svg11.dtd">
<!-- Generated by graphviz version 8.1.0 (20230707.0739)
 -->
<!-- Title: blockchain Pages: 1 -->
<svg width="1114pt" height="428pt"
 viewBox="0.00 0.00 1113.75 428.00" xmlns="http://www.w3.org/2000/svg" xmlns:xlink="http://www.w3.org/1999/xlink">
<g id="graph0" class="graph" transform="scale(1 1) rotate(0) translate(4 424)">
<title>blockchain</title>
<polygon fill="white" stroke="none" points="-4,4 -4,-424 1109.75,-424 1109.75,4 -4,4"/>
<!-- node2 -->
<g id="node1" class="node">
<title>node2</title>
<polygon fill="none" stroke="lightgreen" points="584.5,-377.38 584.5,-403.12 1097.75,-403.12 1097.75,-377.38 584.5,-377.38"/>
<text text-anchor="start" x="834" y="-384.82" font-family="Times New Roman,serif" font-size="14.00">ID</text>
<polygon fill="none" stroke="lightgreen" points="584.5,-351.62 584.5,-377.38 1097.75,-377.38 1097.75,-351.62 584.5,-351.62"/>
<text text-anchor="start" x="837.75" y="-359.07" font-family="Times New Roman,serif" font-size="14.00">2</text>
<polygon fill="none" stroke="lightgreen" points="584.5,-325.88 584.5,-351.62 1097.75,-351.62 1097.75,-325.88 584.5,-325.88"/>
<text text-anchor="start" x="828.38" y="-333.32" font-family="Times New Roman,serif" font-size="14.00">Data</text>
<polygon fill="none" stroke="lightgreen" points="584.5,-300.12 584.5,-325.88 1097.75,-325.88 1097.75,-300.12 584.5,-300.12"/>
<text text-anchor="start" x="603.38" y="-307.57" font-family="Times New Roman,serif" font-size="14.00">3ova calle A ZONA 25ova calle A ZONA 5 &#160;&#160;&#160;&#160;&#160;&#160;&#160;&#160;&#160;&#160;&#160;&#160;&#160;&#160;&#160;&#160;&#160;&#160;&#160;&#160;&#160;&#160;&#160;&#160;&#160;&#160;&#160;&#160;&#160;&#160;&#160;&#160;&#160;&#160;&#160;&#160;&#160;&#160;&#160;&#160;&#160;&#160;&#160;&#160;&#160;&#160;&#160;&#160;&#160;&#160;&#160;&#160;&#160;&#160;&#160;&#160;&#160;&#160;&#160;&#160;&#160;</text>
<polygon fill="none" stroke="lightgreen" points="584.5,-274.38 584.5,-300.12 1097.75,-300.12 1097.75,-274.38 584.5,-274.38"/>
<text text-anchor="start" x="603.38" y="-281.82" font-family="Times New Roman,serif" font-size="14.00">5ova calle A ZONA 52ova calle A ZONA 3 &#160;&#160;&#160;&#160;&#160;&#160;&#160;&#160;&#160;&#160;&#160;&#160;&#160;&#160;&#160;&#160;&#160;&#160;&#160;&#160;&#160;&#160;&#160;&#160;&#160;&#160;&#160;&#160;&#160;&#160;&#160;&#160;&#160;&#160;&#160;&#160;&#160;&#160;&#160;&#160;&#160;&#160;&#160;&#160;&#160;&#160;&#160;&#160;&#160;&#160;&#160;&#160;&#160;&#160;&#160;&#160;&#160;&#160;&#160;&#160;&#160;</text>
<polygon fill="none" stroke="lightgreen" points="584.5,-248.62 584.5,-274.38 1097.75,-274.38 1097.75,-248.62 584.5,-248.62"/>
<text text-anchor="start" x="807.75" y="-256.07" font-family="Times New Roman,serif" font-size="14.00">RootMerkle</text>
<polygon fill="none" stroke="lightgreen" points="584.5,-222.88 584.5,-248.62 1097.75,-248.62 1097.75,-222.88 584.5,-222.88"/>
<text text-anchor="start" x="595.5" y="-230.32" font-family="Times New Roman,serif" font-size="14.00">CEB3D0D290FDA4C60005DAEFBE49E44913DD1B102296AEA72902C66711C13032</text>
<polygon fill="none" stroke="lightgreen" points="584.5,-197.12 584.5,-222.88 1097.75,-222.88 1097.75,-197.12 584.5,-197.12"/>
<text text-anchor="start" x="822.38" y="-204.57" font-family="Times New Roman,serif" font-size="14.00">HASH</text>
<polygon fill="none" stroke="lightgreen" points="584.5,-171.38 584.5,-197.12 1097.75,-197.12 1097.75,-171.38 584.5,-171.38"/>
<text text-anchor="start" x="603.75" y="-178.82" font-family="Times New Roman,serif" font-size="14.00">B1A940183F286A9361671C209565339962F7A46DFD0416F5FD671A4DF5302E8A</text>
<polygon fill="none" stroke="lightgreen" points="584.5,-145.62 584.5,-171.38 1097.75,-171.38 1097.75,-145.62 584.5,-145.62"/>
<text text-anchor="start" x="802.5" y="-153.07" font-family="Times New Roman,serif" font-size="14.00">PREV HASH</text>
<polygon fill="none" stroke="lightgreen" points="584.5,-119.88 584.5,-145.62 1097.75,-145.62 1097.75,-119.88 584.5,-119.88"/>
<text text-anchor="start" x="589.5" y="-127.33" font-family="Times New Roman,serif" font-size="14.00">3DE91BCDCAF0B782E0FF06538BA68AB420DDDEC66C3FC395F1379E3B9EDF361F</text>
<polygon fill="none" stroke="lightgreen" points="584.5,-94.12 584.5,-119.88 1097.75,-119.88 1097.75,-94.12 584.5,-94.12"/>
<text text-anchor="start" x="822.75" y="-101.58" font-family="Times New Roman,serif" font-size="14.00">Nonce</text>
<polygon fill="none" stroke="lightgreen" points="584.5,-68.38 584.5,-94.12 1097.75,-94.12 1097.75,-68.38 584.5,-68.38"/>
<text text-anchor="start" x="827.62" y="-75.83" font-family="Times New Roman,serif" font-size="14.00">4001</text>
<polygon fill="none" stroke="lightgreen" points="584.5,-42.62 584.5,-68.38 1097.75,-68.38 1097.75,-42.62 584.5,-42.62"/>
<text text-anchor="start" x="807" y="-50.08" font-family="Times New Roman,serif" font-size="14.00">Timestamps</text>
<polygon fill="none" stroke="lightgreen" points="584.5,-16.88 584.5,-42.62 1097.75,-42.62 1097.75,-16.88 584.5,-16.88"/>
<text text-anchor="start" x="786.38" y="-24.32" font-family="Times New Roman,serif" font-size="14.00">28&#45;04&#45;2024 &#45;&#45; 18:13</text>
</g>
<!-- node1 -->
<g id="node2" class="node">
<title>node1</title>
<polygon fill="none" stroke="lightgreen" points="8,-390.25 8,-416 532.5,-416 532.5,-390.25 8,-390.25"/>
<text text-anchor="start" x="263.12" y="-397.7" font-family="Times New Roman,serif" font-size="14.00">ID</text>
<polygon fill="none" stroke="lightgreen" points="8,-364.5 8,-390.25 532.5,-390.25 532.5,-364.5 8,-364.5"/>
<text text-anchor="start" x="266.88" y="-371.95" font-family="Times New Roman,serif" font-size="14.00">1</text>
<polygon fill="none" stroke="lightgreen" points="8,-338.75 8,-364.5 532.5,-364.5 532.5,-338.75 8,-338.75"/>
<text text-anchor="start" x="257.5" y="-346.2" font-family="Times New Roman,serif" font-size="14.00">Data</text>
<polygon fill="none" stroke="lightgreen" points="8,-313 8,-338.75 532.5,-338.75 532.5,-313 8,-313"/>
<text text-anchor="start" x="13" y="-320.45" font-family="Times New Roman,serif" font-size="14.00">8DIRECCION DE LA 67DIRECCION DE LA 7 &#160;&#160;&#160;&#160;&#160;&#160;&#160;&#160;&#160;&#160;&#160;&#160;&#160;&#160;&#160;&#160;&#160;&#160;&#160;&#160;&#160;&#160;&#160;&#160;&#160;&#160;&#160;&#160;&#160;&#160;&#160;&#160;&#160;&#160;&#160;&#160;&#160;&#160;&#160;&#160;&#160;&#160;&#160;&#160;&#160;&#160;&#160;&#160;&#160;&#160;&#160;&#160;&#160;&#160;&#160;&#160;&#160;&#160;&#160;&#160;&#160;&#160;&#160;</text>
<polygon fill="none" stroke="lightgreen" points="8,-287.25 8,-313 532.5,-313 532.5,-287.25 8,-287.25"/>
<text text-anchor="start" x="22.75" y="-294.7" font-family="Times New Roman,serif" font-size="14.00">7DIRECCION DE LA 75ova calle A ZONA 5 &#160;&#160;&#160;&#160;&#160;&#160;&#160;&#160;&#160;&#160;&#160;&#160;&#160;&#160;&#160;&#160;&#160;&#160;&#160;&#160;&#160;&#160;&#160;&#160;&#160;&#160;&#160;&#160;&#160;&#160;&#160;&#160;&#160;&#160;&#160;&#160;&#160;&#160;&#160;&#160;&#160;&#160;&#160;&#160;&#160;&#160;&#160;&#160;&#160;&#160;&#160;&#160;&#160;&#160;&#160;&#160;&#160;&#160;&#160;&#160;&#160;&#160;</text>
<polygon fill="none" stroke="lightgreen" points="8,-261.5 8,-287.25 532.5,-287.25 532.5,-261.5 8,-261.5"/>
<text text-anchor="start" x="32.5" y="-268.95" font-family="Times New Roman,serif" font-size="14.00">5ova calle A ZONA 51ova calle A ZONA 1 &#160;&#160;&#160;&#160;&#160;&#160;&#160;&#160;&#160;&#160;&#160;&#160;&#160;&#160;&#160;&#160;&#160;&#160;&#160;&#160;&#160;&#160;&#160;&#160;&#160;&#160;&#160;&#160;&#160;&#160;&#160;&#160;&#160;&#160;&#160;&#160;&#160;&#160;&#160;&#160;&#160;&#160;&#160;&#160;&#160;&#160;&#160;&#160;&#160;&#160;&#160;&#160;&#160;&#160;&#160;&#160;&#160;&#160;&#160;&#160;&#160;</text>
<polygon fill="none" stroke="lightgreen" points="8,-235.75 8,-261.5 532.5,-261.5 532.5,-235.75 8,-235.75"/>
<text text-anchor="start" x="236.88" y="-243.2" font-family="Times New Roman,serif" font-size="14.00">RootMerkle</text>
<polygon fill="none" stroke="lightgreen" points="8,-210 8,-235.75 532.5,-235.75 532.5,-210 8,-210"/>
<text text-anchor="start" x="25.75" y="-217.45" font-family="Times New Roman,serif" font-size="14.00">9A45DB9CF0283CD79780B5ADBB7F5043922BA0E4B8C2A0AA7105D97247531499</text>
<polygon fill="none" stroke="lightgreen" points="8,-184.25 8,-210 532.5,-210 532.5,-184.25 8,-184.25"/>
<text text-anchor="start" x="251.5" y="-191.7" font-family="Times New Roman,serif" font-size="14.00">HASH</text>
<polygon fill="none" stroke="lightgreen" points="8,-158.5 8,-184.25 532.5,-184.25 532.5,-158.5 8,-158.5"/>
<text text-anchor="start" x="18.62" y="-165.95" font-family="Times New Roman,serif" font-size="14.00">3DE91BCDCAF0B782E0FF06538BA68AB420DDDEC66C3FC395F1379E3B9EDF361F</text>
<polygon fill="none" stroke="lightgreen" points="8,-132.75 8,-158.5 532.5,-158.5 532.5,-132.75 8,-132.75"/>
<text text-anchor="start" x="231.62" y="-140.2" font-family="Times New Roman,serif" font-size="14.00">PREV HASH</text>
<polygon fill="none" stroke="lightgreen" points="8,-107 8,-132.75 532.5,-132.75 532.5,-107 8,-107"/>
<text text-anchor="start" x="256.75" y="-114.45" font-family="Times New Roman,serif" font-size="14.00">0000</text>
<polygon fill="none" stroke="lightgreen" points="8,-81.25 8,-107 532.5,-107 532.5,-81.25 8,-81.25"/>
<text text-anchor="start" x="251.88" y="-88.7" font-family="Times New Roman,serif" font-size="14.00">Nonce</text>
<polygon fill="none" stroke="lightgreen" points="8,-55.5 8,-81.25 532.5,-81.25 532.5,-55.5 8,-55.5"/>
<text text-anchor="start" x="256.75" y="-62.95" font-family="Times New Roman,serif" font-size="14.00">4000</text>
<polygon fill="none" stroke="lightgreen" points="8,-29.75 8,-55.5 532.5,-55.5 532.5,-29.75 8,-29.75"/>
<text text-anchor="start" x="236.12" y="-37.2" font-family="Times New Roman,serif" font-size="14.00">Timestamps</text>
<polygon fill="none" stroke="lightgreen" points="8,-4 8,-29.75 532.5,-29.75 532.5,-4 8,-4"/>
<text text-anchor="start" x="215.5" y="-11.45" font-family="Times New Roman,serif" font-size="14.00">28&#45;04&#45;2024 &#45;&#45; 18:13</text>
</g>
<!-- node1&#45;&gt;node2 -->
<g id="edge1" class="edge">
<title>node1&#45;&gt;node2</title>
<path fill="none" stroke="black" d="M540.28,-210C548.77,-210 557.27,-210 565.77,-210"/>
<polygon fill="black" stroke="black" points="565.52,-213.5 575.52,-210 565.52,-206.5 565.52,-213.5"/>
</g>
</g>
</svg>
