<?xml version="1.0" encoding="UTF-8" standalone="no"?>
<!DOCTYPE svg PUBLIC "-//W3C//DTD SVG 1.1//EN"
 "http://www.w3.org/Graphics/SVG/1.1/DTD/svg11.dtd">
<!-- Generated by graphviz version 8.1.0 (20230707.0739)
 -->
<!-- Title: G Pages: 1 -->
<svg width="537pt" height="527pt"
 viewBox="0.00 0.00 536.75 526.75" xmlns="http://www.w3.org/2000/svg" xmlns:xlink="http://www.w3.org/1999/xlink">
<g id="graph0" class="graph" transform="scale(1 1) rotate(0) translate(4 522.75)">
<title>G</title>
<polygon fill="white" stroke="none" points="-4,4 -4,-522.75 532.75,-522.75 532.75,4 -4,4"/>
<text text-anchor="middle" x="264.38" y="-6.45" font-family="Times New Roman,serif" font-size="14.00">Distancia minima</text>
<!-- 4 -->
<g id="node1" class="node">
<title>4</title>
<ellipse fill="lightblue" stroke="lightblue" cx="294" cy="-500.75" rx="45.08" ry="18"/>
<text text-anchor="middle" x="294" y="-495.32" font-family="Times New Roman,serif" font-size="14.00"> &#160;&#160;&#160;&#160;&#160;&#160;&#160;&#160;&#160;&#160;4 </text>
</g>
<!-- 6 -->
<g id="node3" class="node">
<title>6</title>
<ellipse fill="lightblue" stroke="lightblue" cx="104" cy="-413" rx="45.08" ry="18"/>
<text text-anchor="middle" x="104" y="-407.57" font-family="Times New Roman,serif" font-size="14.00"> &#160;&#160;&#160;&#160;&#160;&#160;&#160;&#160;&#160;&#160;6 </text>
</g>
<!-- 4&#45;&gt;6 -->
<g id="edge9" class="edge">
<title>4&#45;&gt;6</title>
<path fill="none" stroke="black" d="M249.28,-497.96C216.69,-494.76 172.73,-486.36 140.25,-464.75 131.11,-458.67 123.53,-449.45 117.7,-440.53"/>
<polygon fill="black" stroke="black" points="120.22,-438.91 112.08,-432.13 114.21,-442.51 120.22,-438.91"/>
<text text-anchor="middle" x="168.38" y="-451.45" font-family="Times New Roman,serif" font-size="14.00"> &#160;&#160;&#160;&#160;&#160;&#160;&#160;&#160;&#160;12 </text>
</g>
<!-- 1 -->
<g id="node4" class="node">
<title>1</title>
<ellipse fill="none" stroke="black" cx="366" cy="-217.25" rx="27" ry="18"/>
<text text-anchor="middle" x="366" y="-211.82" font-family="Times New Roman,serif" font-size="14.00">1</text>
</g>
<!-- 4&#45;&gt;1 -->
<g id="edge10" class="edge">
<title>4&#45;&gt;1</title>
<path fill="none" stroke="black" d="M323.95,-486.98C333.2,-481.51 342.42,-474.17 348,-464.75 350.75,-460.1 360.32,-310.11 364.27,-246.41"/>
<polygon fill="black" stroke="black" points="367.82,-246.78 364.94,-236.58 360.83,-246.34 367.82,-246.78"/>
<text text-anchor="middle" x="383.88" y="-353.57" font-family="Times New Roman,serif" font-size="14.00"> &#160;&#160;&#160;&#160;&#160;&#160;&#160;&#160;&#160;&#160;7 </text>
</g>
<!-- 2 -->
<g id="node5" class="node">
<title>2</title>
<ellipse fill="lightblue" stroke="lightblue" cx="294" cy="-359" rx="45.08" ry="18"/>
<text text-anchor="middle" x="294" y="-353.57" font-family="Times New Roman,serif" font-size="14.00"> &#160;&#160;&#160;&#160;&#160;&#160;&#160;&#160;&#160;&#160;2 </text>
</g>
<!-- 4&#45;&gt;2 -->
<g id="edge8" class="edge">
<title>4&#45;&gt;2</title>
<path fill="none" stroke="black" d="M294,-482.33C294,-458.67 294,-416.08 294,-387.93"/>
<polygon fill="black" stroke="black" points="297.5,-388.2 294,-378.2 290.5,-388.2 297.5,-388.2"/>
<text text-anchor="middle" x="319.88" y="-451.45" font-family="Times New Roman,serif" font-size="14.00"> &#160;&#160;&#160;&#160;&#160;&#160;&#160;&#160;&#160;&#160;5 </text>
</g>
<!-- 5 -->
<g id="node2" class="node">
<title>5</title>
<ellipse fill="lightblue" stroke="lightblue" cx="263" cy="-129.5" rx="45.08" ry="18"/>
<text text-anchor="middle" x="263" y="-124.08" font-family="Times New Roman,serif" font-size="14.00"> &#160;&#160;&#160;&#160;&#160;&#160;&#160;&#160;&#160;&#160;5 </text>
</g>
<!-- 5&#45;&gt;6 -->
<g id="edge14" class="edge">
<title>5&#45;&gt;6</title>
<path fill="none" stroke="black" d="M234.34,-143.62C197.32,-162.25 134.09,-200.09 104.25,-253.25 81.22,-294.27 88.79,-351.17 96.39,-384.54"/>
<polygon fill="black" stroke="black" points="93.15,-385.01 98.93,-393.89 99.95,-383.35 93.15,-385.01"/>
<text text-anchor="middle" x="130.88" y="-255.7" font-family="Times New Roman,serif" font-size="14.00"> &#160;&#160;&#160;&#160;&#160;&#160;&#160;&#160;&#160;&#160;4 </text>
</g>
<!-- 5&#45;&gt;1 -->
<g id="edge12" class="edge">
<title>5&#45;&gt;1</title>
<path fill="none" stroke="black" d="M269.92,-147.29C275.06,-158.1 282.96,-171.84 293.25,-181.25 304.27,-191.33 318.71,-199.08 331.82,-204.69"/>
<polygon fill="black" stroke="black" points="330.38,-208.28 340.96,-208.74 332.98,-201.78 330.38,-208.28"/>
<text text-anchor="middle" x="320.38" y="-167.95" font-family="Times New Roman,serif" font-size="14.00"> &#160;&#160;&#160;&#160;&#160;&#160;&#160;&#160;&#160;10 </text>
</g>
<!-- 3 -->
<g id="node6" class="node">
<title>3</title>
<ellipse fill="lightblue" stroke="lightblue" cx="153" cy="-305" rx="45.08" ry="18"/>
<text text-anchor="middle" x="153" y="-299.57" font-family="Times New Roman,serif" font-size="14.00"> &#160;&#160;&#160;&#160;&#160;&#160;&#160;&#160;&#160;&#160;3 </text>
</g>
<!-- 5&#45;&gt;3 -->
<g id="edge11" class="edge">
<title>5&#45;&gt;3</title>
<path fill="none" stroke="black" d="M245,-146.28C221.77,-167.84 182.19,-208.92 164,-253.25 161.06,-260.42 158.85,-268.5 157.22,-276.07"/>
<polygon fill="black" stroke="black" points="153.64,-275.16 155.21,-285.63 160.52,-276.46 153.64,-275.16"/>
<text text-anchor="middle" x="223.38" y="-211.82" font-family="Times New Roman,serif" font-size="14.00"> &#160;&#160;&#160;&#160;&#160;&#160;&#160;&#160;&#160;14 </text>
</g>
<!-- 7 -->
<g id="node7" class="node">
<title>7</title>
<ellipse fill="none" stroke="black" cx="263" cy="-41.75" rx="45.08" ry="18"/>
<text text-anchor="middle" x="263" y="-36.33" font-family="Times New Roman,serif" font-size="14.00"> &#160;&#160;&#160;&#160;&#160;&#160;&#160;&#160;&#160;&#160;7 </text>
</g>
<!-- 5&#45;&gt;7 -->
<g id="edge13" class="edge">
<title>5&#45;&gt;7</title>
<path fill="none" stroke="black" d="M263,-111.15C263,-99.64 263,-84.28 263,-71.03"/>
<polygon fill="black" stroke="black" points="266.5,-71.08 263,-61.08 259.5,-71.08 266.5,-71.08"/>
<text text-anchor="middle" x="290.38" y="-80.2" font-family="Times New Roman,serif" font-size="14.00"> &#160;&#160;&#160;&#160;&#160;&#160;&#160;&#160;&#160;13 </text>
</g>
<!-- 6&#45;&gt;4 -->
<g id="edge15" class="edge">
<title>6&#45;&gt;4</title>
<path fill="none" stroke="black" d="M82.55,-429.27C70.51,-439.68 59.67,-453.56 69.25,-464.75 90.59,-489.67 178.91,-496.99 238.27,-499.05"/>
<polygon fill="black" stroke="black" points="237.89,-502.57 248,-499.38 238.11,-495.57 237.89,-502.57"/>
<text text-anchor="middle" x="95.88" y="-451.45" font-family="Times New Roman,serif" font-size="14.00"> &#160;&#160;&#160;&#160;&#160;&#160;&#160;&#160;&#160;&#160;2 </text>
</g>
<!-- 6&#45;&gt;3 -->
<g id="edge16" class="edge">
<title>6&#45;&gt;3</title>
<path fill="none" stroke="black" d="M111.87,-394.97C119.62,-378.2 131.58,-352.34 140.61,-332.81"/>
<polygon fill="black" stroke="black" points="144.13,-334.53 145.15,-323.99 137.77,-331.6 144.13,-334.53"/>
<text text-anchor="middle" x="163.38" y="-353.57" font-family="Times New Roman,serif" font-size="14.00"> &#160;&#160;&#160;&#160;&#160;&#160;&#160;&#160;&#160;18 </text>
</g>
<!-- 1&#45;&gt;4 -->
<g id="edge1" class="edge">
<title>1&#45;&gt;4</title>
<path fill="none" stroke="black" d="M376.64,-234.22C394.22,-262.56 426.32,-323.67 415,-377 406.14,-418.75 406.4,-434.8 376,-464.75 366.44,-474.17 353.95,-481.23 341.6,-486.44"/>
<polygon fill="black" stroke="black" points="340.41,-483.53 332.34,-490.39 342.93,-490.06 340.41,-483.53"/>
<text text-anchor="middle" x="442.88" y="-353.57" font-family="Times New Roman,serif" font-size="14.00"> &#160;&#160;&#160;&#160;&#160;&#160;&#160;&#160;&#160;&#160;7 </text>
</g>
<!-- 1&#45;&gt;4 -->
<g id="edge3" class="edge">
<title>1&#45;&gt;4</title>
<path fill="none" stroke="black" d="M384.94,-230.47C421.42,-255.68 495.9,-316.19 473,-377 454.72,-425.56 439.1,-435.86 396,-464.75 380.14,-475.38 360.73,-483.1 343.11,-488.53"/>
<polygon fill="black" stroke="black" points="342.62,-485.32 333.99,-491.47 344.57,-492.04 342.62,-485.32"/>
<text text-anchor="middle" x="502.88" y="-353.57" font-family="Times New Roman,serif" font-size="14.00"> &#160;&#160;&#160;&#160;&#160;&#160;&#160;&#160;&#160;&#160;7 </text>
</g>
<!-- 1&#45;&gt;5 -->
<g id="edge2" class="edge">
<title>1&#45;&gt;5</title>
<path fill="none" stroke="black" d="M365.07,-198.86C363.64,-188.08 360.19,-174.6 352,-165.5 341.81,-154.18 327.5,-146.47 313.32,-141.25"/>
<polygon fill="black" stroke="black" points="314.68,-137.68 304.09,-137.87 312.48,-144.33 314.68,-137.68"/>
<text text-anchor="middle" x="385.88" y="-167.95" font-family="Times New Roman,serif" font-size="14.00"> &#160;&#160;&#160;&#160;&#160;&#160;&#160;&#160;&#160;&#160;3 </text>
</g>
<!-- 1&#45;&gt;6 -->
<g id="edge4" class="edge">
<title>1&#45;&gt;6</title>
<path fill="none" stroke="black" d="M339.97,-222.31C318.43,-226.79 288.06,-235.81 267,-253.25 218,-293.84 243.44,-335.74 195,-377 182.85,-387.34 167.32,-394.82 152.53,-400.13"/>
<polygon fill="black" stroke="black" points="151.86,-397 143.47,-403.47 154.06,-403.64 151.86,-397"/>
<text text-anchor="middle" x="267.38" y="-299.57" font-family="Times New Roman,serif" font-size="14.00"> &#160;&#160;&#160;&#160;&#160;&#160;&#160;&#160;&#160;11 </text>
</g>
<!-- 2&#45;&gt;5 -->
<g id="edge5" class="edge">
<title>2&#45;&gt;5</title>
<path fill="none" stroke="black" d="M296.98,-340.75C299.04,-326.34 301.08,-305.29 299,-287 296.19,-262.29 279.82,-196.02 270.15,-158.12"/>
<polygon fill="black" stroke="black" points="273.37,-157.6 267.5,-148.79 266.59,-159.34 273.37,-157.6"/>
<text text-anchor="middle" x="320.88" y="-255.7" font-family="Times New Roman,serif" font-size="14.00"> &#160;&#160;&#160;&#160;&#160;&#160;&#160;&#160;&#160;&#160;2 </text>
</g>
<!-- 3&#45;&gt;4 -->
<g id="edge7" class="edge">
<title>3&#45;&gt;4</title>
<path fill="none" stroke="black" d="M174.71,-321.16C181.79,-326.81 189.28,-333.66 195,-341 222.28,-376 214.5,-393.51 238.25,-431 248.07,-446.5 260.86,-462.51 271.72,-475.17"/>
<polygon fill="black" stroke="black" points="269.65,-477.12 278.86,-482.35 274.92,-472.52 269.65,-477.12"/>
<text text-anchor="middle" x="263.88" y="-407.57" font-family="Times New Roman,serif" font-size="14.00"> &#160;&#160;&#160;&#160;&#160;&#160;&#160;&#160;&#160;&#160;3 </text>
</g>
<!-- 3&#45;&gt;1 -->
<g id="edge6" class="edge">
<title>3&#45;&gt;1</title>
<path fill="none" stroke="black" d="M158.28,-286.78C162.64,-275.5 169.97,-261.39 181.25,-253.25 204.29,-236.63 281.4,-226.43 328.4,-221.6"/>
<polygon fill="black" stroke="black" points="328.48,-225.01 338.09,-220.55 327.79,-218.05 328.48,-225.01"/>
<text text-anchor="middle" x="209.38" y="-255.7" font-family="Times New Roman,serif" font-size="14.00"> &#160;&#160;&#160;&#160;&#160;&#160;&#160;&#160;&#160;12 </text>
</g>
<!-- 7&#45;&gt;6 -->
<g id="edge18" class="edge">
<title>7&#45;&gt;6</title>
<path fill="none" stroke="black" d="M220.16,-47.73C145.64,-57.61 0,-82.76 0,-128.5 0,-306 0,-306 0,-306 0,-345.2 36.69,-375.23 66.48,-393.15"/>
<polygon fill="black" stroke="black" points="64.44,-396.59 74.86,-398.54 67.93,-390.52 64.44,-396.59"/>
<text text-anchor="middle" x="25.88" y="-211.82" font-family="Times New Roman,serif" font-size="14.00"> &#160;&#160;&#160;&#160;&#160;&#160;&#160;&#160;&#160;&#160;8 </text>
</g>
<!-- 7&#45;&gt;1 -->
<g id="edge17" class="edge">
<title>7&#45;&gt;1</title>
<path fill="none" stroke="black" d="M292.77,-55.74C330.19,-73.98 392.39,-111.15 416,-165.5 418.79,-171.92 419.23,-175.04 416,-181.25 411.78,-189.36 404.73,-195.97 397.23,-201.18"/>
<polygon fill="black" stroke="black" points="396.04,-198.43 389.37,-206.66 399.72,-204.38 396.04,-198.43"/>
<text text-anchor="middle" x="429.88" y="-124.08" font-family="Times New Roman,serif" font-size="14.00"> &#160;&#160;&#160;&#160;&#160;&#160;&#160;&#160;&#160;&#160;4 </text>
</g>
</g>
</svg>
