<?xml version="1.0" encoding="UTF-8" standalone="no"?>
<!DOCTYPE svg PUBLIC "-//W3C//DTD SVG 1.1//EN"
 "http://www.w3.org/Graphics/SVG/1.1/DTD/svg11.dtd">
<!-- Generated by graphviz version 8.1.0 (20230707.0739)
 -->
<!-- Title: G Pages: 1 -->
<svg width="717pt" height="594pt"
 viewBox="0.00 0.00 717.08 594.25" xmlns="http://www.w3.org/2000/svg" xmlns:xlink="http://www.w3.org/1999/xlink">
<g id="graph0" class="graph" transform="scale(1 1) rotate(0) translate(4 590.25)">
<title>G</title>
<polygon fill="white" stroke="none" points="-4,4 -4,-590.25 713.08,-590.25 713.08,4 -4,4"/>
<text text-anchor="middle" x="354.54" y="-6.45" font-family="Times New Roman,serif" font-size="14.00">Distancia minima</text>
<!-- 1 -->
<g id="node1" class="node">
<title>1</title>
<ellipse fill="none" stroke="black" cx="233" cy="-568.25" rx="45.08" ry="18"/>
<text text-anchor="middle" x="233" y="-562.83" font-family="Times New Roman,serif" font-size="14.00"> &#160;&#160;&#160;&#160;&#160;&#160;&#160;&#160;&#160;&#160;1 </text>
</g>
<!-- 5 -->
<g id="node2" class="node">
<title>5</title>
<ellipse fill="lightblue" stroke="lightblue" cx="332" cy="-480.5" rx="45.08" ry="18"/>
<text text-anchor="middle" x="332" y="-475.07" font-family="Times New Roman,serif" font-size="14.00"> &#160;&#160;&#160;&#160;&#160;&#160;&#160;&#160;&#160;&#160;5 </text>
</g>
<!-- 1&#45;&gt;5 -->
<g id="edge2" class="edge">
<title>1&#45;&gt;5</title>
<path fill="none" stroke="black" d="M268.19,-556.66C281.93,-551.13 297,-543.2 308,-532.25 314.51,-525.77 319.48,-517.19 323.16,-508.93"/>
<polygon fill="black" stroke="black" points="326.73,-510.4 327.15,-499.82 320.22,-507.83 326.73,-510.4"/>
<text text-anchor="middle" x="344.88" y="-518.95" font-family="Times New Roman,serif" font-size="14.00"> &#160;&#160;&#160;&#160;&#160;&#160;&#160;&#160;&#160;&#160;3 </text>
</g>
<!-- 4 -->
<g id="node3" class="node">
<title>4</title>
<ellipse fill="none" stroke="black" cx="183" cy="-129.5" rx="45.08" ry="18"/>
<text text-anchor="middle" x="183" y="-124.08" font-family="Times New Roman,serif" font-size="14.00"> &#160;&#160;&#160;&#160;&#160;&#160;&#160;&#160;&#160;&#160;4 </text>
</g>
<!-- 1&#45;&gt;4 -->
<g id="edge1" class="edge">
<title>1&#45;&gt;4</title>
<path fill="none" stroke="black" d="M188.7,-564.23C152.8,-560.41 101.66,-551.76 61,-532.25 29.2,-516.99 0,-516.77 0,-481.5 0,-481.5 0,-481.5 0,-216.25 0,-159.3 73.57,-140.09 127.42,-133.67"/>
<polygon fill="black" stroke="black" points="127.66,-137.05 137.23,-132.51 126.92,-130.09 127.66,-137.05"/>
<text text-anchor="middle" x="25.88" y="-343.45" font-family="Times New Roman,serif" font-size="14.00"> &#160;&#160;&#160;&#160;&#160;&#160;&#160;&#160;&#160;&#160;7 </text>
</g>
<!-- 1&#45;&gt;4 -->
<g id="edge3" class="edge">
<title>1&#45;&gt;4</title>
<path fill="none" stroke="black" d="M189.83,-562.41C143.04,-554.48 75,-533.93 75,-481.5 75,-481.5 75,-481.5 75,-216.25 75,-181.94 108.84,-159.17 138.64,-145.78"/>
<polygon fill="black" stroke="black" points="139.69,-148.71 147.53,-141.59 136.96,-142.26 139.69,-148.71"/>
<text text-anchor="middle" x="100.88" y="-343.45" font-family="Times New Roman,serif" font-size="14.00"> &#160;&#160;&#160;&#160;&#160;&#160;&#160;&#160;&#160;&#160;7 </text>
</g>
<!-- 6 -->
<g id="node4" class="node">
<title>6</title>
<ellipse fill="none" stroke="black" cx="332" cy="-305" rx="45.08" ry="18"/>
<text text-anchor="middle" x="332" y="-299.57" font-family="Times New Roman,serif" font-size="14.00"> &#160;&#160;&#160;&#160;&#160;&#160;&#160;&#160;&#160;&#160;6 </text>
</g>
<!-- 1&#45;&gt;6 -->
<g id="edge4" class="edge">
<title>1&#45;&gt;6</title>
<path fill="none" stroke="black" d="M230.28,-549.99C224.83,-508.9 217.01,-404.02 267,-341 272.96,-333.49 280.99,-327.37 289.37,-322.49"/>
<polygon fill="black" stroke="black" points="290.67,-325.23 297.89,-317.48 287.41,-319.04 290.67,-325.23"/>
<text text-anchor="middle" x="258.38" y="-431.2" font-family="Times New Roman,serif" font-size="14.00"> &#160;&#160;&#160;&#160;&#160;&#160;&#160;&#160;&#160;11 </text>
</g>
<!-- 5&#45;&gt;1 -->
<g id="edge12" class="edge">
<title>5&#45;&gt;1</title>
<path fill="none" stroke="black" d="M293.67,-490.16C278.04,-495.44 260.93,-503.72 249.25,-516.5 243.5,-522.79 239.79,-531.13 237.38,-539.22"/>
<polygon fill="black" stroke="black" points="233.76,-538.36 234.86,-548.89 240.57,-539.97 233.76,-538.36"/>
<text text-anchor="middle" x="277.38" y="-518.95" font-family="Times New Roman,serif" font-size="14.00"> &#160;&#160;&#160;&#160;&#160;&#160;&#160;&#160;&#160;10 </text>
</g>
<!-- 5&#45;&gt;6 -->
<g id="edge14" class="edge">
<title>5&#45;&gt;6</title>
<path fill="none" stroke="black" d="M332,-462.23C332,-432.3 332,-370.52 332,-334.26"/>
<polygon fill="black" stroke="black" points="335.5,-334.46 332,-324.46 328.5,-334.46 335.5,-334.46"/>
<text text-anchor="middle" x="357.88" y="-387.32" font-family="Times New Roman,serif" font-size="14.00"> &#160;&#160;&#160;&#160;&#160;&#160;&#160;&#160;&#160;&#160;4 </text>
</g>
<!-- 3 -->
<g id="node6" class="node">
<title>3</title>
<ellipse fill="lightblue" stroke="lightblue" cx="301" cy="-217.25" rx="45.08" ry="18"/>
<text text-anchor="middle" x="301" y="-211.82" font-family="Times New Roman,serif" font-size="14.00"> &#160;&#160;&#160;&#160;&#160;&#160;&#160;&#160;&#160;&#160;3 </text>
</g>
<!-- 5&#45;&gt;3 -->
<g id="edge11" class="edge">
<title>5&#45;&gt;3</title>
<path fill="none" stroke="black" d="M321.07,-462.91C306.77,-440.11 282.45,-397.3 273.25,-356.75 264.49,-318.16 277.8,-273.18 288.84,-245.21"/>
<polygon fill="black" stroke="black" points="292.32,-246.95 292.91,-236.37 285.85,-244.27 292.32,-246.95"/>
<text text-anchor="middle" x="301.38" y="-343.45" font-family="Times New Roman,serif" font-size="14.00"> &#160;&#160;&#160;&#160;&#160;&#160;&#160;&#160;&#160;14 </text>
</g>
<!-- 7 -->
<g id="node8" class="node">
<title>7</title>
<ellipse fill="none" stroke="black" cx="504" cy="-392.75" rx="45.08" ry="18"/>
<text text-anchor="middle" x="504" y="-387.32" font-family="Times New Roman,serif" font-size="14.00"> &#160;&#160;&#160;&#160;&#160;&#160;&#160;&#160;&#160;&#160;7 </text>
</g>
<!-- 5&#45;&gt;7 -->
<g id="edge13" class="edge">
<title>5&#45;&gt;7</title>
<path fill="none" stroke="black" d="M367.16,-468.82C385.45,-462.7 407.92,-454.29 427,-444.5 438.1,-438.8 439.85,-435.66 450.25,-428.75 457.29,-424.07 464.89,-419.09 472.09,-414.39"/>
<polygon fill="black" stroke="black" points="473.45,-417.03 479.92,-408.65 469.63,-411.17 473.45,-417.03"/>
<text text-anchor="middle" x="477.38" y="-431.2" font-family="Times New Roman,serif" font-size="14.00"> &#160;&#160;&#160;&#160;&#160;&#160;&#160;&#160;&#160;13 </text>
</g>
<!-- 4&#45;&gt;1 -->
<g id="edge10" class="edge">
<title>4&#45;&gt;1</title>
<path fill="none" stroke="black" d="M177.64,-147.78C176.15,-153.38 174.74,-159.65 174,-165.5 170.11,-196.27 172.95,-204.39 176,-235.25 189.17,-368.31 196.65,-401.36 224,-532.25 224.49,-534.6 225.03,-537.02 225.61,-539.45"/>
<polygon fill="black" stroke="black" points="222.39,-540.02 228.2,-548.88 229.18,-538.33 222.39,-540.02"/>
<text text-anchor="middle" x="216.88" y="-343.45" font-family="Times New Roman,serif" font-size="14.00"> &#160;&#160;&#160;&#160;&#160;&#160;&#160;&#160;&#160;&#160;7 </text>
</g>
<!-- 4&#45;&gt;6 -->
<g id="edge9" class="edge">
<title>4&#45;&gt;6</title>
<path fill="none" stroke="black" d="M179.71,-147.79C176.47,-170.07 174.29,-209.05 192.25,-235.25 213.06,-265.61 251.24,-283.12 282.45,-292.86"/>
<polygon fill="black" stroke="black" points="281.15,-296.42 291.73,-295.88 283.12,-289.7 281.15,-296.42"/>
<text text-anchor="middle" x="220.38" y="-211.82" font-family="Times New Roman,serif" font-size="14.00"> &#160;&#160;&#160;&#160;&#160;&#160;&#160;&#160;&#160;12 </text>
</g>
<!-- 2 -->
<g id="node5" class="node">
<title>2</title>
<ellipse fill="lightblue" stroke="lightblue" cx="387" cy="-41.75" rx="45.08" ry="18"/>
<text text-anchor="middle" x="387" y="-36.33" font-family="Times New Roman,serif" font-size="14.00"> &#160;&#160;&#160;&#160;&#160;&#160;&#160;&#160;&#160;&#160;2 </text>
</g>
<!-- 4&#45;&gt;2 -->
<g id="edge8" class="edge">
<title>4&#45;&gt;2</title>
<path fill="none" stroke="black" d="M213.1,-115.85C248.51,-100.96 307.43,-76.2 346.74,-59.67"/>
<polygon fill="black" stroke="black" points="347.91,-62.56 355.78,-55.45 345.2,-56.1 347.91,-62.56"/>
<text text-anchor="middle" x="329.88" y="-80.2" font-family="Times New Roman,serif" font-size="14.00"> &#160;&#160;&#160;&#160;&#160;&#160;&#160;&#160;&#160;&#160;5 </text>
</g>
<!-- 6&#45;&gt;4 -->
<g id="edge15" class="edge">
<title>6&#45;&gt;4</title>
<path fill="none" stroke="black" d="M353.17,-288.76C359.11,-283.27 364.81,-276.55 368,-269 376.95,-247.81 382.67,-183.21 368,-165.5 351.8,-145.94 287.1,-137.23 238.75,-133.41"/>
<polygon fill="black" stroke="black" points="239.01,-129.84 228.78,-132.6 238.5,-136.82 239.01,-129.84"/>
<text text-anchor="middle" x="402.88" y="-211.82" font-family="Times New Roman,serif" font-size="14.00"> &#160;&#160;&#160;&#160;&#160;&#160;&#160;&#160;&#160;&#160;2 </text>
</g>
<!-- 6&#45;&gt;3 -->
<g id="edge16" class="edge">
<title>6&#45;&gt;3</title>
<path fill="none" stroke="black" d="M321.95,-287.32C318.83,-281.65 315.61,-275.18 313.25,-269 310.47,-261.72 308.18,-253.6 306.36,-246.03"/>
<polygon fill="black" stroke="black" points="309.6,-245.5 304.02,-236.49 302.77,-247.02 309.6,-245.5"/>
<text text-anchor="middle" x="341.38" y="-255.7" font-family="Times New Roman,serif" font-size="14.00"> &#160;&#160;&#160;&#160;&#160;&#160;&#160;&#160;&#160;18 </text>
</g>
<!-- 9 -->
<g id="node7" class="node">
<title>9</title>
<ellipse fill="none" stroke="black" cx="470" cy="-129.5" rx="27" ry="18"/>
<text text-anchor="middle" x="470" y="-124.08" font-family="Times New Roman,serif" font-size="14.00">9</text>
</g>
<!-- 6&#45;&gt;9 -->
<g id="edge17" class="edge">
<title>6&#45;&gt;9</title>
<path fill="none" stroke="black" d="M363.45,-291.74C387.65,-280.65 419.92,-261.95 438,-235.25 453.71,-212.05 461.93,-180.87 466.09,-158.57"/>
<polygon fill="black" stroke="black" points="469.69,-159.25 467.91,-148.8 462.79,-158.08 469.69,-159.25"/>
<text text-anchor="middle" x="482.38" y="-211.82" font-family="Times New Roman,serif" font-size="14.00"> &#160;&#160;&#160;&#160;&#160;&#160;&#160;&#160;&#160;14 </text>
</g>
<!-- 2&#45;&gt;5 -->
<g id="edge5" class="edge">
<title>2&#45;&gt;5</title>
<path fill="none" stroke="black" d="M432.27,-42.74C492.37,-45.37 591,-60.12 591,-128.5 591,-393.75 591,-393.75 591,-393.75 591,-436.64 461.39,-461.76 385.55,-472.79"/>
<polygon fill="black" stroke="black" points="385.18,-469.45 375.77,-474.31 386.16,-476.38 385.18,-469.45"/>
<text text-anchor="middle" x="616.88" y="-255.7" font-family="Times New Roman,serif" font-size="14.00"> &#160;&#160;&#160;&#160;&#160;&#160;&#160;&#160;&#160;&#160;2 </text>
</g>
<!-- 3&#45;&gt;4 -->
<g id="edge7" class="edge">
<title>3&#45;&gt;4</title>
<path fill="none" stroke="black" d="M271.14,-203.33C258.89,-197.41 244.88,-189.79 233.25,-181.25 222.85,-173.61 212.59,-163.78 204.09,-154.82"/>
<polygon fill="black" stroke="black" points="207.16,-152.91 197.81,-147.92 202.01,-157.65 207.16,-152.91"/>
<text text-anchor="middle" x="259.88" y="-167.95" font-family="Times New Roman,serif" font-size="14.00"> &#160;&#160;&#160;&#160;&#160;&#160;&#160;&#160;&#160;&#160;3 </text>
</g>
<!-- 3&#45;&gt;9 -->
<g id="edge6" class="edge">
<title>3&#45;&gt;9</title>
<path fill="none" stroke="black" d="M328.15,-202.47C358.46,-187.09 407.41,-162.26 439.15,-146.16"/>
<polygon fill="black" stroke="black" points="440.47,-148.9 447.8,-141.26 437.3,-142.66 440.47,-148.9"/>
<text text-anchor="middle" x="427.38" y="-167.95" font-family="Times New Roman,serif" font-size="14.00"> &#160;&#160;&#160;&#160;&#160;&#160;&#160;&#160;&#160;12 </text>
</g>
<!-- 9&#45;&gt;5 -->
<g id="edge22" class="edge">
<title>9&#45;&gt;5</title>
<path fill="none" stroke="black" d="M483.55,-145.19C500.35,-165.25 525.43,-202.47 514,-235.25 494.23,-291.92 464.22,-291.69 430,-341 409.37,-370.73 408.81,-381.15 388,-410.75 377.35,-425.89 364.35,-441.98 353.56,-454.78"/>
<polygon fill="black" stroke="black" points="350.32,-452.19 346.49,-462.07 355.65,-456.73 350.32,-452.19"/>
<text text-anchor="middle" x="508.38" y="-299.57" font-family="Times New Roman,serif" font-size="14.00"> &#160;&#160;&#160;&#160;&#160;&#160;&#160;&#160;&#160;24 </text>
</g>
<!-- 7&#45;&gt;1 -->
<g id="edge18" class="edge">
<title>7&#45;&gt;1</title>
<path fill="none" stroke="black" d="M508.32,-410.71C510.02,-421.06 510.46,-434.23 505,-444.5 472.28,-506.05 438.72,-503.97 375,-532.25 346.52,-544.89 312.72,-553.45 285.24,-558.95"/>
<polygon fill="black" stroke="black" points="284.82,-555.65 275.66,-560.97 286.14,-562.53 284.82,-555.65"/>
<text text-anchor="middle" x="519.88" y="-475.07" font-family="Times New Roman,serif" font-size="14.00"> &#160;&#160;&#160;&#160;&#160;&#160;&#160;&#160;&#160;&#160;4 </text>
</g>
<!-- 7&#45;&gt;6 -->
<g id="edge19" class="edge">
<title>7&#45;&gt;6</title>
<path fill="none" stroke="black" d="M476.75,-378.16C447.64,-363.65 401.35,-340.58 368.98,-324.43"/>
<polygon fill="black" stroke="black" points="370.92,-320.99 360.41,-319.67 367.8,-327.26 370.92,-320.99"/>
<text text-anchor="middle" x="458.88" y="-343.45" font-family="Times New Roman,serif" font-size="14.00"> &#160;&#160;&#160;&#160;&#160;&#160;&#160;&#160;&#160;&#160;8 </text>
</g>
<!-- 8 -->
<g id="node9" class="node">
<title>8</title>
<ellipse fill="none" stroke="black" cx="664" cy="-305" rx="45.08" ry="18"/>
<text text-anchor="middle" x="664" y="-299.57" font-family="Times New Roman,serif" font-size="14.00"> &#160;&#160;&#160;&#160;&#160;&#160;&#160;&#160;&#160;&#160;8 </text>
</g>
<!-- 7&#45;&gt;8 -->
<g id="edge20" class="edge">
<title>7&#45;&gt;8</title>
<path fill="none" stroke="black" d="M524.69,-376.41C539.66,-365.7 560.62,-351.51 580.25,-341 593.31,-334.01 608.08,-327.43 621.54,-321.9"/>
<polygon fill="black" stroke="black" points="622.54,-324.87 630.52,-317.9 619.93,-318.37 622.54,-324.87"/>
<text text-anchor="middle" x="605.88" y="-343.45" font-family="Times New Roman,serif" font-size="14.00"> &#160;&#160;&#160;&#160;&#160;&#160;&#160;&#160;&#160;&#160;3 </text>
</g>
<!-- 8&#45;&gt;1 -->
<g id="edge21" class="edge">
<title>8&#45;&gt;1</title>
<path fill="none" stroke="black" d="M660.01,-323.31C649.78,-363.1 618.47,-460.6 550,-498.5 466.46,-544.75 354.52,-559.89 288.44,-564.85"/>
<polygon fill="black" stroke="black" points="288.58,-561.4 278.85,-565.58 289.07,-568.38 288.58,-561.4"/>
<text text-anchor="middle" x="641.88" y="-431.2" font-family="Times New Roman,serif" font-size="14.00"> &#160;&#160;&#160;&#160;&#160;&#160;&#160;&#160;&#160;&#160;8 </text>
</g>
</g>
</svg>
