<?xml version="1.0" encoding="UTF-8" standalone="no"?>
<!DOCTYPE svg PUBLIC "-//W3C//DTD SVG 1.1//EN"
 "http://www.w3.org/Graphics/SVG/1.1/DTD/svg11.dtd">
<!-- Generated by graphviz version 8.1.0 (20230707.0739)
 -->
<!-- Title: G Pages: 1 -->
<svg width="705pt" height="615pt"
 viewBox="0.00 0.00 704.83 614.50" xmlns="http://www.w3.org/2000/svg" xmlns:xlink="http://www.w3.org/1999/xlink">
<g id="graph0" class="graph" transform="scale(1 1) rotate(0) translate(4 610.5)">
<title>G</title>
<polygon fill="white" stroke="none" points="-4,4 -4,-610.5 700.83,-610.5 700.83,4 -4,4"/>
<text text-anchor="middle" x="348.41" y="-6.45" font-family="Times New Roman,serif" font-size="14.00">Distancia minima</text>
<!-- 4 -->
<g id="node1" class="node">
<title>4</title>
<ellipse fill="lightblue" stroke="lightblue" cx="359.08" cy="-588.5" rx="45.08" ry="18"/>
<text text-anchor="middle" x="359.08" y="-583.08" font-family="Times New Roman,serif" font-size="14.00"> &#160;&#160;&#160;&#160;&#160;&#160;&#160;&#160;&#160;&#160;4 </text>
</g>
<!-- 1 -->
<g id="node3" class="node">
<title>1</title>
<ellipse fill="none" stroke="black" cx="173.08" cy="-500.75" rx="45.08" ry="18"/>
<text text-anchor="middle" x="173.08" y="-495.32" font-family="Times New Roman,serif" font-size="14.00"> &#160;&#160;&#160;&#160;&#160;&#160;&#160;&#160;&#160;&#160;1 </text>
</g>
<!-- 4&#45;&gt;1 -->
<g id="edge10" class="edge">
<title>4&#45;&gt;1</title>
<path fill="none" stroke="black" d="M314.05,-585.99C281.56,-582.92 238.04,-574.57 206.33,-552.5 197.56,-546.4 190.53,-537.18 185.23,-528.26"/>
<polygon fill="black" stroke="black" points="187.98,-527 180.15,-519.86 181.82,-530.33 187.98,-527"/>
<text text-anchor="middle" x="231.95" y="-539.2" font-family="Times New Roman,serif" font-size="14.00"> &#160;&#160;&#160;&#160;&#160;&#160;&#160;&#160;&#160;&#160;7 </text>
</g>
<!-- 6 -->
<g id="node4" class="node">
<title>6</title>
<ellipse fill="none" stroke="black" cx="426.08" cy="-392.75" rx="45.08" ry="18"/>
<text text-anchor="middle" x="426.08" y="-387.32" font-family="Times New Roman,serif" font-size="14.00"> &#160;&#160;&#160;&#160;&#160;&#160;&#160;&#160;&#160;&#160;6 </text>
</g>
<!-- 4&#45;&gt;6 -->
<g id="edge9" class="edge">
<title>4&#45;&gt;6</title>
<path fill="none" stroke="black" d="M381.93,-572.75C388.8,-567.21 395.66,-560.33 400.08,-552.5 423.26,-511.37 427.16,-455.33 427.14,-422.01"/>
<polygon fill="black" stroke="black" points="430.63,-422.18 426.99,-412.23 423.63,-422.28 430.63,-422.18"/>
<text text-anchor="middle" x="449.45" y="-495.32" font-family="Times New Roman,serif" font-size="14.00"> &#160;&#160;&#160;&#160;&#160;&#160;&#160;&#160;&#160;12 </text>
</g>
<!-- 2 -->
<g id="node5" class="node">
<title>2</title>
<ellipse fill="lightblue" stroke="lightblue" cx="288.08" cy="-446.75" rx="45.08" ry="18"/>
<text text-anchor="middle" x="288.08" y="-441.32" font-family="Times New Roman,serif" font-size="14.00"> &#160;&#160;&#160;&#160;&#160;&#160;&#160;&#160;&#160;&#160;2 </text>
</g>
<!-- 4&#45;&gt;2 -->
<g id="edge8" class="edge">
<title>4&#45;&gt;2</title>
<path fill="none" stroke="black" d="M352.14,-570.4C347.99,-560.47 342.49,-547.79 337.08,-536.75 326.46,-515.11 313.21,-491.2 303.16,-473.62"/>
<polygon fill="black" stroke="black" points="305.97,-472.48 297.95,-465.56 299.9,-475.97 305.97,-472.48"/>
<text text-anchor="middle" x="369.95" y="-539.2" font-family="Times New Roman,serif" font-size="14.00"> &#160;&#160;&#160;&#160;&#160;&#160;&#160;&#160;&#160;&#160;5 </text>
</g>
<!-- 5 -->
<g id="node2" class="node">
<title>5</title>
<ellipse fill="lightblue" stroke="lightblue" cx="289.08" cy="-217.25" rx="45.08" ry="18"/>
<text text-anchor="middle" x="289.08" y="-211.82" font-family="Times New Roman,serif" font-size="14.00"> &#160;&#160;&#160;&#160;&#160;&#160;&#160;&#160;&#160;&#160;5 </text>
</g>
<!-- 5&#45;&gt;1 -->
<g id="edge12" class="edge">
<title>5&#45;&gt;1</title>
<path fill="none" stroke="black" d="M265.73,-233.1C236.31,-253.36 187.21,-292.71 167.33,-341 149.57,-384.11 157.78,-439.52 165.39,-472.18"/>
<polygon fill="black" stroke="black" points="162.21,-472.87 168.02,-481.72 169,-471.17 162.21,-472.87"/>
<text text-anchor="middle" x="195.45" y="-343.45" font-family="Times New Roman,serif" font-size="14.00"> &#160;&#160;&#160;&#160;&#160;&#160;&#160;&#160;&#160;10 </text>
</g>
<!-- 5&#45;&gt;6 -->
<g id="edge14" class="edge">
<title>5&#45;&gt;6</title>
<path fill="none" stroke="black" d="M299.15,-235.23C312.06,-256.51 335.62,-293.73 359.33,-323 372.24,-338.95 388.22,-355.5 401.3,-368.36"/>
<polygon fill="black" stroke="black" points="398.4,-370.4 408.02,-374.85 403.28,-365.38 398.4,-370.4"/>
<text text-anchor="middle" x="384.95" y="-299.57" font-family="Times New Roman,serif" font-size="14.00"> &#160;&#160;&#160;&#160;&#160;&#160;&#160;&#160;&#160;&#160;4 </text>
</g>
<!-- 3 -->
<g id="node6" class="node">
<title>3</title>
<ellipse fill="lightblue" stroke="lightblue" cx="542.08" cy="-129.5" rx="45.08" ry="18"/>
<text text-anchor="middle" x="542.08" y="-124.08" font-family="Times New Roman,serif" font-size="14.00"> &#160;&#160;&#160;&#160;&#160;&#160;&#160;&#160;&#160;&#160;3 </text>
</g>
<!-- 5&#45;&gt;3 -->
<g id="edge11" class="edge">
<title>5&#45;&gt;3</title>
<path fill="none" stroke="black" d="M322.67,-204.86C367.85,-189.55 448.26,-162.3 498.17,-145.38"/>
<polygon fill="black" stroke="black" points="498.99,-148.46 507.34,-141.93 496.75,-141.83 498.99,-148.46"/>
<text text-anchor="middle" x="465.45" y="-167.95" font-family="Times New Roman,serif" font-size="14.00"> &#160;&#160;&#160;&#160;&#160;&#160;&#160;&#160;&#160;14 </text>
</g>
<!-- 7 -->
<g id="node8" class="node">
<title>7</title>
<ellipse fill="lightblue" stroke="lightblue" cx="172.08" cy="-129.5" rx="45.08" ry="18"/>
<text text-anchor="middle" x="172.08" y="-124.08" font-family="Times New Roman,serif" font-size="14.00"> &#160;&#160;&#160;&#160;&#160;&#160;&#160;&#160;&#160;&#160;7 </text>
</g>
<!-- 5&#45;&gt;7 -->
<g id="edge13" class="edge">
<title>5&#45;&gt;7</title>
<path fill="none" stroke="black" d="M268.16,-200.92C249.61,-187.32 222.31,-167.32 201.55,-152.1"/>
<polygon fill="black" stroke="black" points="203.95,-148.79 193.81,-145.7 199.81,-154.43 203.95,-148.79"/>
<text text-anchor="middle" x="267.45" y="-167.95" font-family="Times New Roman,serif" font-size="14.00"> &#160;&#160;&#160;&#160;&#160;&#160;&#160;&#160;&#160;13 </text>
</g>
<!-- 1&#45;&gt;4 -->
<g id="edge1" class="edge">
<title>1&#45;&gt;4</title>
<path fill="none" stroke="black" d="M206.82,-513.02C223.79,-519.19 244.45,-527.46 262.08,-536.75 273.12,-542.57 274.49,-546.31 285.33,-552.5 296.27,-558.76 308.51,-564.89 319.83,-570.23"/>
<polygon fill="black" stroke="black" points="317.94,-573.67 328.48,-574.7 320.88,-567.32 317.94,-573.67"/>
<text text-anchor="middle" x="310.95" y="-539.2" font-family="Times New Roman,serif" font-size="14.00"> &#160;&#160;&#160;&#160;&#160;&#160;&#160;&#160;&#160;&#160;7 </text>
</g>
<!-- 1&#45;&gt;4 -->
<g id="edge3" class="edge">
<title>1&#45;&gt;4</title>
<path fill="none" stroke="black" d="M150.41,-516.59C137.38,-526.94 125.4,-540.9 135.33,-552.5 156.5,-577.25 243.99,-584.62 303.09,-586.75"/>
<polygon fill="black" stroke="black" points="302.67,-590.27 312.77,-587.08 302.89,-583.27 302.67,-590.27"/>
<text text-anchor="middle" x="161.95" y="-539.2" font-family="Times New Roman,serif" font-size="14.00"> &#160;&#160;&#160;&#160;&#160;&#160;&#160;&#160;&#160;&#160;7 </text>
</g>
<!-- 1&#45;&gt;5 -->
<g id="edge2" class="edge">
<title>1&#45;&gt;5</title>
<path fill="none" stroke="black" d="M179.05,-482.43C189.3,-453.08 211.15,-391.77 232.33,-341 246.32,-307.44 264.15,-269.56 276.06,-244.87"/>
<polygon fill="black" stroke="black" points="279.56,-246.67 280.77,-236.15 273.26,-243.62 279.56,-246.67"/>
<text text-anchor="middle" x="257.95" y="-343.45" font-family="Times New Roman,serif" font-size="14.00"> &#160;&#160;&#160;&#160;&#160;&#160;&#160;&#160;&#160;&#160;3 </text>
</g>
<!-- 1&#45;&gt;6 -->
<g id="edge4" class="edge">
<title>1&#45;&gt;6</title>
<path fill="none" stroke="black" d="M218.4,-499.03C252.86,-496.46 299.98,-488.36 334.08,-464.75 349.73,-453.91 343.19,-441.51 357.33,-428.75 365.22,-421.62 374.84,-415.55 384.34,-410.56"/>
<polygon fill="black" stroke="black" points="385.69,-413.31 393.13,-405.76 382.61,-407.02 385.69,-413.31"/>
<text text-anchor="middle" x="384.45" y="-441.32" font-family="Times New Roman,serif" font-size="14.00"> &#160;&#160;&#160;&#160;&#160;&#160;&#160;&#160;&#160;11 </text>
</g>
<!-- 6&#45;&gt;4 -->
<g id="edge15" class="edge">
<title>6&#45;&gt;4</title>
<path fill="none" stroke="black" d="M442.66,-409.71C465.86,-434.03 502.85,-481.49 481.08,-518.75 464.92,-546.39 433.11,-563.79 406.02,-574.16"/>
<polygon fill="black" stroke="black" points="405.13,-571.12 396.91,-577.8 407.51,-577.71 405.13,-571.12"/>
<text text-anchor="middle" x="512.95" y="-495.32" font-family="Times New Roman,serif" font-size="14.00"> &#160;&#160;&#160;&#160;&#160;&#160;&#160;&#160;&#160;&#160;2 </text>
</g>
<!-- 6&#45;&gt;3 -->
<g id="edge16" class="edge">
<title>6&#45;&gt;3</title>
<path fill="none" stroke="black" d="M466.06,-383.97C483.36,-378.8 502.67,-370.37 516.08,-356.75 567.14,-304.86 570.86,-271.39 561.08,-199.25 559.2,-185.39 555.28,-170.38 551.49,-157.94"/>
<polygon fill="black" stroke="black" points="554.61,-157.21 548.24,-148.75 547.94,-159.34 554.61,-157.21"/>
<text text-anchor="middle" x="592.45" y="-255.7" font-family="Times New Roman,serif" font-size="14.00"> &#160;&#160;&#160;&#160;&#160;&#160;&#160;&#160;&#160;18 </text>
</g>
<!-- 9 -->
<g id="node7" class="node">
<title>9</title>
<ellipse fill="none" stroke="black" cx="480.08" cy="-305" rx="27" ry="18"/>
<text text-anchor="middle" x="480.08" y="-299.57" font-family="Times New Roman,serif" font-size="14.00">9</text>
</g>
<!-- 6&#45;&gt;9 -->
<g id="edge17" class="edge">
<title>6&#45;&gt;9</title>
<path fill="none" stroke="black" d="M436.74,-374.81C444.59,-362.36 455.37,-345.23 464.22,-331.18"/>
<polygon fill="black" stroke="black" points="467.61,-333.36 469.98,-323.04 461.69,-329.63 467.61,-333.36"/>
<text text-anchor="middle" x="484.45" y="-343.45" font-family="Times New Roman,serif" font-size="14.00"> &#160;&#160;&#160;&#160;&#160;&#160;&#160;&#160;&#160;14 </text>
</g>
<!-- 2&#45;&gt;5 -->
<g id="edge5" class="edge">
<title>2&#45;&gt;5</title>
<path fill="none" stroke="black" d="M288.15,-428.28C288.33,-389.06 288.74,-293.76 288.95,-246.2"/>
<polygon fill="black" stroke="black" points="292.46,-246.49 289,-236.47 285.46,-246.46 292.46,-246.49"/>
<text text-anchor="middle" x="313.95" y="-343.45" font-family="Times New Roman,serif" font-size="14.00"> &#160;&#160;&#160;&#160;&#160;&#160;&#160;&#160;&#160;&#160;2 </text>
</g>
<!-- 3&#45;&gt;4 -->
<g id="edge7" class="edge">
<title>3&#45;&gt;4</title>
<path fill="none" stroke="black" d="M575.23,-142.17C605.34,-155.14 645.08,-179.25 645.08,-216.25 645.08,-501.75 645.08,-501.75 645.08,-501.75 645.08,-549.56 496.58,-572.99 413.59,-582.35"/>
<polygon fill="black" stroke="black" points="413.38,-578.97 403.82,-583.53 414.15,-585.92 413.38,-578.97"/>
<text text-anchor="middle" x="670.95" y="-343.45" font-family="Times New Roman,serif" font-size="14.00"> &#160;&#160;&#160;&#160;&#160;&#160;&#160;&#160;&#160;&#160;3 </text>
</g>
<!-- 3&#45;&gt;9 -->
<g id="edge6" class="edge">
<title>3&#45;&gt;9</title>
<path fill="none" stroke="black" d="M531.8,-147.5C523.94,-161.11 513.29,-180.89 506.33,-199.25 496.69,-224.66 489.55,-254.88 485.17,-276.31"/>
<polygon fill="black" stroke="black" points="481.57,-275.45 483.08,-285.94 488.44,-276.8 481.57,-275.45"/>
<text text-anchor="middle" x="533.45" y="-211.82" font-family="Times New Roman,serif" font-size="14.00"> &#160;&#160;&#160;&#160;&#160;&#160;&#160;&#160;&#160;12 </text>
</g>
<!-- 9&#45;&gt;5 -->
<g id="edge22" class="edge">
<title>9&#45;&gt;5</title>
<path fill="none" stroke="black" d="M454.36,-298.6C421.49,-291.45 366.66,-278.64 348.33,-269 340.85,-265.07 326.6,-252.93 313.95,-241.51"/>
<polygon fill="black" stroke="black" points="316.7,-239.36 306.96,-235.2 311.98,-244.53 316.7,-239.36"/>
<text text-anchor="middle" x="375.45" y="-255.7" font-family="Times New Roman,serif" font-size="14.00"> &#160;&#160;&#160;&#160;&#160;&#160;&#160;&#160;&#160;24 </text>
</g>
<!-- 7&#45;&gt;1 -->
<g id="edge18" class="edge">
<title>7&#45;&gt;1</title>
<path fill="none" stroke="black" d="M147.19,-144.76C125.03,-159.52 96.08,-184.82 96.08,-216.25 96.08,-393.75 96.08,-393.75 96.08,-393.75 96.08,-427.84 122.46,-458.34 144.34,-477.77"/>
<polygon fill="black" stroke="black" points="141.56,-480.85 151.44,-484.66 146.09,-475.52 141.56,-480.85"/>
<text text-anchor="middle" x="121.95" y="-299.57" font-family="Times New Roman,serif" font-size="14.00"> &#160;&#160;&#160;&#160;&#160;&#160;&#160;&#160;&#160;&#160;4 </text>
</g>
<!-- 7&#45;&gt;6 -->
<g id="edge19" class="edge">
<title>7&#45;&gt;6</title>
<path fill="none" stroke="black" d="M213,-137.59C238.63,-143.03 271.84,-151.95 299.08,-165.5 353.22,-192.44 372.22,-201.23 403.08,-253.25 423.38,-287.49 427.14,-334.41 427.2,-363.9"/>
<polygon fill="black" stroke="black" points="423.69,-363.6 427.06,-373.65 430.69,-363.7 423.69,-363.6"/>
<text text-anchor="middle" x="435.95" y="-255.7" font-family="Times New Roman,serif" font-size="14.00"> &#160;&#160;&#160;&#160;&#160;&#160;&#160;&#160;&#160;&#160;8 </text>
</g>
<!-- 8 -->
<g id="node9" class="node">
<title>8</title>
<ellipse fill="lightblue" stroke="lightblue" cx="45.08" cy="-41.75" rx="45.08" ry="18"/>
<text text-anchor="middle" x="45.08" y="-36.33" font-family="Times New Roman,serif" font-size="14.00"> &#160;&#160;&#160;&#160;&#160;&#160;&#160;&#160;&#160;&#160;8 </text>
</g>
<!-- 7&#45;&gt;8 -->
<g id="edge20" class="edge">
<title>7&#45;&gt;8</title>
<path fill="none" stroke="black" d="M149.95,-113.56C129.59,-99.81 99.17,-79.28 76.33,-63.86"/>
<polygon fill="black" stroke="black" points="78.62,-60.5 68.37,-57.8 74.7,-66.3 78.62,-60.5"/>
<text text-anchor="middle" x="145.95" y="-80.2" font-family="Times New Roman,serif" font-size="14.00"> &#160;&#160;&#160;&#160;&#160;&#160;&#160;&#160;&#160;&#160;3 </text>
</g>
<!-- 8&#45;&gt;1 -->
<g id="edge21" class="edge">
<title>8&#45;&gt;1</title>
<path fill="none" stroke="black" d="M39.93,-59.98C35.25,-77.17 29.08,-104.42 29.08,-128.5 29.08,-393.75 29.08,-393.75 29.08,-393.75 29.08,-442.69 83.68,-471.55 125.64,-486.5"/>
<polygon fill="black" stroke="black" points="124.4,-490.12 134.99,-490.01 126.64,-483.49 124.4,-490.12"/>
<text text-anchor="middle" x="54.95" y="-255.7" font-family="Times New Roman,serif" font-size="14.00"> &#160;&#160;&#160;&#160;&#160;&#160;&#160;&#160;&#160;&#160;8 </text>
</g>
</g>
</svg>
