<?xml version="1.0" encoding="UTF-8" standalone="no"?>
<!DOCTYPE svg PUBLIC "-//W3C//DTD SVG 1.1//EN"
 "http://www.w3.org/Graphics/SVG/1.1/DTD/svg11.dtd">
<!-- Generated by graphviz version 8.1.0 (20230707.0739)
 -->
<!-- Title: G Pages: 1 -->
<svg width="584pt" height="507pt"
 viewBox="0.00 0.00 583.75 506.50" xmlns="http://www.w3.org/2000/svg" xmlns:xlink="http://www.w3.org/1999/xlink">
<g id="graph0" class="graph" transform="scale(1 1) rotate(0) translate(4 502.5)">
<title>G</title>
<polygon fill="white" stroke="none" points="-4,4 -4,-502.5 579.75,-502.5 579.75,4 -4,4"/>
<text text-anchor="middle" x="287.88" y="-6.45" font-family="Times New Roman,serif" font-size="14.00">Distancia minima</text>
<!-- 4 -->
<g id="node1" class="node">
<title>4</title>
<ellipse fill="lightblue" stroke="lightblue" cx="269" cy="-480.5" rx="45.08" ry="18"/>
<text text-anchor="middle" x="269" y="-475.07" font-family="Times New Roman,serif" font-size="14.00"> &#160;&#160;&#160;&#160;&#160;&#160;&#160;&#160;&#160;&#160;4 </text>
</g>
<!-- 1 -->
<g id="node3" class="node">
<title>1</title>
<ellipse fill="none" stroke="black" cx="269" cy="-392.75" rx="45.08" ry="18"/>
<text text-anchor="middle" x="269" y="-387.32" font-family="Times New Roman,serif" font-size="14.00"> &#160;&#160;&#160;&#160;&#160;&#160;&#160;&#160;&#160;&#160;1 </text>
</g>
<!-- 4&#45;&gt;1 -->
<g id="edge10" class="edge">
<title>4&#45;&gt;1</title>
<path fill="none" stroke="black" d="M237.7,-467.16C228.11,-461.73 218.67,-454.3 213.25,-444.5 206.2,-431.75 215.82,-420.49 228.95,-411.84"/>
<polygon fill="black" stroke="black" points="230.58,-414.36 237.44,-406.28 227.04,-408.32 230.58,-414.36"/>
<text text-anchor="middle" x="239.88" y="-431.2" font-family="Times New Roman,serif" font-size="14.00"> &#160;&#160;&#160;&#160;&#160;&#160;&#160;&#160;&#160;&#160;7 </text>
</g>
<!-- 6 -->
<g id="node4" class="node">
<title>6</title>
<ellipse fill="none" stroke="black" cx="256" cy="-129.5" rx="27" ry="18"/>
<text text-anchor="middle" x="256" y="-124.08" font-family="Times New Roman,serif" font-size="14.00">6</text>
</g>
<!-- 4&#45;&gt;6 -->
<g id="edge9" class="edge">
<title>4&#45;&gt;6</title>
<path fill="none" stroke="black" d="M225.78,-474.78C149.74,-465.25 0,-440.56 0,-393.75 0,-393.75 0,-393.75 0,-216.25 0,-170.65 147.91,-144.83 218.87,-135.06"/>
<polygon fill="black" stroke="black" points="219.12,-138.43 228.57,-133.63 218.19,-131.49 219.12,-138.43"/>
<text text-anchor="middle" x="27.38" y="-299.57" font-family="Times New Roman,serif" font-size="14.00"> &#160;&#160;&#160;&#160;&#160;&#160;&#160;&#160;&#160;12 </text>
</g>
<!-- 2 -->
<g id="node5" class="node">
<title>2</title>
<ellipse fill="lightblue" stroke="lightblue" cx="443" cy="-392.75" rx="45.08" ry="18"/>
<text text-anchor="middle" x="443" y="-387.32" font-family="Times New Roman,serif" font-size="14.00"> &#160;&#160;&#160;&#160;&#160;&#160;&#160;&#160;&#160;&#160;2 </text>
</g>
<!-- 4&#45;&gt;2 -->
<g id="edge8" class="edge">
<title>4&#45;&gt;2</title>
<path fill="none" stroke="black" d="M307.92,-471.03C329.88,-465.33 357.38,-456.62 380,-444.5 393.81,-437.1 407.55,-426.51 418.66,-416.92"/>
<polygon fill="black" stroke="black" points="420.46,-420.11 425.59,-410.85 415.8,-414.89 420.46,-420.11"/>
<text text-anchor="middle" x="427.88" y="-431.2" font-family="Times New Roman,serif" font-size="14.00"> &#160;&#160;&#160;&#160;&#160;&#160;&#160;&#160;&#160;&#160;5 </text>
</g>
<!-- 5 -->
<g id="node2" class="node">
<title>5</title>
<ellipse fill="lightblue" stroke="lightblue" cx="384" cy="-305" rx="45.08" ry="18"/>
<text text-anchor="middle" x="384" y="-299.57" font-family="Times New Roman,serif" font-size="14.00"> &#160;&#160;&#160;&#160;&#160;&#160;&#160;&#160;&#160;&#160;5 </text>
</g>
<!-- 5&#45;&gt;1 -->
<g id="edge12" class="edge">
<title>5&#45;&gt;1</title>
<path fill="none" stroke="black" d="M346.95,-315.55C330.97,-321.04 312.86,-329.24 299.25,-341 291.66,-347.55 285.46,-356.5 280.69,-365.06"/>
<polygon fill="black" stroke="black" points="277.17,-363.26 275.75,-373.76 283.41,-366.44 277.17,-363.26"/>
<text text-anchor="middle" x="326.38" y="-343.45" font-family="Times New Roman,serif" font-size="14.00"> &#160;&#160;&#160;&#160;&#160;&#160;&#160;&#160;&#160;10 </text>
</g>
<!-- 5&#45;&gt;6 -->
<g id="edge14" class="edge">
<title>5&#45;&gt;6</title>
<path fill="none" stroke="black" d="M382.14,-286.75C378.17,-257.97 366.31,-199.94 333,-165.5 321.66,-153.78 305.67,-145.64 291.2,-140.18"/>
<polygon fill="black" stroke="black" points="292.61,-136.62 282.02,-136.67 290.33,-143.24 292.61,-136.62"/>
<text text-anchor="middle" x="395.88" y="-211.82" font-family="Times New Roman,serif" font-size="14.00"> &#160;&#160;&#160;&#160;&#160;&#160;&#160;&#160;&#160;&#160;4 </text>
</g>
<!-- 3 -->
<g id="node6" class="node">
<title>3</title>
<ellipse fill="lightblue" stroke="lightblue" cx="404" cy="-41.75" rx="45.08" ry="18"/>
<text text-anchor="middle" x="404" y="-36.33" font-family="Times New Roman,serif" font-size="14.00"> &#160;&#160;&#160;&#160;&#160;&#160;&#160;&#160;&#160;&#160;3 </text>
</g>
<!-- 5&#45;&gt;3 -->
<g id="edge11" class="edge">
<title>5&#45;&gt;3</title>
<path fill="none" stroke="black" d="M397.74,-287.44C407.76,-274.24 420.51,-254.77 426,-235.25 442.12,-177.93 425.43,-107.83 413.59,-70.04"/>
<polygon fill="black" stroke="black" points="416.69,-69.26 410.27,-60.84 410.04,-71.43 416.69,-69.26"/>
<text text-anchor="middle" x="459.38" y="-167.95" font-family="Times New Roman,serif" font-size="14.00"> &#160;&#160;&#160;&#160;&#160;&#160;&#160;&#160;&#160;14 </text>
</g>
<!-- 7 -->
<g id="node7" class="node">
<title>7</title>
<ellipse fill="lightblue" stroke="lightblue" cx="293" cy="-217.25" rx="45.08" ry="18"/>
<text text-anchor="middle" x="293" y="-211.82" font-family="Times New Roman,serif" font-size="14.00"> &#160;&#160;&#160;&#160;&#160;&#160;&#160;&#160;&#160;&#160;7 </text>
</g>
<!-- 5&#45;&gt;7 -->
<g id="edge13" class="edge">
<title>5&#45;&gt;7</title>
<path fill="none" stroke="black" d="M349.74,-293.03C336.93,-287.51 323.1,-279.67 313.25,-269 307.25,-262.51 302.94,-254.02 299.88,-245.84"/>
<polygon fill="black" stroke="black" points="302.94,-244.92 296.54,-236.48 296.27,-247.07 302.94,-244.92"/>
<text text-anchor="middle" x="340.38" y="-255.7" font-family="Times New Roman,serif" font-size="14.00"> &#160;&#160;&#160;&#160;&#160;&#160;&#160;&#160;&#160;13 </text>
</g>
<!-- 1&#45;&gt;4 -->
<g id="edge1" class="edge">
<title>1&#45;&gt;4</title>
<path fill="none" stroke="black" d="M269,-411.08C269,-422.58 269,-437.94 269,-451.19"/>
<polygon fill="black" stroke="black" points="265.5,-451.15 269,-461.15 272.5,-451.15 265.5,-451.15"/>
<text text-anchor="middle" x="294.88" y="-431.2" font-family="Times New Roman,serif" font-size="14.00"> &#160;&#160;&#160;&#160;&#160;&#160;&#160;&#160;&#160;&#160;7 </text>
</g>
<!-- 1&#45;&gt;4 -->
<g id="edge3" class="edge">
<title>1&#45;&gt;4</title>
<path fill="none" stroke="black" d="M298.43,-406.69C314.74,-415.87 330.21,-429.24 322,-444.5 318.6,-450.83 313.49,-456.2 307.77,-460.7"/>
<polygon fill="black" stroke="black" points="306.34,-458.12 300.07,-466.67 310.3,-463.89 306.34,-458.12"/>
<text text-anchor="middle" x="349.88" y="-431.2" font-family="Times New Roman,serif" font-size="14.00"> &#160;&#160;&#160;&#160;&#160;&#160;&#160;&#160;&#160;&#160;7 </text>
</g>
<!-- 1&#45;&gt;5 -->
<g id="edge2" class="edge">
<title>1&#45;&gt;5</title>
<path fill="none" stroke="black" d="M307.82,-383.12C324.79,-377.79 343.97,-369.46 358,-356.75 365.09,-350.32 370.54,-341.51 374.57,-333.03"/>
<polygon fill="black" stroke="black" points="378.12,-334.61 378.79,-324.04 371.68,-331.89 378.12,-334.61"/>
<text text-anchor="middle" x="394.88" y="-343.45" font-family="Times New Roman,serif" font-size="14.00"> &#160;&#160;&#160;&#160;&#160;&#160;&#160;&#160;&#160;&#160;3 </text>
</g>
<!-- 1&#45;&gt;6 -->
<g id="edge4" class="edge">
<title>1&#45;&gt;6</title>
<path fill="none" stroke="black" d="M260.28,-374.84C248.89,-351.69 229.51,-308.47 222.25,-269 214.98,-229.5 230.49,-184.43 242.82,-156.72"/>
<polygon fill="black" stroke="black" points="246.3,-158.54 247.33,-148 239.95,-155.59 246.3,-158.54"/>
<text text-anchor="middle" x="250.38" y="-255.7" font-family="Times New Roman,serif" font-size="14.00"> &#160;&#160;&#160;&#160;&#160;&#160;&#160;&#160;&#160;11 </text>
</g>
<!-- 6&#45;&gt;4 -->
<g id="edge15" class="edge">
<title>6&#45;&gt;4</title>
<path fill="none" stroke="black" d="M230.96,-136.66C199.83,-145.53 146.9,-164.76 115,-199.25 95.25,-220.6 91,-231.04 91,-260.12 91,-393.75 91,-393.75 91,-393.75 91,-448.99 161.44,-468.66 213.7,-475.66"/>
<polygon fill="black" stroke="black" points="213.19,-479.24 223.54,-476.97 214.03,-472.3 213.19,-479.24"/>
<text text-anchor="middle" x="116.88" y="-299.57" font-family="Times New Roman,serif" font-size="14.00"> &#160;&#160;&#160;&#160;&#160;&#160;&#160;&#160;&#160;&#160;2 </text>
</g>
<!-- 6&#45;&gt;3 -->
<g id="edge16" class="edge">
<title>6&#45;&gt;3</title>
<path fill="none" stroke="black" d="M275.96,-116.94C299.99,-103.01 340.74,-79.4 369.81,-62.56"/>
<polygon fill="black" stroke="black" points="371.29,-65.17 378.19,-57.13 367.78,-59.11 371.29,-65.17"/>
<text text-anchor="middle" x="370.38" y="-80.2" font-family="Times New Roman,serif" font-size="14.00"> &#160;&#160;&#160;&#160;&#160;&#160;&#160;&#160;&#160;18 </text>
</g>
<!-- 2&#45;&gt;5 -->
<g id="edge5" class="edge">
<title>2&#45;&gt;5</title>
<path fill="none" stroke="black" d="M442.75,-374.58C441.88,-364.14 439.42,-350.96 433,-341 429.48,-335.54 424.78,-330.67 419.69,-326.42"/>
<polygon fill="black" stroke="black" points="421.98,-323.02 411.87,-319.87 417.81,-328.64 421.98,-323.02"/>
<text text-anchor="middle" x="464.88" y="-343.45" font-family="Times New Roman,serif" font-size="14.00"> &#160;&#160;&#160;&#160;&#160;&#160;&#160;&#160;&#160;&#160;2 </text>
</g>
<!-- 3&#45;&gt;4 -->
<g id="edge7" class="edge">
<title>3&#45;&gt;4</title>
<path fill="none" stroke="black" d="M440.98,-52.27C476.24,-63.84 524,-87.15 524,-128.5 524,-393.75 524,-393.75 524,-393.75 524,-430.75 491.8,-429.44 458,-444.5 415.37,-463.5 362.92,-472.19 324.09,-476.16"/>
<polygon fill="black" stroke="black" points="324.15,-472.73 314.52,-477.16 324.8,-479.7 324.15,-472.73"/>
<text text-anchor="middle" x="549.88" y="-255.7" font-family="Times New Roman,serif" font-size="14.00"> &#160;&#160;&#160;&#160;&#160;&#160;&#160;&#160;&#160;&#160;3 </text>
</g>
<!-- 3&#45;&gt;1 -->
<g id="edge6" class="edge">
<title>3&#45;&gt;1</title>
<path fill="none" stroke="black" d="M363.78,-50.15C323.87,-59.13 262.66,-77.48 220,-111.5 183.5,-140.61 175.65,-154.53 162.25,-199.25 142.42,-265.45 203.86,-334.17 241.66,-368.82"/>
<polygon fill="black" stroke="black" points="239,-371.03 248.79,-375.09 243.66,-365.81 239,-371.03"/>
<text text-anchor="middle" x="190.38" y="-211.82" font-family="Times New Roman,serif" font-size="14.00"> &#160;&#160;&#160;&#160;&#160;&#160;&#160;&#160;&#160;12 </text>
</g>
<!-- 7&#45;&gt;1 -->
<g id="edge17" class="edge">
<title>7&#45;&gt;1</title>
<path fill="none" stroke="black" d="M288.64,-235.66C285.33,-249.49 280.91,-269.38 278.25,-287 274.34,-312.89 271.91,-342.66 270.53,-363.82"/>
<polygon fill="black" stroke="black" points="266.98,-363.42 269.86,-373.62 273.97,-363.85 266.98,-363.42"/>
<text text-anchor="middle" x="303.88" y="-299.57" font-family="Times New Roman,serif" font-size="14.00"> &#160;&#160;&#160;&#160;&#160;&#160;&#160;&#160;&#160;&#160;4 </text>
</g>
<!-- 7&#45;&gt;6 -->
<g id="edge18" class="edge">
<title>7&#45;&gt;6</title>
<path fill="none" stroke="black" d="M285.69,-199.31C280.49,-187.25 273.39,-170.81 267.44,-157.02"/>
<polygon fill="black" stroke="black" points="270.34,-155.91 263.17,-148.11 263.92,-158.68 270.34,-155.91"/>
<text text-anchor="middle" x="302.88" y="-167.95" font-family="Times New Roman,serif" font-size="14.00"> &#160;&#160;&#160;&#160;&#160;&#160;&#160;&#160;&#160;&#160;8 </text>
</g>
</g>
</svg>
