<?xml version="1.0" encoding="UTF-8" standalone="no"?>
<!DOCTYPE svg PUBLIC "-//W3C//DTD SVG 1.1//EN"
 "http://www.w3.org/Graphics/SVG/1.1/DTD/svg11.dtd">
<!-- Generated by graphviz version 8.1.0 (20230707.0739)
 -->
<!-- Title: G Pages: 1 -->
<svg width="656pt" height="702pt"
 viewBox="0.00 0.00 655.75 702.25" xmlns="http://www.w3.org/2000/svg" xmlns:xlink="http://www.w3.org/1999/xlink">
<g id="graph0" class="graph" transform="scale(1 1) rotate(0) translate(4 698.25)">
<title>G</title>
<polygon fill="white" stroke="none" points="-4,4 -4,-698.25 651.75,-698.25 651.75,4 -4,4"/>
<text text-anchor="middle" x="323.88" y="-6.45" font-family="Times New Roman,serif" font-size="14.00">Distancia minima</text>
<!-- 4 -->
<g id="node1" class="node">
<title>4</title>
<ellipse fill="lightblue" stroke="lightblue" cx="400" cy="-676.25" rx="45.08" ry="18"/>
<text text-anchor="middle" x="400" y="-670.83" font-family="Times New Roman,serif" font-size="14.00"> &#160;&#160;&#160;&#160;&#160;&#160;&#160;&#160;&#160;&#160;4 </text>
</g>
<!-- 6 -->
<g id="node3" class="node">
<title>6</title>
<ellipse fill="lightblue" stroke="lightblue" cx="175" cy="-588.5" rx="45.08" ry="18"/>
<text text-anchor="middle" x="175" y="-583.08" font-family="Times New Roman,serif" font-size="14.00"> &#160;&#160;&#160;&#160;&#160;&#160;&#160;&#160;&#160;&#160;6 </text>
</g>
<!-- 4&#45;&gt;6 -->
<g id="edge9" class="edge">
<title>4&#45;&gt;6</title>
<path fill="none" stroke="black" d="M357.66,-669.5C327.15,-664.36 285.51,-655.27 251.25,-640.25 239.82,-635.24 238.37,-631.44 228,-624.5 221.04,-619.84 213.55,-614.87 206.45,-610.18"/>
<polygon fill="black" stroke="black" points="209.01,-607.02 198.74,-604.43 205.15,-612.86 209.01,-607.02"/>
<text text-anchor="middle" x="279.38" y="-626.95" font-family="Times New Roman,serif" font-size="14.00"> &#160;&#160;&#160;&#160;&#160;&#160;&#160;&#160;&#160;12 </text>
</g>
<!-- 1 -->
<g id="node4" class="node">
<title>1</title>
<ellipse fill="none" stroke="black" cx="336" cy="-41.75" rx="27" ry="18"/>
<text text-anchor="middle" x="336" y="-36.33" font-family="Times New Roman,serif" font-size="14.00">1</text>
</g>
<!-- 4&#45;&gt;1 -->
<g id="edge10" class="edge">
<title>4&#45;&gt;1</title>
<path fill="none" stroke="black" d="M430.07,-662.42C439.1,-656.98 447.93,-649.67 453,-640.25 512.71,-529.27 453.82,-482.6 447.25,-356.75 446.07,-334.22 446,-328.56 446,-306 446,-306 446,-306 446,-128.5 446,-89.72 402.94,-65.9 370.7,-53.5"/>
<polygon fill="black" stroke="black" points="372.28,-49.98 361.69,-49.87 369.9,-56.57 372.28,-49.98"/>
<text text-anchor="middle" x="472.88" y="-343.45" font-family="Times New Roman,serif" font-size="14.00"> &#160;&#160;&#160;&#160;&#160;&#160;&#160;&#160;&#160;&#160;7 </text>
</g>
<!-- 2 -->
<g id="node5" class="node">
<title>2</title>
<ellipse fill="lightblue" stroke="lightblue" cx="400" cy="-534.5" rx="45.08" ry="18"/>
<text text-anchor="middle" x="400" y="-529.08" font-family="Times New Roman,serif" font-size="14.00"> &#160;&#160;&#160;&#160;&#160;&#160;&#160;&#160;&#160;&#160;2 </text>
</g>
<!-- 4&#45;&gt;2 -->
<g id="edge8" class="edge">
<title>4&#45;&gt;2</title>
<path fill="none" stroke="black" d="M400,-657.83C400,-634.17 400,-591.58 400,-563.43"/>
<polygon fill="black" stroke="black" points="403.5,-563.7 400,-553.7 396.5,-563.7 403.5,-563.7"/>
<text text-anchor="middle" x="425.88" y="-626.95" font-family="Times New Roman,serif" font-size="14.00"> &#160;&#160;&#160;&#160;&#160;&#160;&#160;&#160;&#160;&#160;5 </text>
</g>
<!-- 5 -->
<g id="node2" class="node">
<title>5</title>
<ellipse fill="lightblue" stroke="lightblue" cx="217" cy="-305" rx="45.08" ry="18"/>
<text text-anchor="middle" x="217" y="-299.57" font-family="Times New Roman,serif" font-size="14.00"> &#160;&#160;&#160;&#160;&#160;&#160;&#160;&#160;&#160;&#160;5 </text>
</g>
<!-- 5&#45;&gt;6 -->
<g id="edge14" class="edge">
<title>5&#45;&gt;6</title>
<path fill="none" stroke="black" d="M210.45,-323.28C208.5,-328.87 206.48,-335.15 205,-341 185.64,-417.31 188.44,-438.13 181,-516.5 179.65,-530.69 178.3,-546.49 177.22,-559.58"/>
<polygon fill="black" stroke="black" points="173.68,-559.02 176.36,-569.27 180.65,-559.59 173.68,-559.02"/>
<text text-anchor="middle" x="214.88" y="-431.2" font-family="Times New Roman,serif" font-size="14.00"> &#160;&#160;&#160;&#160;&#160;&#160;&#160;&#160;&#160;&#160;4 </text>
</g>
<!-- 5&#45;&gt;1 -->
<g id="edge12" class="edge">
<title>5&#45;&gt;1</title>
<path fill="none" stroke="black" d="M245.07,-290.52C255.45,-284.75 266.9,-277.4 276,-269 324.63,-224.14 341.95,-210.55 362,-147.5 370.44,-120.95 360.31,-89.91 350.33,-68.55"/>
<polygon fill="black" stroke="black" points="353.12,-67.29 345.53,-59.9 346.85,-70.41 353.12,-67.29"/>
<text text-anchor="middle" x="382.38" y="-167.95" font-family="Times New Roman,serif" font-size="14.00"> &#160;&#160;&#160;&#160;&#160;&#160;&#160;&#160;&#160;10 </text>
</g>
<!-- 3 -->
<g id="node7" class="node">
<title>3</title>
<ellipse fill="none" stroke="black" cx="319" cy="-480.5" rx="27" ry="18"/>
<text text-anchor="middle" x="319" y="-475.07" font-family="Times New Roman,serif" font-size="14.00">3</text>
</g>
<!-- 5&#45;&gt;3 -->
<g id="edge11" class="edge">
<title>5&#45;&gt;3</title>
<path fill="none" stroke="black" d="M212.62,-323.15C208.04,-344.93 203.39,-383.02 218.25,-410.75 232.54,-437.41 262.26,-455.73 285.73,-466.71"/>
<polygon fill="black" stroke="black" points="284.11,-470.26 294.67,-471.1 286.94,-463.86 284.11,-470.26"/>
<text text-anchor="middle" x="246.38" y="-387.32" font-family="Times New Roman,serif" font-size="14.00"> &#160;&#160;&#160;&#160;&#160;&#160;&#160;&#160;&#160;14 </text>
</g>
<!-- 7 -->
<g id="node8" class="node">
<title>7</title>
<ellipse fill="none" stroke="black" cx="217" cy="-217.25" rx="45.08" ry="18"/>
<text text-anchor="middle" x="217" y="-211.82" font-family="Times New Roman,serif" font-size="14.00"> &#160;&#160;&#160;&#160;&#160;&#160;&#160;&#160;&#160;&#160;7 </text>
</g>
<!-- 5&#45;&gt;7 -->
<g id="edge13" class="edge">
<title>5&#45;&gt;7</title>
<path fill="none" stroke="black" d="M217,-286.65C217,-275.14 217,-259.78 217,-246.53"/>
<polygon fill="black" stroke="black" points="220.5,-246.58 217,-236.58 213.5,-246.58 220.5,-246.58"/>
<text text-anchor="middle" x="244.38" y="-255.7" font-family="Times New Roman,serif" font-size="14.00"> &#160;&#160;&#160;&#160;&#160;&#160;&#160;&#160;&#160;13 </text>
</g>
<!-- 6&#45;&gt;4 -->
<g id="edge15" class="edge">
<title>6&#45;&gt;4</title>
<path fill="none" stroke="black" d="M168.6,-606.5C165.7,-617.39 164.44,-631.14 172.25,-640.25 193.92,-665.51 283.64,-672.72 343.79,-674.67"/>
<polygon fill="black" stroke="black" points="343.56,-678.19 353.65,-674.98 343.76,-671.2 343.56,-678.19"/>
<text text-anchor="middle" x="198.88" y="-626.95" font-family="Times New Roman,serif" font-size="14.00"> &#160;&#160;&#160;&#160;&#160;&#160;&#160;&#160;&#160;&#160;2 </text>
</g>
<!-- 9 -->
<g id="node6" class="node">
<title>9</title>
<ellipse fill="lightblue" stroke="lightblue" cx="327" cy="-392.75" rx="45.08" ry="18"/>
<text text-anchor="middle" x="327" y="-387.32" font-family="Times New Roman,serif" font-size="14.00"> &#160;&#160;&#160;&#160;&#160;&#160;&#160;&#160;&#160;&#160;9 </text>
</g>
<!-- 6&#45;&gt;9 -->
<g id="edge17" class="edge">
<title>6&#45;&gt;9</title>
<path fill="none" stroke="black" d="M179.1,-570.13C185.85,-544.4 201.32,-495.63 228.25,-462.5 245.09,-441.79 269.72,-424.63 290.16,-412.63"/>
<polygon fill="black" stroke="black" points="291.55,-415.3 298.52,-407.33 288.09,-409.22 291.55,-415.3"/>
<text text-anchor="middle" x="256.38" y="-475.07" font-family="Times New Roman,serif" font-size="14.00"> &#160;&#160;&#160;&#160;&#160;&#160;&#160;&#160;&#160;14 </text>
</g>
<!-- 6&#45;&gt;3 -->
<g id="edge16" class="edge">
<title>6&#45;&gt;3</title>
<path fill="none" stroke="black" d="M200.87,-573.42C210.07,-567.67 220.09,-560.49 228,-552.5 241.4,-538.96 237.15,-529.3 251.25,-516.5 261.18,-507.48 273.86,-500.12 285.56,-494.52"/>
<polygon fill="black" stroke="black" points="286.82,-497.34 294.5,-490.05 283.94,-490.96 286.82,-497.34"/>
<text text-anchor="middle" x="279.38" y="-529.08" font-family="Times New Roman,serif" font-size="14.00"> &#160;&#160;&#160;&#160;&#160;&#160;&#160;&#160;&#160;18 </text>
</g>
<!-- 1&#45;&gt;4 -->
<g id="edge1" class="edge">
<title>1&#45;&gt;4</title>
<path fill="none" stroke="black" d="M363.3,-43.32C414.76,-45.99 521,-59.82 521,-128.5 521,-589.5 521,-589.5 521,-589.5 521,-627.18 481.45,-649.81 447.57,-662.27"/>
<polygon fill="black" stroke="black" points="446.6,-659.25 438.29,-665.82 448.89,-665.87 446.6,-659.25"/>
<text text-anchor="middle" x="546.88" y="-343.45" font-family="Times New Roman,serif" font-size="14.00"> &#160;&#160;&#160;&#160;&#160;&#160;&#160;&#160;&#160;&#160;7 </text>
</g>
<!-- 1&#45;&gt;4 -->
<g id="edge3" class="edge">
<title>1&#45;&gt;4</title>
<path fill="none" stroke="black" d="M362.36,-45.74C428.46,-53.98 596,-79.66 596,-128.5 596,-589.5 596,-589.5 596,-589.5 596,-651.09 513.77,-668.87 455.84,-673.75"/>
<polygon fill="black" stroke="black" points="455.69,-670.33 445.97,-674.54 456.19,-677.31 455.69,-670.33"/>
<text text-anchor="middle" x="621.88" y="-343.45" font-family="Times New Roman,serif" font-size="14.00"> &#160;&#160;&#160;&#160;&#160;&#160;&#160;&#160;&#160;&#160;7 </text>
</g>
<!-- 1&#45;&gt;5 -->
<g id="edge2" class="edge">
<title>1&#45;&gt;5</title>
<path fill="none" stroke="black" d="M308.68,-43.7C267.39,-46.82 190.74,-59.69 161,-111.5 133.61,-159.2 143.71,-183.74 163,-235.25 169.27,-252 181.21,-267.89 192.27,-280.17"/>
<polygon fill="black" stroke="black" points="189.29,-282.18 198.7,-287.06 194.39,-277.38 189.29,-282.18"/>
<text text-anchor="middle" x="171.88" y="-167.95" font-family="Times New Roman,serif" font-size="14.00"> &#160;&#160;&#160;&#160;&#160;&#160;&#160;&#160;&#160;&#160;3 </text>
</g>
<!-- 1&#45;&gt;6 -->
<g id="edge4" class="edge">
<title>1&#45;&gt;6</title>
<path fill="none" stroke="black" d="M308.79,-43.87C228.8,-47.88 0,-64.91 0,-128.5 0,-481.5 0,-481.5 0,-481.5 0,-539.53 71.28,-566.67 122.85,-578.7"/>
<polygon fill="black" stroke="black" points="122.01,-582.32 132.53,-581.05 123.51,-575.48 122.01,-582.32"/>
<text text-anchor="middle" x="27.38" y="-299.57" font-family="Times New Roman,serif" font-size="14.00"> &#160;&#160;&#160;&#160;&#160;&#160;&#160;&#160;&#160;11 </text>
</g>
<!-- 2&#45;&gt;5 -->
<g id="edge5" class="edge">
<title>2&#45;&gt;5</title>
<path fill="none" stroke="black" d="M401.89,-516.06C404.39,-485.45 405.9,-420.93 381,-374.75 359.91,-335.63 310.67,-318.77 271.62,-311.5"/>
<polygon fill="black" stroke="black" points="272.35,-307.9 261.9,-309.69 271.18,-314.81 272.35,-307.9"/>
<text text-anchor="middle" x="425.88" y="-431.2" font-family="Times New Roman,serif" font-size="14.00"> &#160;&#160;&#160;&#160;&#160;&#160;&#160;&#160;&#160;&#160;2 </text>
</g>
<!-- 9&#45;&gt;5 -->
<g id="edge22" class="edge">
<title>9&#45;&gt;5</title>
<path fill="none" stroke="black" d="M307.08,-376.22C289.79,-362.74 264.57,-343.08 245.21,-327.99"/>
<polygon fill="black" stroke="black" points="247.81,-324.8 237.77,-321.41 243.51,-330.32 247.81,-324.8"/>
<text text-anchor="middle" x="309.38" y="-343.45" font-family="Times New Roman,serif" font-size="14.00"> &#160;&#160;&#160;&#160;&#160;&#160;&#160;&#160;&#160;24 </text>
</g>
<!-- 3&#45;&gt;4 -->
<g id="edge7" class="edge">
<title>3&#45;&gt;4</title>
<path fill="none" stroke="black" d="M319.89,-498.89C321.74,-523.82 327.36,-570.65 344.25,-606.5 352.02,-622.99 364.56,-638.96 375.78,-651.35"/>
<polygon fill="black" stroke="black" points="372.87,-653.43 382.26,-658.32 377.97,-648.63 372.87,-653.43"/>
<text text-anchor="middle" x="369.88" y="-583.08" font-family="Times New Roman,serif" font-size="14.00"> &#160;&#160;&#160;&#160;&#160;&#160;&#160;&#160;&#160;&#160;3 </text>
</g>
<!-- 3&#45;&gt;9 -->
<g id="edge6" class="edge">
<title>3&#45;&gt;9</title>
<path fill="none" stroke="black" d="M320.36,-462.11C321.15,-452.31 322.19,-439.84 323.25,-428.75 323.46,-426.52 323.69,-424.2 323.93,-421.88"/>
<polygon fill="black" stroke="black" points="327.49,-422.5 325.05,-412.19 320.53,-421.77 327.49,-422.5"/>
<text text-anchor="middle" x="351.38" y="-431.2" font-family="Times New Roman,serif" font-size="14.00"> &#160;&#160;&#160;&#160;&#160;&#160;&#160;&#160;&#160;12 </text>
</g>
<!-- 7&#45;&gt;6 -->
<g id="edge19" class="edge">
<title>7&#45;&gt;6</title>
<path fill="none" stroke="black" d="M177.16,-226.06C137.66,-236.39 83,-258.84 83,-304 83,-481.5 83,-481.5 83,-481.5 83,-518.34 115.08,-548.63 141.36,-567.27"/>
<polygon fill="black" stroke="black" points="139.1,-570.65 149.35,-573.36 143.03,-564.85 139.1,-570.65"/>
<text text-anchor="middle" x="108.88" y="-387.32" font-family="Times New Roman,serif" font-size="14.00"> &#160;&#160;&#160;&#160;&#160;&#160;&#160;&#160;&#160;&#160;8 </text>
</g>
<!-- 7&#45;&gt;1 -->
<g id="edge18" class="edge">
<title>7&#45;&gt;1</title>
<path fill="none" stroke="black" d="M245.34,-202.87C255.04,-197.24 265.37,-189.96 273,-181.25 288.34,-163.74 312.42,-104.68 325.94,-69.59"/>
<polygon fill="black" stroke="black" points="329.48,-71.13 329.77,-60.54 322.94,-68.64 329.48,-71.13"/>
<text text-anchor="middle" x="334.88" y="-124.08" font-family="Times New Roman,serif" font-size="14.00"> &#160;&#160;&#160;&#160;&#160;&#160;&#160;&#160;&#160;&#160;4 </text>
</g>
<!-- 8 -->
<g id="node9" class="node">
<title>8</title>
<ellipse fill="none" stroke="black" cx="215" cy="-129.5" rx="45.08" ry="18"/>
<text text-anchor="middle" x="215" y="-124.08" font-family="Times New Roman,serif" font-size="14.00"> &#160;&#160;&#160;&#160;&#160;&#160;&#160;&#160;&#160;&#160;8 </text>
</g>
<!-- 7&#45;&gt;8 -->
<g id="edge20" class="edge">
<title>7&#45;&gt;8</title>
<path fill="none" stroke="black" d="M216.6,-198.9C216.33,-187.39 215.97,-172.03 215.66,-158.78"/>
<polygon fill="black" stroke="black" points="219.14,-158.74 215.4,-148.83 212.14,-158.91 219.14,-158.74"/>
<text text-anchor="middle" x="242.88" y="-167.95" font-family="Times New Roman,serif" font-size="14.00"> &#160;&#160;&#160;&#160;&#160;&#160;&#160;&#160;&#160;&#160;3 </text>
</g>
<!-- 8&#45;&gt;1 -->
<g id="edge21" class="edge">
<title>8&#45;&gt;1</title>
<path fill="none" stroke="black" d="M216.16,-111.41C217.77,-100.48 221.53,-86.72 230.25,-77.75 248.09,-59.4 275.75,-50.67 298.31,-46.52"/>
<polygon fill="black" stroke="black" points="298.58,-49.86 307.9,-44.82 297.48,-42.95 298.58,-49.86"/>
<text text-anchor="middle" x="256.88" y="-80.2" font-family="Times New Roman,serif" font-size="14.00"> &#160;&#160;&#160;&#160;&#160;&#160;&#160;&#160;&#160;&#160;8 </text>
</g>
</g>
</svg>
