<?xml version="1.0" encoding="UTF-8" standalone="no"?>
<!DOCTYPE svg PUBLIC "-//W3C//DTD SVG 1.1//EN"
 "http://www.w3.org/Graphics/SVG/1.1/DTD/svg11.dtd">
<!-- Generated by graphviz version 8.1.0 (20230707.0739)
 -->
<!-- Title: G Pages: 1 -->
<svg width="614pt" height="571pt"
 viewBox="0.00 0.00 614.16 570.50" xmlns="http://www.w3.org/2000/svg" xmlns:xlink="http://www.w3.org/1999/xlink">
<g id="graph0" class="graph" transform="scale(1 1) rotate(0) translate(4 566.5)">
<title>G</title>
<polygon fill="white" stroke="none" points="-4,4 -4,-566.5 610.16,-566.5 610.16,4 -4,4"/>
<!-- 1 -->
<g id="node1" class="node">
<title>1</title>
<ellipse fill="none" stroke="black" cx="246.41" cy="-544.5" rx="45.08" ry="18"/>
<text text-anchor="middle" x="246.41" y="-539.08" font-family="Times New Roman,serif" font-size="14.00"> &#160;&#160;&#160;&#160;&#160;&#160;&#160;&#160;&#160;&#160;1 </text>
</g>
<!-- 4 -->
<g id="node2" class="node">
<title>4</title>
<ellipse fill="none" stroke="black" cx="322.41" cy="-456.75" rx="45.08" ry="18"/>
<text text-anchor="middle" x="322.41" y="-451.32" font-family="Times New Roman,serif" font-size="14.00"> &#160;&#160;&#160;&#160;&#160;&#160;&#160;&#160;&#160;&#160;4 </text>
</g>
<!-- 1&#45;&gt;4 -->
<g id="edge1" class="edge">
<title>1&#45;&gt;4</title>
<path fill="none" stroke="black" d="M258.18,-527C265.68,-516.82 275.81,-503.67 285.66,-492.75 289.16,-488.87 293.02,-484.9 296.87,-481.1"/>
<polygon fill="black" stroke="black" points="298.89,-484.06 303.68,-474.61 294.04,-479.01 298.89,-484.06"/>
<text text-anchor="middle" x="311.28" y="-495.2" font-family="Times New Roman,serif" font-size="14.00"> &#160;&#160;&#160;&#160;&#160;&#160;&#160;&#160;&#160;&#160;7 </text>
</g>
<!-- 1&#45;&gt;4 -->
<g id="edge3" class="edge">
<title>1&#45;&gt;4</title>
<path fill="none" stroke="black" d="M288.79,-537.95C306.91,-533.24 326.39,-524.55 337.41,-508.5 342.31,-501.36 341.57,-492.61 338.68,-484.39"/>
<polygon fill="black" stroke="black" points="341.47,-483.07 334.13,-475.43 335.1,-485.98 341.47,-483.07"/>
<text text-anchor="middle" x="366.28" y="-495.2" font-family="Times New Roman,serif" font-size="14.00"> &#160;&#160;&#160;&#160;&#160;&#160;&#160;&#160;&#160;&#160;7 </text>
</g>
<!-- 5 -->
<g id="node3" class="node">
<title>5</title>
<ellipse fill="none" stroke="black" cx="57.41" cy="-281.25" rx="45.08" ry="18"/>
<text text-anchor="middle" x="57.41" y="-275.82" font-family="Times New Roman,serif" font-size="14.00"> &#160;&#160;&#160;&#160;&#160;&#160;&#160;&#160;&#160;&#160;5 </text>
</g>
<!-- 1&#45;&gt;5 -->
<g id="edge2" class="edge">
<title>1&#45;&gt;5</title>
<path fill="none" stroke="black" d="M202.5,-539.56C176.45,-535.34 144.01,-526.6 120.41,-508.5 59.01,-461.4 54.02,-359.79 55.55,-310.37"/>
<polygon fill="black" stroke="black" points="59.08,-310.69 56.02,-300.55 52.09,-310.39 59.08,-310.69"/>
<text text-anchor="middle" x="93.28" y="-407.45" font-family="Times New Roman,serif" font-size="14.00"> &#160;&#160;&#160;&#160;&#160;&#160;&#160;&#160;&#160;&#160;3 </text>
</g>
<!-- 6 -->
<g id="node4" class="node">
<title>6</title>
<ellipse fill="none" stroke="black" cx="290.41" cy="-105.75" rx="45.08" ry="18"/>
<text text-anchor="middle" x="290.41" y="-100.33" font-family="Times New Roman,serif" font-size="14.00"> &#160;&#160;&#160;&#160;&#160;&#160;&#160;&#160;&#160;&#160;6 </text>
</g>
<!-- 1&#45;&gt;6 -->
<g id="edge4" class="edge">
<title>1&#45;&gt;6</title>
<path fill="none" stroke="black" d="M287.88,-537.11C355.35,-525.54 481.41,-498.47 481.41,-457.75 481.41,-457.75 481.41,-457.75 481.41,-192.5 481.41,-132.7 402.51,-114.34 346.14,-108.86"/>
<polygon fill="black" stroke="black" points="346.45,-105.29 336.19,-107.93 345.86,-112.27 346.45,-105.29"/>
<text text-anchor="middle" x="508.78" y="-319.7" font-family="Times New Roman,serif" font-size="14.00"> &#160;&#160;&#160;&#160;&#160;&#160;&#160;&#160;&#160;11 </text>
</g>
<!-- 4&#45;&gt;1 -->
<g id="edge10" class="edge">
<title>4&#45;&gt;1</title>
<path fill="none" stroke="black" d="M278.13,-460.78C256.16,-464.79 231.44,-473.61 217.66,-492.75 211.62,-501.13 214.96,-510.89 221.16,-519.6"/>
<polygon fill="black" stroke="black" points="218.97,-521.44 228.07,-526.87 224.34,-516.95 218.97,-521.44"/>
<text text-anchor="middle" x="244.28" y="-495.2" font-family="Times New Roman,serif" font-size="14.00"> &#160;&#160;&#160;&#160;&#160;&#160;&#160;&#160;&#160;&#160;7 </text>
</g>
<!-- 4&#45;&gt;6 -->
<g id="edge9" class="edge">
<title>4&#45;&gt;6</title>
<path fill="none" stroke="black" d="M334.85,-438.98C345.93,-422.36 360.41,-395.73 360.41,-370 360.41,-370 360.41,-370 360.41,-192.5 360.41,-166.29 340.54,-143.66 321.97,-128.25"/>
<polygon fill="black" stroke="black" points="324.36,-124.89 314.33,-121.48 320.04,-130.4 324.36,-124.89"/>
<text text-anchor="middle" x="387.78" y="-275.82" font-family="Times New Roman,serif" font-size="14.00"> &#160;&#160;&#160;&#160;&#160;&#160;&#160;&#160;&#160;12 </text>
</g>
<!-- 2 -->
<g id="node5" class="node">
<title>2</title>
<ellipse fill="none" stroke="black" cx="249.41" cy="-369" rx="45.08" ry="18"/>
<text text-anchor="middle" x="249.41" y="-363.57" font-family="Times New Roman,serif" font-size="14.00"> &#160;&#160;&#160;&#160;&#160;&#160;&#160;&#160;&#160;&#160;2 </text>
</g>
<!-- 4&#45;&gt;2 -->
<g id="edge8" class="edge">
<title>4&#45;&gt;2</title>
<path fill="none" stroke="black" d="M287.88,-444.71C276.21,-439.3 264.23,-431.55 256.66,-420.75 252.07,-414.21 249.81,-406.02 248.81,-398.15"/>
<polygon fill="black" stroke="black" points="252.25,-398.17 248.11,-388.42 245.27,-398.62 252.25,-398.17"/>
<text text-anchor="middle" x="283.28" y="-407.45" font-family="Times New Roman,serif" font-size="14.00"> &#160;&#160;&#160;&#160;&#160;&#160;&#160;&#160;&#160;&#160;5 </text>
</g>
<!-- 5&#45;&gt;1 -->
<g id="edge12" class="edge">
<title>5&#45;&gt;1</title>
<path fill="none" stroke="black" d="M42.92,-298.7C21.69,-324.88 -13.36,-377.52 5.66,-420.75 28.91,-473.59 50.46,-481.37 101.41,-508.5 129.58,-523.5 164.24,-532.17 192.6,-537.13"/>
<polygon fill="black" stroke="black" points="191.71,-540.69 202.14,-538.85 192.84,-533.78 191.71,-540.69"/>
<text text-anchor="middle" x="33.78" y="-407.45" font-family="Times New Roman,serif" font-size="14.00"> &#160;&#160;&#160;&#160;&#160;&#160;&#160;&#160;&#160;10 </text>
</g>
<!-- 5&#45;&gt;6 -->
<g id="edge14" class="edge">
<title>5&#45;&gt;6</title>
<path fill="none" stroke="black" d="M50.29,-263.07C42.22,-240.56 32.49,-200.97 51.66,-175.5 74,-145.81 174.4,-124.95 237.68,-114.47"/>
<polygon fill="black" stroke="black" points="237.95,-117.81 247.27,-112.76 236.84,-110.9 237.95,-117.81"/>
<text text-anchor="middle" x="78.28" y="-188.07" font-family="Times New Roman,serif" font-size="14.00"> &#160;&#160;&#160;&#160;&#160;&#160;&#160;&#160;&#160;&#160;4 </text>
</g>
<!-- 3 -->
<g id="node6" class="node">
<title>3</title>
<ellipse fill="none" stroke="black" cx="396.41" cy="-18" rx="45.08" ry="18"/>
<text text-anchor="middle" x="396.41" y="-12.57" font-family="Times New Roman,serif" font-size="14.00"> &#160;&#160;&#160;&#160;&#160;&#160;&#160;&#160;&#160;&#160;3 </text>
</g>
<!-- 5&#45;&gt;3 -->
<g id="edge11" class="edge">
<title>5&#45;&gt;3</title>
<path fill="none" stroke="black" d="M44.69,-263.71C25.04,-235.98 -7.72,-179.47 19.66,-141.75 93.7,-39.75 254.74,-20.88 340.32,-18.39"/>
<polygon fill="black" stroke="black" points="340.21,-21.87 350.13,-18.15 340.05,-14.87 340.21,-21.87"/>
<text text-anchor="middle" x="47.78" y="-144.2" font-family="Times New Roman,serif" font-size="14.00"> &#160;&#160;&#160;&#160;&#160;&#160;&#160;&#160;&#160;14 </text>
</g>
<!-- 7 -->
<g id="node7" class="node">
<title>7</title>
<ellipse fill="none" stroke="black" cx="157.41" cy="-193.5" rx="45.08" ry="18"/>
<text text-anchor="middle" x="157.41" y="-188.07" font-family="Times New Roman,serif" font-size="14.00"> &#160;&#160;&#160;&#160;&#160;&#160;&#160;&#160;&#160;&#160;7 </text>
</g>
<!-- 5&#45;&gt;7 -->
<g id="edge13" class="edge">
<title>5&#45;&gt;7</title>
<path fill="none" stroke="black" d="M60.42,-262.88C63.07,-252.11 67.94,-238.63 76.66,-229.5 85.73,-220 97.8,-212.94 109.85,-207.74"/>
<polygon fill="black" stroke="black" points="110.86,-210.71 118.9,-203.8 108.31,-204.19 110.86,-210.71"/>
<text text-anchor="middle" x="104.78" y="-231.95" font-family="Times New Roman,serif" font-size="14.00"> &#160;&#160;&#160;&#160;&#160;&#160;&#160;&#160;&#160;13 </text>
</g>
<!-- 6&#45;&gt;4 -->
<g id="edge15" class="edge">
<title>6&#45;&gt;4</title>
<path fill="none" stroke="black" d="M288.04,-124.14C283.88,-158.07 276.58,-235.36 286.66,-299.25 290.43,-323.13 297.52,-327.55 303.41,-351 309.87,-376.71 315.06,-406.5 318.37,-427.72"/>
<polygon fill="black" stroke="black" points="315.05,-428.18 320.01,-437.55 321.97,-427.13 315.05,-428.18"/>
<text text-anchor="middle" x="312.28" y="-275.82" font-family="Times New Roman,serif" font-size="14.00"> &#160;&#160;&#160;&#160;&#160;&#160;&#160;&#160;&#160;&#160;2 </text>
</g>
<!-- 6&#45;&gt;3 -->
<g id="edge16" class="edge">
<title>6&#45;&gt;3</title>
<path fill="none" stroke="black" d="M306.8,-88.57C317.52,-78.28 332.02,-64.88 345.66,-54 351.56,-49.29 358.06,-44.52 364.39,-40.08"/>
<polygon fill="black" stroke="black" points="366.18,-42.4 372.44,-33.85 362.22,-36.64 366.18,-42.4"/>
<text text-anchor="middle" x="372.78" y="-56.45" font-family="Times New Roman,serif" font-size="14.00"> &#160;&#160;&#160;&#160;&#160;&#160;&#160;&#160;&#160;18 </text>
</g>
<!-- 2&#45;&gt;5 -->
<g id="edge5" class="edge">
<title>2&#45;&gt;5</title>
<path fill="none" stroke="black" d="M220.25,-354.98C187.17,-340.2 133.06,-316.04 96.38,-299.66"/>
<polygon fill="black" stroke="black" points="98.09,-296.14 87.53,-295.26 95.23,-302.53 98.09,-296.14"/>
<text text-anchor="middle" x="197.28" y="-319.7" font-family="Times New Roman,serif" font-size="14.00"> &#160;&#160;&#160;&#160;&#160;&#160;&#160;&#160;&#160;&#160;2 </text>
</g>
<!-- 3&#45;&gt;1 -->
<g id="edge6" class="edge">
<title>3&#45;&gt;1</title>
<path fill="none" stroke="black" d="M439.17,-24.19C485.05,-32.42 551.41,-53.24 551.41,-104.75 551.41,-457.75 551.41,-457.75 551.41,-457.75 551.41,-509.05 389.5,-531.12 301.61,-539.32"/>
<polygon fill="black" stroke="black" points="301.4,-535.91 291.76,-540.29 302.03,-542.88 301.4,-535.91"/>
<text text-anchor="middle" x="578.78" y="-275.82" font-family="Times New Roman,serif" font-size="14.00"> &#160;&#160;&#160;&#160;&#160;&#160;&#160;&#160;&#160;12 </text>
</g>
<!-- 3&#45;&gt;4 -->
<g id="edge7" class="edge">
<title>3&#45;&gt;4</title>
<path fill="none" stroke="black" d="M398.52,-36.43C399.17,-42.04 399.85,-48.28 400.41,-54 408.64,-138.87 403.55,-160.84 415.66,-245.25 416.82,-253.34 418.57,-255.12 419.41,-263.25 421.05,-279.17 422.89,-283.63 419.41,-299.25 406.43,-357.47 398.28,-373.1 362.41,-420.75 359.09,-425.15 355.15,-429.41 351.05,-433.34"/>
<polygon fill="black" stroke="black" points="349.21,-430.19 344.1,-439.47 353.88,-435.4 349.21,-430.19"/>
<text text-anchor="middle" x="441.28" y="-231.95" font-family="Times New Roman,serif" font-size="14.00"> &#160;&#160;&#160;&#160;&#160;&#160;&#160;&#160;&#160;&#160;3 </text>
</g>
<!-- 7&#45;&gt;1 -->
<g id="edge17" class="edge">
<title>7&#45;&gt;1</title>
<path fill="none" stroke="black" d="M152.5,-211.83C143.63,-245.98 127.3,-324.09 143.66,-387 159.21,-446.84 174.14,-459.17 211.41,-508.5 214.34,-512.38 217.69,-516.26 221.13,-519.95"/>
<polygon fill="black" stroke="black" points="218.17,-521.95 227.67,-526.64 223.17,-517.05 218.17,-521.95"/>
<text text-anchor="middle" x="170.28" y="-363.57" font-family="Times New Roman,serif" font-size="14.00"> &#160;&#160;&#160;&#160;&#160;&#160;&#160;&#160;&#160;&#160;4 </text>
</g>
<!-- 7&#45;&gt;6 -->
<g id="edge18" class="edge">
<title>7&#45;&gt;6</title>
<path fill="none" stroke="black" d="M170.23,-176.17C179.44,-165.29 192.66,-151.29 206.66,-141.75 218.59,-133.62 232.72,-126.82 245.93,-121.45"/>
<polygon fill="black" stroke="black" points="246.75,-124.5 254.81,-117.62 244.22,-117.97 246.75,-124.5"/>
<text text-anchor="middle" x="233.28" y="-144.2" font-family="Times New Roman,serif" font-size="14.00"> &#160;&#160;&#160;&#160;&#160;&#160;&#160;&#160;&#160;&#160;8 </text>
</g>
</g>
</svg>
