<?xml version="1.0" encoding="UTF-8" standalone="no"?>
<!DOCTYPE svg PUBLIC "-//W3C//DTD SVG 1.1//EN"
 "http://www.w3.org/Graphics/SVG/1.1/DTD/svg11.dtd">
<!-- Generated by graphviz version 8.1.0 (20230707.0739)
 -->
<!-- Title: G Pages: 1 -->
<svg width="602pt" height="658pt"
 viewBox="0.00 0.00 601.75 658.25" xmlns="http://www.w3.org/2000/svg" xmlns:xlink="http://www.w3.org/1999/xlink">
<g id="graph0" class="graph" transform="scale(1 1) rotate(0) translate(4 654.25)">
<title>G</title>
<polygon fill="white" stroke="none" points="-4,4 -4,-654.25 597.75,-654.25 597.75,4 -4,4"/>
<!-- 1 -->
<g id="node1" class="node">
<title>1</title>
<ellipse fill="none" stroke="black" cx="298" cy="-632.25" rx="45.08" ry="18"/>
<text text-anchor="middle" x="298" y="-626.83" font-family="Times New Roman,serif" font-size="14.00"> &#160;&#160;&#160;&#160;&#160;&#160;&#160;&#160;&#160;&#160;1 </text>
</g>
<!-- 4 -->
<g id="node2" class="node">
<title>4</title>
<ellipse fill="none" stroke="black" cx="133" cy="-544.5" rx="45.08" ry="18"/>
<text text-anchor="middle" x="133" y="-539.08" font-family="Times New Roman,serif" font-size="14.00"> &#160;&#160;&#160;&#160;&#160;&#160;&#160;&#160;&#160;&#160;4 </text>
</g>
<!-- 1&#45;&gt;4 -->
<g id="edge1" class="edge">
<title>1&#45;&gt;4</title>
<path fill="none" stroke="black" d="M265.09,-619.46C249.09,-613.28 229.79,-605.15 213.25,-596.25 202.26,-590.34 200.49,-587.27 190,-580.5 182.44,-575.62 174.23,-570.49 166.46,-565.7"/>
<polygon fill="black" stroke="black" points="168.63,-562.32 158.28,-560.08 164.98,-568.29 168.63,-562.32"/>
<text text-anchor="middle" x="238.88" y="-582.95" font-family="Times New Roman,serif" font-size="14.00"> &#160;&#160;&#160;&#160;&#160;&#160;&#160;&#160;&#160;&#160;7 </text>
</g>
<!-- 1&#45;&gt;4 -->
<g id="edge3" class="edge">
<title>1&#45;&gt;4</title>
<path fill="none" stroke="black" d="M252.57,-631.22C191.33,-630.1 87.19,-624.03 63.25,-596.25 50.9,-581.92 67.72,-569.37 87.93,-560.34"/>
<polygon fill="black" stroke="black" points="89.1,-563.24 97.02,-556.2 86.44,-556.76 89.1,-563.24"/>
<text text-anchor="middle" x="89.88" y="-582.95" font-family="Times New Roman,serif" font-size="14.00"> &#160;&#160;&#160;&#160;&#160;&#160;&#160;&#160;&#160;&#160;7 </text>
</g>
<!-- 5 -->
<g id="node3" class="node">
<title>5</title>
<ellipse fill="none" stroke="black" cx="322" cy="-369" rx="45.08" ry="18"/>
<text text-anchor="middle" x="322" y="-363.57" font-family="Times New Roman,serif" font-size="14.00"> &#160;&#160;&#160;&#160;&#160;&#160;&#160;&#160;&#160;&#160;5 </text>
</g>
<!-- 1&#45;&gt;5 -->
<g id="edge2" class="edge">
<title>1&#45;&gt;5</title>
<path fill="none" stroke="black" d="M299.57,-614.11C303.63,-570.01 314.44,-452.29 319.42,-398.06"/>
<polygon fill="black" stroke="black" points="322.99,-398.48 320.42,-388.2 316.02,-397.84 322.99,-398.48"/>
<text text-anchor="middle" x="335.88" y="-495.2" font-family="Times New Roman,serif" font-size="14.00"> &#160;&#160;&#160;&#160;&#160;&#160;&#160;&#160;&#160;&#160;3 </text>
</g>
<!-- 6 -->
<g id="node4" class="node">
<title>6</title>
<ellipse fill="none" stroke="black" cx="196" cy="-193.5" rx="45.08" ry="18"/>
<text text-anchor="middle" x="196" y="-188.07" font-family="Times New Roman,serif" font-size="14.00"> &#160;&#160;&#160;&#160;&#160;&#160;&#160;&#160;&#160;&#160;6 </text>
</g>
<!-- 1&#45;&gt;6 -->
<g id="edge4" class="edge">
<title>1&#45;&gt;6</title>
<path fill="none" stroke="black" d="M294.95,-613.92C288.91,-580.1 274.74,-503 260,-438.75 250.41,-396.98 218.14,-276.53 203.42,-221.95"/>
<polygon fill="black" stroke="black" points="206.63,-221.4 200.64,-212.66 199.87,-223.23 206.63,-221.4"/>
<text text-anchor="middle" x="282.38" y="-407.45" font-family="Times New Roman,serif" font-size="14.00"> &#160;&#160;&#160;&#160;&#160;&#160;&#160;&#160;&#160;11 </text>
</g>
<!-- 4&#45;&gt;1 -->
<g id="edge10" class="edge">
<title>4&#45;&gt;1</title>
<path fill="none" stroke="black" d="M128.44,-562.9C126.72,-573.68 126.71,-587.16 134.25,-596.25 148.08,-612.92 201.3,-622.05 243.36,-626.76"/>
<polygon fill="black" stroke="black" points="242.75,-630.32 253.06,-627.89 243.48,-623.36 242.75,-630.32"/>
<text text-anchor="middle" x="160.88" y="-582.95" font-family="Times New Roman,serif" font-size="14.00"> &#160;&#160;&#160;&#160;&#160;&#160;&#160;&#160;&#160;&#160;7 </text>
</g>
<!-- 4&#45;&gt;6 -->
<g id="edge9" class="edge">
<title>4&#45;&gt;6</title>
<path fill="none" stroke="black" d="M111.39,-528.47C92.14,-513.14 67,-487.43 67,-457.75 67,-457.75 67,-457.75 67,-280.25 67,-240.31 110.43,-217.85 146.89,-206.03"/>
<polygon fill="black" stroke="black" points="147.4,-209.23 155.95,-202.97 145.36,-202.53 147.4,-209.23"/>
<text text-anchor="middle" x="94.38" y="-363.57" font-family="Times New Roman,serif" font-size="14.00"> &#160;&#160;&#160;&#160;&#160;&#160;&#160;&#160;&#160;12 </text>
</g>
<!-- 2 -->
<g id="node5" class="node">
<title>2</title>
<ellipse fill="none" stroke="black" cx="206" cy="-456.75" rx="45.08" ry="18"/>
<text text-anchor="middle" x="206" y="-451.32" font-family="Times New Roman,serif" font-size="14.00"> &#160;&#160;&#160;&#160;&#160;&#160;&#160;&#160;&#160;&#160;2 </text>
</g>
<!-- 4&#45;&gt;2 -->
<g id="edge8" class="edge">
<title>4&#45;&gt;2</title>
<path fill="none" stroke="black" d="M147.08,-526.97C157.88,-514.27 172.97,-496.55 185.17,-482.22"/>
<polygon fill="black" stroke="black" points="188.15,-485.12 191.97,-475.23 182.82,-480.58 188.15,-485.12"/>
<text text-anchor="middle" x="202.88" y="-495.2" font-family="Times New Roman,serif" font-size="14.00"> &#160;&#160;&#160;&#160;&#160;&#160;&#160;&#160;&#160;&#160;5 </text>
</g>
<!-- 5&#45;&gt;1 -->
<g id="edge12" class="edge">
<title>5&#45;&gt;1</title>
<path fill="none" stroke="black" d="M333.51,-386.46C350.11,-412.23 377.55,-463.8 366,-508.5 356.58,-544.94 333.77,-582.1 317.15,-605.84"/>
<polygon fill="black" stroke="black" points="313.89,-603.39 310.91,-613.56 319.58,-607.47 313.89,-603.39"/>
<text text-anchor="middle" x="395.38" y="-495.2" font-family="Times New Roman,serif" font-size="14.00"> &#160;&#160;&#160;&#160;&#160;&#160;&#160;&#160;&#160;10 </text>
</g>
<!-- 5&#45;&gt;6 -->
<g id="edge14" class="edge">
<title>5&#45;&gt;6</title>
<path fill="none" stroke="black" d="M304.59,-352.06C290.58,-338.74 270.9,-318.82 256.25,-299.25 237.58,-274.31 220.3,-243.06 209.08,-221.21"/>
<polygon fill="black" stroke="black" points="211.85,-219.95 204.22,-212.6 205.61,-223.11 211.85,-219.95"/>
<text text-anchor="middle" x="281.88" y="-275.82" font-family="Times New Roman,serif" font-size="14.00"> &#160;&#160;&#160;&#160;&#160;&#160;&#160;&#160;&#160;&#160;4 </text>
</g>
<!-- 3 -->
<g id="node6" class="node">
<title>3</title>
<ellipse fill="none" stroke="black" cx="184" cy="-105.75" rx="45.08" ry="18"/>
<text text-anchor="middle" x="184" y="-100.33" font-family="Times New Roman,serif" font-size="14.00"> &#160;&#160;&#160;&#160;&#160;&#160;&#160;&#160;&#160;&#160;3 </text>
</g>
<!-- 5&#45;&gt;3 -->
<g id="edge11" class="edge">
<title>5&#45;&gt;3</title>
<path fill="none" stroke="black" d="M322.82,-350.78C323.16,-329.26 321.47,-291.79 308,-263.25 303.33,-253.37 297.09,-254.48 291.25,-245.25 264.76,-203.41 283.07,-178.61 250,-141.75 243.46,-134.46 235.02,-128.42 226.39,-123.53"/>
<polygon fill="black" stroke="black" points="228.14,-119.98 217.65,-118.5 224.92,-126.2 228.14,-119.98"/>
<text text-anchor="middle" x="318.38" y="-231.95" font-family="Times New Roman,serif" font-size="14.00"> &#160;&#160;&#160;&#160;&#160;&#160;&#160;&#160;&#160;14 </text>
</g>
<!-- 7 -->
<g id="node8" class="node">
<title>7</title>
<ellipse fill="none" stroke="black" cx="451" cy="-281.25" rx="45.08" ry="18"/>
<text text-anchor="middle" x="451" y="-275.82" font-family="Times New Roman,serif" font-size="14.00"> &#160;&#160;&#160;&#160;&#160;&#160;&#160;&#160;&#160;&#160;7 </text>
</g>
<!-- 5&#45;&gt;7 -->
<g id="edge13" class="edge">
<title>5&#45;&gt;7</title>
<path fill="none" stroke="black" d="M342.61,-352.71C356.68,-342.42 375.87,-328.69 393.25,-317.25 400.84,-312.26 409.13,-307.08 416.99,-302.29"/>
<polygon fill="black" stroke="black" points="418.55,-304.83 425.3,-296.67 414.93,-298.84 418.55,-304.83"/>
<text text-anchor="middle" x="420.38" y="-319.7" font-family="Times New Roman,serif" font-size="14.00"> &#160;&#160;&#160;&#160;&#160;&#160;&#160;&#160;&#160;13 </text>
</g>
<!-- 6&#45;&gt;4 -->
<g id="edge15" class="edge">
<title>6&#45;&gt;4</title>
<path fill="none" stroke="black" d="M188.23,-211.68C185.95,-217.27 183.63,-223.57 182,-229.5 153.66,-332.83 140.12,-460.07 135.23,-515.49"/>
<polygon fill="black" stroke="black" points="131.68,-514.93 134.32,-525.2 138.66,-515.53 131.68,-514.93"/>
<text text-anchor="middle" x="181.88" y="-363.57" font-family="Times New Roman,serif" font-size="14.00"> &#160;&#160;&#160;&#160;&#160;&#160;&#160;&#160;&#160;&#160;2 </text>
</g>
<!-- 6&#45;&gt;3 -->
<g id="edge16" class="edge">
<title>6&#45;&gt;3</title>
<path fill="none" stroke="black" d="M193.57,-175.15C191.95,-163.52 189.77,-147.97 187.9,-134.63"/>
<polygon fill="black" stroke="black" points="191.28,-134.5 186.42,-125.08 184.34,-135.47 191.28,-134.5"/>
<text text-anchor="middle" x="218.38" y="-144.2" font-family="Times New Roman,serif" font-size="14.00"> &#160;&#160;&#160;&#160;&#160;&#160;&#160;&#160;&#160;18 </text>
</g>
<!-- 9 -->
<g id="node7" class="node">
<title>9</title>
<ellipse fill="none" stroke="black" cx="265" cy="-18" rx="45.08" ry="18"/>
<text text-anchor="middle" x="265" y="-12.57" font-family="Times New Roman,serif" font-size="14.00"> &#160;&#160;&#160;&#160;&#160;&#160;&#160;&#160;&#160;&#160;9 </text>
</g>
<!-- 6&#45;&gt;9 -->
<g id="edge17" class="edge">
<title>6&#45;&gt;9</title>
<path fill="none" stroke="black" d="M225.76,-179.61C235,-174.14 244.26,-166.82 250,-157.5 270.71,-123.86 271.1,-76.77 268.67,-47.09"/>
<polygon fill="black" stroke="black" points="272.06,-46.86 267.59,-37.26 265.1,-47.56 272.06,-46.86"/>
<text text-anchor="middle" x="296.38" y="-100.33" font-family="Times New Roman,serif" font-size="14.00"> &#160;&#160;&#160;&#160;&#160;&#160;&#160;&#160;&#160;14 </text>
</g>
<!-- 2&#45;&gt;5 -->
<g id="edge5" class="edge">
<title>2&#45;&gt;5</title>
<path fill="none" stroke="black" d="M185.81,-440.57C174.48,-430.2 164.27,-416.34 173.25,-405 179.47,-397.15 230.11,-386.38 270.6,-378.87"/>
<polygon fill="black" stroke="black" points="270.96,-382.18 280.17,-376.94 269.71,-375.29 270.96,-382.18"/>
<text text-anchor="middle" x="199.88" y="-407.45" font-family="Times New Roman,serif" font-size="14.00"> &#160;&#160;&#160;&#160;&#160;&#160;&#160;&#160;&#160;&#160;2 </text>
</g>
<!-- 3&#45;&gt;4 -->
<g id="edge7" class="edge">
<title>3&#45;&gt;4</title>
<path fill="none" stroke="black" d="M139.46,-108.63C85,-113.6 0,-131.18 0,-192.5 0,-457.75 0,-457.75 0,-457.75 0,-498.81 45.33,-521.15 83.06,-532.64"/>
<polygon fill="black" stroke="black" points="81.88,-536.23 92.46,-535.6 83.8,-529.49 81.88,-536.23"/>
<text text-anchor="middle" x="25.88" y="-319.7" font-family="Times New Roman,serif" font-size="14.00"> &#160;&#160;&#160;&#160;&#160;&#160;&#160;&#160;&#160;&#160;3 </text>
</g>
<!-- 3&#45;&gt;9 -->
<g id="edge6" class="edge">
<title>3&#45;&gt;9</title>
<path fill="none" stroke="black" d="M184.57,-87.65C185.72,-76.99 188.72,-63.53 196.25,-54 202.66,-45.89 211.45,-39.48 220.61,-34.5"/>
<polygon fill="black" stroke="black" points="221.76,-37.34 229.2,-29.8 218.68,-31.06 221.76,-37.34"/>
<text text-anchor="middle" x="223.38" y="-56.45" font-family="Times New Roman,serif" font-size="14.00"> &#160;&#160;&#160;&#160;&#160;&#160;&#160;&#160;&#160;12 </text>
</g>
<!-- 9&#45;&gt;5 -->
<g id="edge22" class="edge">
<title>9&#45;&gt;5</title>
<path fill="none" stroke="black" d="M295.84,-31.52C323.58,-45.05 360,-69.53 360,-104.75 360,-238.38 360,-238.38 360,-238.38 360,-275.06 345.81,-315.32 334.77,-341.08"/>
<polygon fill="black" stroke="black" points="331.29,-339.3 330.43,-349.86 337.69,-342.14 331.29,-339.3"/>
<text text-anchor="middle" x="387.38" y="-188.07" font-family="Times New Roman,serif" font-size="14.00"> &#160;&#160;&#160;&#160;&#160;&#160;&#160;&#160;&#160;24 </text>
</g>
<!-- 7&#45;&gt;1 -->
<g id="edge18" class="edge">
<title>7&#45;&gt;1</title>
<path fill="none" stroke="black" d="M454.54,-299.58C457.76,-316.84 462,-344.14 462,-368 462,-545.5 462,-545.5 462,-545.5 462,-596.13 399.86,-616.92 352.08,-625.42"/>
<polygon fill="black" stroke="black" points="351.82,-622.08 342.52,-627.15 352.95,-628.99 351.82,-622.08"/>
<text text-anchor="middle" x="487.88" y="-451.32" font-family="Times New Roman,serif" font-size="14.00"> &#160;&#160;&#160;&#160;&#160;&#160;&#160;&#160;&#160;&#160;4 </text>
</g>
<!-- 7&#45;&gt;6 -->
<g id="edge19" class="edge">
<title>7&#45;&gt;6</title>
<path fill="none" stroke="black" d="M426.16,-265.81C405.95,-254.57 376.38,-239.29 349,-229.5 316.21,-217.78 278.02,-209.04 248.01,-203.22"/>
<polygon fill="black" stroke="black" points="248.82,-199.62 238.34,-201.21 247.52,-206.5 248.82,-199.62"/>
<text text-anchor="middle" x="408.88" y="-231.95" font-family="Times New Roman,serif" font-size="14.00"> &#160;&#160;&#160;&#160;&#160;&#160;&#160;&#160;&#160;&#160;8 </text>
</g>
<!-- 8 -->
<g id="node9" class="node">
<title>8</title>
<ellipse fill="none" stroke="black" cx="506" cy="-193.5" rx="45.08" ry="18"/>
<text text-anchor="middle" x="506" y="-188.07" font-family="Times New Roman,serif" font-size="14.00"> &#160;&#160;&#160;&#160;&#160;&#160;&#160;&#160;&#160;&#160;8 </text>
</g>
<!-- 7&#45;&gt;8 -->
<g id="edge20" class="edge">
<title>7&#45;&gt;8</title>
<path fill="none" stroke="black" d="M458.21,-263.23C462.8,-253.1 469.21,-240.18 476.25,-229.5 478.6,-225.93 481.28,-222.32 484.03,-218.85"/>
<polygon fill="black" stroke="black" points="487.2,-221.51 490.91,-211.58 481.82,-217.03 487.2,-221.51"/>
<text text-anchor="middle" x="501.88" y="-231.95" font-family="Times New Roman,serif" font-size="14.00"> &#160;&#160;&#160;&#160;&#160;&#160;&#160;&#160;&#160;&#160;3 </text>
</g>
<!-- 8&#45;&gt;1 -->
<g id="edge21" class="edge">
<title>8&#45;&gt;1</title>
<path fill="none" stroke="black" d="M517.79,-211.36C528.29,-228.05 542,-254.74 542,-280.25 542,-545.5 542,-545.5 542,-545.5 542,-585.7 422.63,-611.62 350.87,-623.56"/>
<polygon fill="black" stroke="black" points="350.53,-620.23 341.22,-625.29 351.65,-627.14 350.53,-620.23"/>
<text text-anchor="middle" x="567.88" y="-407.45" font-family="Times New Roman,serif" font-size="14.00"> &#160;&#160;&#160;&#160;&#160;&#160;&#160;&#160;&#160;&#160;8 </text>
</g>
</g>
</svg>
