<?xml version="1.0" encoding="UTF-8" standalone="no"?>
<!DOCTYPE svg PUBLIC "-//W3C//DTD SVG 1.1//EN"
 "http://www.w3.org/Graphics/SVG/1.1/DTD/svg11.dtd">
<!-- Generated by graphviz version 8.1.0 (20230707.0739)
 -->
<!-- Title: HashTable Pages: 1 -->
<svg width="607pt" height="60pt"
 viewBox="0.00 0.00 607.00 60.00" xmlns="http://www.w3.org/2000/svg" xmlns:xlink="http://www.w3.org/1999/xlink">
<g id="graph0" class="graph" transform="scale(1 1) rotate(0) translate(4 56)">
<title>HashTable</title>
<polygon fill="white" stroke="none" points="-4,4 -4,-56 603,-56 603,4 -4,4"/>
<!-- hash_table -->
<g id="node1" class="node">
<title>hash_table</title>
<polygon fill="none" stroke="black" points="9,-26 9,-47 61,-47 61,-26 9,-26"/>
<polygon fill="none" stroke="black" points="61,-26 61,-47 87,-47 87,-26 61,-26"/>
<text text-anchor="start" x="70.62" y="-30.7" font-family="Times New Roman,serif" font-size="14.00">0</text>
<polygon fill="none" stroke="black" points="87,-26 87,-47 104,-47 104,-26 87,-26"/>
<text text-anchor="start" x="92.12" y="-30.7" font-family="Times New Roman,serif" font-size="14.00">1</text>
<polygon fill="none" stroke="black" points="104,-26 104,-47 116,-47 116,-26 104,-26"/>
<text text-anchor="start" x="106.62" y="-30.7" font-family="Times New Roman,serif" font-size="14.00">2</text>
<polygon fill="none" stroke="black" points="116,-26 116,-47 135,-47 135,-26 116,-26"/>
<text text-anchor="start" x="122.12" y="-30.7" font-family="Times New Roman,serif" font-size="14.00">3</text>
<polygon fill="none" stroke="black" points="135,-26 135,-47 154,-47 154,-26 135,-26"/>
<text text-anchor="start" x="141.12" y="-30.7" font-family="Times New Roman,serif" font-size="14.00">4</text>
<polygon fill="none" stroke="black" points="154,-26 154,-47 171,-47 171,-26 154,-26"/>
<text text-anchor="start" x="159.12" y="-30.7" font-family="Times New Roman,serif" font-size="14.00">5</text>
<polygon fill="none" stroke="black" points="171,-26 171,-47 188,-47 188,-26 171,-26"/>
<text text-anchor="start" x="176.12" y="-30.7" font-family="Times New Roman,serif" font-size="14.00">6</text>
<polygon fill="none" stroke="black" points="188,-26 188,-47 207,-47 207,-26 188,-26"/>
<text text-anchor="start" x="194.12" y="-30.7" font-family="Times New Roman,serif" font-size="14.00">7</text>
<polygon fill="none" stroke="black" points="207,-26 207,-47 224,-47 224,-26 207,-26"/>
<text text-anchor="start" x="212.12" y="-30.7" font-family="Times New Roman,serif" font-size="14.00">8</text>
<polygon fill="none" stroke="black" points="224,-26 224,-47 241,-47 241,-26 224,-26"/>
<text text-anchor="start" x="229.12" y="-30.7" font-family="Times New Roman,serif" font-size="14.00">9</text>
<polygon fill="none" stroke="black" points="241,-26 241,-47 260,-47 260,-26 241,-26"/>
<text text-anchor="start" x="243.75" y="-30.7" font-family="Times New Roman,serif" font-size="14.00">10</text>
<polygon fill="none" stroke="black" points="260,-26 260,-47 279,-47 279,-26 260,-26"/>
<text text-anchor="start" x="262.75" y="-30.7" font-family="Times New Roman,serif" font-size="14.00">11</text>
<polygon fill="none" stroke="black" points="279,-26 279,-47 298,-47 298,-26 279,-26"/>
<text text-anchor="start" x="281.75" y="-30.7" font-family="Times New Roman,serif" font-size="14.00">12</text>
<polygon fill="none" stroke="black" points="298,-26 298,-47 317,-47 317,-26 298,-26"/>
<text text-anchor="start" x="300.75" y="-30.7" font-family="Times New Roman,serif" font-size="14.00">13</text>
<polygon fill="none" stroke="black" points="317,-26 317,-47 336,-47 336,-26 317,-26"/>
<text text-anchor="start" x="319.75" y="-30.7" font-family="Times New Roman,serif" font-size="14.00">14</text>
<polygon fill="none" stroke="black" points="336,-26 336,-47 355,-47 355,-26 336,-26"/>
<text text-anchor="start" x="338.75" y="-30.7" font-family="Times New Roman,serif" font-size="14.00">15</text>
<polygon fill="none" stroke="black" points="355,-26 355,-47 374,-47 374,-26 355,-26"/>
<text text-anchor="start" x="357.75" y="-30.7" font-family="Times New Roman,serif" font-size="14.00">16</text>
<polygon fill="none" stroke="black" points="374,-26 374,-47 400,-47 400,-26 374,-26"/>
<text text-anchor="start" x="380.25" y="-30.7" font-family="Times New Roman,serif" font-size="14.00">17</text>
<polygon fill="none" stroke="black" points="400,-26 400,-47 419,-47 419,-26 400,-26"/>
<text text-anchor="start" x="402.75" y="-30.7" font-family="Times New Roman,serif" font-size="14.00">18</text>
<polygon fill="none" stroke="black" points="419,-26 419,-47 438,-47 438,-26 419,-26"/>
<text text-anchor="start" x="421.75" y="-30.7" font-family="Times New Roman,serif" font-size="14.00">19</text>
<polygon fill="none" stroke="black" points="438,-26 438,-47 457,-47 457,-26 438,-26"/>
<text text-anchor="start" x="440.75" y="-30.7" font-family="Times New Roman,serif" font-size="14.00">20</text>
<polygon fill="none" stroke="black" points="457,-26 457,-47 476,-47 476,-26 457,-26"/>
<text text-anchor="start" x="459.75" y="-30.7" font-family="Times New Roman,serif" font-size="14.00">21</text>
<polygon fill="none" stroke="black" points="476,-26 476,-47 495,-47 495,-26 476,-26"/>
<text text-anchor="start" x="478.75" y="-30.7" font-family="Times New Roman,serif" font-size="14.00">22</text>
<polygon fill="none" stroke="black" points="495,-26 495,-47 514,-47 514,-26 495,-26"/>
<text text-anchor="start" x="497.75" y="-30.7" font-family="Times New Roman,serif" font-size="14.00">23</text>
<polygon fill="none" stroke="black" points="514,-26 514,-47 533,-47 533,-26 514,-26"/>
<text text-anchor="start" x="516.75" y="-30.7" font-family="Times New Roman,serif" font-size="14.00">24</text>
<polygon fill="none" stroke="black" points="533,-26 533,-47 552,-47 552,-26 533,-26"/>
<text text-anchor="start" x="535.75" y="-30.7" font-family="Times New Roman,serif" font-size="14.00">25</text>
<polygon fill="none" stroke="black" points="552,-26 552,-47 571,-47 571,-26 552,-26"/>
<text text-anchor="start" x="554.75" y="-30.7" font-family="Times New Roman,serif" font-size="14.00">26</text>
<polygon fill="none" stroke="black" points="571,-26 571,-47 590,-47 590,-26 571,-26"/>
<text text-anchor="start" x="573.75" y="-30.7" font-family="Times New Roman,serif" font-size="14.00">27</text>
<polygon fill="none" stroke="black" points="9,-5 9,-26 61,-26 61,-5 9,-5"/>
<text text-anchor="start" x="11.75" y="-9.7" font-family="Times New Roman,serif" font-size="14.00">tecnicos</text>
<polygon fill="none" stroke="black" points="61,-5 61,-26 87,-26 87,-5 61,-5"/>
<text text-anchor="start" x="63.88" y="-9.7" font-family="Times New Roman,serif" font-size="14.00">500</text>
<polygon fill="none" stroke="black" points="87,-5 87,-26 104,-26 104,-5 87,-5"/>
<text text-anchor="start" x="89.88" y="-9.7" font-family="Times New Roman,serif" font-size="14.00">&#45;1</text>
<polygon fill="none" stroke="black" points="104,-5 104,-26 116,-26 116,-5 104,-5"/>
<text text-anchor="start" x="106.62" y="-9.7" font-family="Times New Roman,serif" font-size="14.00">5</text>
<polygon fill="none" stroke="black" points="116,-5 116,-26 135,-26 135,-5 116,-5"/>
<text text-anchor="start" x="118.75" y="-9.7" font-family="Times New Roman,serif" font-size="14.00">18</text>
<polygon fill="none" stroke="black" points="135,-5 135,-26 154,-26 154,-5 135,-5"/>
<text text-anchor="start" x="137.75" y="-9.7" font-family="Times New Roman,serif" font-size="14.00">60</text>
<polygon fill="none" stroke="black" points="154,-5 154,-26 171,-26 171,-5 154,-5"/>
<text text-anchor="start" x="156.88" y="-9.7" font-family="Times New Roman,serif" font-size="14.00">&#45;1</text>
<polygon fill="none" stroke="black" points="171,-5 171,-26 188,-26 188,-5 171,-5"/>
<text text-anchor="start" x="173.88" y="-9.7" font-family="Times New Roman,serif" font-size="14.00">&#45;1</text>
<polygon fill="none" stroke="black" points="188,-5 188,-26 207,-26 207,-5 188,-5"/>
<text text-anchor="start" x="190.75" y="-9.7" font-family="Times New Roman,serif" font-size="14.00">70</text>
<polygon fill="none" stroke="black" points="207,-5 207,-26 224,-26 224,-5 207,-5"/>
<text text-anchor="start" x="209.88" y="-9.7" font-family="Times New Roman,serif" font-size="14.00">&#45;1</text>
<polygon fill="none" stroke="black" points="224,-5 224,-26 241,-26 241,-5 224,-5"/>
<text text-anchor="start" x="226.88" y="-9.7" font-family="Times New Roman,serif" font-size="14.00">&#45;1</text>
<polygon fill="none" stroke="black" points="241,-5 241,-26 260,-26 260,-5 241,-5"/>
<text text-anchor="start" x="244.88" y="-9.7" font-family="Times New Roman,serif" font-size="14.00">&#45;1</text>
<polygon fill="none" stroke="black" points="260,-5 260,-26 279,-26 279,-5 260,-5"/>
<text text-anchor="start" x="263.88" y="-9.7" font-family="Times New Roman,serif" font-size="14.00">&#45;1</text>
<polygon fill="none" stroke="black" points="279,-5 279,-26 298,-26 298,-5 279,-5"/>
<text text-anchor="start" x="282.88" y="-9.7" font-family="Times New Roman,serif" font-size="14.00">&#45;1</text>
<polygon fill="none" stroke="black" points="298,-5 298,-26 317,-26 317,-5 298,-5"/>
<text text-anchor="start" x="301.88" y="-9.7" font-family="Times New Roman,serif" font-size="14.00">&#45;1</text>
<polygon fill="none" stroke="black" points="317,-5 317,-26 336,-26 336,-5 317,-5"/>
<text text-anchor="start" x="320.88" y="-9.7" font-family="Times New Roman,serif" font-size="14.00">&#45;1</text>
<polygon fill="none" stroke="black" points="336,-5 336,-26 355,-26 355,-5 336,-5"/>
<text text-anchor="start" x="339.88" y="-9.7" font-family="Times New Roman,serif" font-size="14.00">&#45;1</text>
<polygon fill="none" stroke="black" points="355,-5 355,-26 374,-26 374,-5 355,-5"/>
<text text-anchor="start" x="358.88" y="-9.7" font-family="Times New Roman,serif" font-size="14.00">&#45;1</text>
<polygon fill="none" stroke="black" points="374,-5 374,-26 400,-26 400,-5 374,-5"/>
<text text-anchor="start" x="376.88" y="-9.7" font-family="Times New Roman,serif" font-size="14.00">522</text>
<polygon fill="none" stroke="black" points="400,-5 400,-26 419,-26 419,-5 400,-5"/>
<text text-anchor="start" x="406.12" y="-9.7" font-family="Times New Roman,serif" font-size="14.00">1</text>
<polygon fill="none" stroke="black" points="419,-5 419,-26 438,-26 438,-5 419,-5"/>
<text text-anchor="start" x="425.12" y="-9.7" font-family="Times New Roman,serif" font-size="14.00">1</text>
<polygon fill="none" stroke="black" points="438,-5 438,-26 457,-26 457,-5 438,-5"/>
<text text-anchor="start" x="441.88" y="-9.7" font-family="Times New Roman,serif" font-size="14.00">&#45;1</text>
<polygon fill="none" stroke="black" points="457,-5 457,-26 476,-26 476,-5 457,-5"/>
<text text-anchor="start" x="460.88" y="-9.7" font-family="Times New Roman,serif" font-size="14.00">&#45;1</text>
<polygon fill="none" stroke="black" points="476,-5 476,-26 495,-26 495,-5 476,-5"/>
<text text-anchor="start" x="479.88" y="-9.7" font-family="Times New Roman,serif" font-size="14.00">&#45;1</text>
<polygon fill="none" stroke="black" points="495,-5 495,-26 514,-26 514,-5 495,-5"/>
<text text-anchor="start" x="498.88" y="-9.7" font-family="Times New Roman,serif" font-size="14.00">&#45;1</text>
<polygon fill="none" stroke="black" points="514,-5 514,-26 533,-26 533,-5 514,-5"/>
<text text-anchor="start" x="516.75" y="-9.7" font-family="Times New Roman,serif" font-size="14.00">16</text>
<polygon fill="none" stroke="black" points="533,-5 533,-26 552,-26 552,-5 533,-5"/>
<text text-anchor="start" x="535.75" y="-9.7" font-family="Times New Roman,serif" font-size="14.00">29</text>
<polygon fill="none" stroke="black" points="552,-5 552,-26 571,-26 571,-5 552,-5"/>
<text text-anchor="start" x="554.75" y="-9.7" font-family="Times New Roman,serif" font-size="14.00">42</text>
<polygon fill="none" stroke="black" points="571,-5 571,-26 590,-26 590,-5 571,-5"/>
<text text-anchor="start" x="574.88" y="-9.7" font-family="Times New Roman,serif" font-size="14.00">&#45;1</text>
<polygon fill="none" stroke="black" points="8,-4 8,-48 591,-48 591,-4 8,-4"/>
</g>
</g>
</svg>
