<?xml version="1.0" encoding="UTF-8" standalone="no"?>
<!DOCTYPE svg PUBLIC "-//W3C//DTD SVG 1.1//EN"
 "http://www.w3.org/Graphics/SVG/1.1/DTD/svg11.dtd">
<!-- Generated by graphviz version 8.1.0 (20230707.0739)
 -->
<!-- Pages: 1 -->
<svg width="2096pt" height="260pt"
 viewBox="0.00 0.00 2096.25 260.00" xmlns="http://www.w3.org/2000/svg" xmlns:xlink="http://www.w3.org/1999/xlink">
<g id="graph0" class="graph" transform="scale(1 1) rotate(0) translate(4 256)">
<polygon fill="white" stroke="none" points="-4,4 -4,-256 2092.25,-256 2092.25,4 -4,4"/>
<!-- 5 -->
<g id="node1" class="node">
<title>5</title>
<polygon fill="lightgreen" stroke="black" points="1289.75,-252 775,-252 775,-216 1289.75,-216 1289.75,-252"/>
<text text-anchor="middle" x="1032.38" y="-228.57" font-family="Times New Roman,serif" font-size="14.00">3A3E3569C2F7B043E219DC538A8AC8FC4C2DDAB452BAF389277EF600AD8E81D7</text>
</g>
<!-- 6 -->
<g id="node2" class="node">
<title>6</title>
<polygon fill="lightgreen" stroke="black" points="1027,-180 513.75,-180 513.75,-144 1027,-144 1027,-180"/>
<text text-anchor="middle" x="770.38" y="-156.57" font-family="Times New Roman,serif" font-size="14.00">2AA08DCAFFF12FD4D3C35EF9CBE238FBF979B321567192FD8D521F1D3C6153A7</text>
</g>
<!-- 5&#45;&#45;6 -->
<g id="edge1" class="edge">
<title>5&#45;&#45;6</title>
<path fill="none" stroke="black" d="M966.94,-215.52C926.77,-204.79 875.53,-191.09 835.43,-180.38"/>
</g>
<!-- 9 -->
<g id="node3" class="node">
<title>9</title>
<polygon fill="lightgreen" stroke="black" points="1537.38,-180 1053.38,-180 1053.38,-144 1537.38,-144 1537.38,-180"/>
<text text-anchor="middle" x="1295.38" y="-156.57" font-family="Times New Roman,serif" font-size="14.00">E237594D24812D3F41792092782CCE3B6309B675374C3C72423694F68A9AF185</text>
</g>
<!-- 5&#45;&#45;9 -->
<g id="edge2" class="edge">
<title>5&#45;&#45;9</title>
<path fill="none" stroke="black" d="M1098.06,-215.52C1138.38,-204.79 1189.82,-191.09 1230.07,-180.38"/>
</g>
<!-- 7 -->
<g id="node4" class="node">
<title>7</title>
<polygon fill="lightgreen" stroke="black" points="502.75,-108 0,-108 0,-72 502.75,-72 502.75,-108"/>
<text text-anchor="middle" x="251.38" y="-84.58" font-family="Times New Roman,serif" font-size="14.00">DE86857FDCB8C8582509A05EB4A815D2339FB50F88246BE8F9100EBBD814B6A8</text>
</g>
<!-- 6&#45;&#45;7 -->
<g id="edge3" class="edge">
<title>6&#45;&#45;7</title>
<path fill="none" stroke="black" d="M640.75,-143.52C561.33,-132.81 460.06,-119.15 380.7,-108.44"/>
</g>
<!-- 8 -->
<g id="node5" class="node">
<title>8</title>
<polygon fill="lightgreen" stroke="black" points="1019.88,-108 520.88,-108 520.88,-72 1019.88,-72 1019.88,-108"/>
<text text-anchor="middle" x="770.38" y="-84.58" font-family="Times New Roman,serif" font-size="14.00">E943179B2D5F5539BDF411B09E16977F3291D33CC57A1CBA7B82140D26871BC9</text>
</g>
<!-- 6&#45;&#45;8 -->
<g id="edge4" class="edge">
<title>6&#45;&#45;8</title>
<path fill="none" stroke="black" d="M770.38,-143.7C770.38,-132.85 770.38,-118.92 770.38,-108.1"/>
</g>
<!-- 10 -->
<g id="node8" class="node">
<title>10</title>
<polygon fill="lightgreen" stroke="black" points="1552.38,-108 1038.38,-108 1038.38,-72 1552.38,-72 1552.38,-108"/>
<text text-anchor="middle" x="1295.38" y="-84.58" font-family="Times New Roman,serif" font-size="14.00">49CC09DDCE228B5D11D952FDDA3167079C9C249BD3DB912AF787469851AFCB80</text>
</g>
<!-- 9&#45;&#45;10 -->
<g id="edge7" class="edge">
<title>9&#45;&#45;10</title>
<path fill="none" stroke="black" d="M1295.38,-143.7C1295.38,-132.85 1295.38,-118.92 1295.38,-108.1"/>
</g>
<!-- 11 -->
<g id="node9" class="node">
<title>11</title>
<polygon fill="lightgreen" stroke="black" points="2088.25,-108 1570.5,-108 1570.5,-72 2088.25,-72 2088.25,-108"/>
<text text-anchor="middle" x="1829.38" y="-84.58" font-family="Times New Roman,serif" font-size="14.00">2E1CFA82B035C26CBBBDAE632CEA070514EB8B773F616AAEAF668E2F0BE8F10D</text>
</g>
<!-- 9&#45;&#45;11 -->
<g id="edge8" class="edge">
<title>9&#45;&#45;11</title>
<path fill="none" stroke="black" d="M1428.75,-143.52C1510.46,-132.81 1614.66,-119.15 1696.31,-108.44"/>
</g>
<!-- 1 -->
<g id="node6" class="node">
<title>1</title>
<polygon fill="orange" stroke="black" points="497.12,-36 5.62,-36 5.62,0 497.12,0 497.12,-36"/>
<text text-anchor="middle" x="251.38" y="-12.57" font-family="Times New Roman,serif" font-size="14.00">3ova calle A ZONA 25ova calle A ZONA 5 &#160;&#160;&#160;&#160;&#160;&#160;&#160;&#160;&#160;&#160;&#160;&#160;&#160;&#160;&#160;&#160;&#160;&#160;&#160;&#160;&#160;&#160;&#160;&#160;&#160;&#160;&#160;&#160;&#160;&#160;&#160;&#160;&#160;&#160;&#160;&#160;&#160;&#160;&#160;&#160;&#160;&#160;&#160;&#160;&#160;&#160;&#160;&#160;&#160;&#160;&#160;&#160;&#160;&#160;&#160;&#160;&#160;&#160;&#160;&#160;&#160;</text>
</g>
<!-- 7&#45;&#45;1 -->
<g id="edge5" class="edge">
<title>7&#45;&#45;1</title>
<path fill="none" stroke="black" d="M251.38,-71.7C251.38,-60.85 251.38,-46.92 251.38,-36.1"/>
</g>
<!-- 2 -->
<g id="node7" class="node">
<title>2</title>
<polygon fill="orange" stroke="black" points="1016.12,-36 524.62,-36 524.62,0 1016.12,0 1016.12,-36"/>
<text text-anchor="middle" x="770.38" y="-12.57" font-family="Times New Roman,serif" font-size="14.00">5ova calle A ZONA 52ova calle A ZONA 3 &#160;&#160;&#160;&#160;&#160;&#160;&#160;&#160;&#160;&#160;&#160;&#160;&#160;&#160;&#160;&#160;&#160;&#160;&#160;&#160;&#160;&#160;&#160;&#160;&#160;&#160;&#160;&#160;&#160;&#160;&#160;&#160;&#160;&#160;&#160;&#160;&#160;&#160;&#160;&#160;&#160;&#160;&#160;&#160;&#160;&#160;&#160;&#160;&#160;&#160;&#160;&#160;&#160;&#160;&#160;&#160;&#160;&#160;&#160;&#160;&#160;</text>
</g>
<!-- 8&#45;&#45;2 -->
<g id="edge6" class="edge">
<title>8&#45;&#45;2</title>
<path fill="none" stroke="black" d="M770.38,-71.7C770.38,-60.85 770.38,-46.92 770.38,-36.1"/>
</g>
<!-- 3 -->
<g id="node10" class="node">
<title>3</title>
<polygon fill="orange" stroke="black" points="1541.12,-36 1049.62,-36 1049.62,0 1541.12,0 1541.12,-36"/>
<text text-anchor="middle" x="1295.38" y="-12.57" font-family="Times New Roman,serif" font-size="14.00">2ova calle A ZONA 34ova calle A ZONA 4 &#160;&#160;&#160;&#160;&#160;&#160;&#160;&#160;&#160;&#160;&#160;&#160;&#160;&#160;&#160;&#160;&#160;&#160;&#160;&#160;&#160;&#160;&#160;&#160;&#160;&#160;&#160;&#160;&#160;&#160;&#160;&#160;&#160;&#160;&#160;&#160;&#160;&#160;&#160;&#160;&#160;&#160;&#160;&#160;&#160;&#160;&#160;&#160;&#160;&#160;&#160;&#160;&#160;&#160;&#160;&#160;&#160;&#160;&#160;&#160;&#160;</text>
</g>
<!-- 10&#45;&#45;3 -->
<g id="edge9" class="edge">
<title>10&#45;&#45;3</title>
<path fill="none" stroke="black" d="M1295.38,-71.7C1295.38,-60.85 1295.38,-46.92 1295.38,-36.1"/>
</g>
<!-- 4 -->
<g id="node11" class="node">
<title>4</title>
<polygon fill="orange" stroke="black" points="1856.38,-36 1802.38,-36 1802.38,0 1856.38,0 1856.38,-36"/>
<text text-anchor="middle" x="1829.38" y="-12.57" font-family="Times New Roman,serif" font-size="14.00">empty</text>
</g>
<!-- 11&#45;&#45;4 -->
<g id="edge10" class="edge">
<title>11&#45;&#45;4</title>
<path fill="none" stroke="black" d="M1829.38,-71.7C1829.38,-60.85 1829.38,-46.92 1829.38,-36.1"/>
</g>
</g>
</svg>
