<?xml version="1.0" encoding="UTF-8" standalone="no"?>
<!DOCTYPE svg PUBLIC "-//W3C//DTD SVG 1.1//EN"
 "http://www.w3.org/Graphics/SVG/1.1/DTD/svg11.dtd">
<!-- Generated by graphviz version 8.1.0 (20230707.0739)
 -->
<!-- Pages: 1 -->
<svg width="4180pt" height="332pt"
 viewBox="0.00 0.00 4179.75 332.00" xmlns="http://www.w3.org/2000/svg" xmlns:xlink="http://www.w3.org/1999/xlink">
<g id="graph0" class="graph" transform="scale(1 1) rotate(0) translate(4 328)">
<polygon fill="white" stroke="none" points="-4,4 -4,-328 4175.75,-328 4175.75,4 -4,4"/>
<!-- 16 -->
<g id="node1" class="node">
<title>16</title>
<polygon fill="lightgreen" stroke="black" points="2227.88,-324 1720.62,-324 1720.62,-288 2227.88,-288 2227.88,-324"/>
<text text-anchor="middle" x="1974.25" y="-300.57" font-family="Times New Roman,serif" font-size="14.00">CEB3D0D290FDA4C60005DAEFBE49E44913DD1B102296AEA72902C66711C13032</text>
</g>
<!-- 17 -->
<g id="node2" class="node">
<title>17</title>
<polygon fill="lightgreen" stroke="black" points="1961.75,-252 1456.75,-252 1456.75,-216 1961.75,-216 1961.75,-252"/>
<text text-anchor="middle" x="1709.25" y="-228.57" font-family="Times New Roman,serif" font-size="14.00">9A45DB9CF0283CD79780B5ADBB7F5043922BA0E4B8C2A0AA7105D97247531499</text>
</g>
<!-- 16&#45;&#45;17 -->
<g id="edge1" class="edge">
<title>16&#45;&#45;17</title>
<path fill="none" stroke="black" d="M1908.06,-287.52C1867.44,-276.79 1815.61,-263.09 1775.05,-252.38"/>
</g>
<!-- 24 -->
<g id="node3" class="node">
<title>24</title>
<polygon fill="lightgreen" stroke="black" points="2739.12,-252 2227.38,-252 2227.38,-216 2739.12,-216 2739.12,-252"/>
<text text-anchor="middle" x="2483.25" y="-228.57" font-family="Times New Roman,serif" font-size="14.00">0D853B7255F9E0AE03D2DD28090F727C1C13C60DD27A8BF7E7C5ECFA42756AB0</text>
</g>
<!-- 16&#45;&#45;24 -->
<g id="edge2" class="edge">
<title>16&#45;&#45;24</title>
<path fill="none" stroke="black" d="M2101.38,-287.52C2179.26,-276.81 2278.59,-263.15 2356.42,-252.44"/>
</g>
<!-- 18 -->
<g id="node4" class="node">
<title>18</title>
<polygon fill="lightgreen" stroke="black" points="1062.38,-180 546.12,-180 546.12,-144 1062.38,-144 1062.38,-180"/>
<text text-anchor="middle" x="804.25" y="-156.57" font-family="Times New Roman,serif" font-size="14.00">B7488643968FC26AC05D97E44B1CA08F7CB4A61F3D007D1A28C5B85CA3FABC0F</text>
</g>
<!-- 17&#45;&#45;18 -->
<g id="edge3" class="edge">
<title>17&#45;&#45;18</title>
<path fill="none" stroke="black" d="M1483.21,-215.52C1344.87,-204.82 1168.47,-191.17 1030.15,-180.47"/>
</g>
<!-- 21 -->
<g id="node5" class="node">
<title>21</title>
<polygon fill="lightgreen" stroke="black" points="1965.12,-180 1453.38,-180 1453.38,-144 1965.12,-144 1965.12,-180"/>
<text text-anchor="middle" x="1709.25" y="-156.57" font-family="Times New Roman,serif" font-size="14.00">3BC1B7029897D6F35B23ECD1E554EA494C9CE03BB76C5ABC8C7274BE952A2EE1</text>
</g>
<!-- 17&#45;&#45;21 -->
<g id="edge4" class="edge">
<title>17&#45;&#45;21</title>
<path fill="none" stroke="black" d="M1709.25,-215.7C1709.25,-204.85 1709.25,-190.92 1709.25,-180.1"/>
</g>
<!-- 25 -->
<g id="node14" class="node">
<title>25</title>
<polygon fill="lightgreen" stroke="black" points="2739.88,-180 2226.62,-180 2226.62,-144 2739.88,-144 2739.88,-180"/>
<text text-anchor="middle" x="2483.25" y="-156.57" font-family="Times New Roman,serif" font-size="14.00">2AA08DCAFFF12FD4D3C35EF9CBE238FBF979B321567192FD8D521F1D3C6153A7</text>
</g>
<!-- 24&#45;&#45;25 -->
<g id="edge13" class="edge">
<title>24&#45;&#45;25</title>
<path fill="none" stroke="black" d="M2483.25,-215.7C2483.25,-204.85 2483.25,-190.92 2483.25,-180.1"/>
</g>
<!-- 28 -->
<g id="node15" class="node">
<title>28</title>
<polygon fill="lightgreen" stroke="black" points="3655.5,-180 3137,-180 3137,-144 3655.5,-144 3655.5,-180"/>
<text text-anchor="middle" x="3396.25" y="-156.57" font-family="Times New Roman,serif" font-size="14.00">630E0BB54281D6E9BB1FED506A8DBE0BC2B646C173EE87FEBD08EFCFD2EC73D5</text>
</g>
<!-- 24&#45;&#45;28 -->
<g id="edge14" class="edge">
<title>24&#45;&#45;28</title>
<path fill="none" stroke="black" d="M2711.28,-215.52C2850.85,-204.82 3028.81,-191.17 3168.36,-180.47"/>
</g>
<!-- 19 -->
<g id="node6" class="node">
<title>19</title>
<polygon fill="lightgreen" stroke="black" points="535.12,-108 5.38,-108 5.38,-72 535.12,-72 535.12,-108"/>
<text text-anchor="middle" x="270.25" y="-84.58" font-family="Times New Roman,serif" font-size="14.00">B3D8A5696F8A66AADCF7EC2676E37CDE5ABAA9BF828335AB4FBB2C8DF0FFB0D3</text>
</g>
<!-- 18&#45;&#45;19 -->
<g id="edge5" class="edge">
<title>18&#45;&#45;19</title>
<path fill="none" stroke="black" d="M670.88,-143.52C589.17,-132.81 484.96,-119.15 403.31,-108.44"/>
</g>
<!-- 20 -->
<g id="node7" class="node">
<title>20</title>
<polygon fill="lightgreen" stroke="black" points="1051.5,-108 557,-108 557,-72 1051.5,-72 1051.5,-108"/>
<text text-anchor="middle" x="804.25" y="-84.58" font-family="Times New Roman,serif" font-size="14.00">2592A37F792A7E05385E898BCACC24875F6245DB7E0AB056C14412106B5974A8</text>
</g>
<!-- 18&#45;&#45;20 -->
<g id="edge6" class="edge">
<title>18&#45;&#45;20</title>
<path fill="none" stroke="black" d="M804.25,-143.7C804.25,-132.85 804.25,-118.92 804.25,-108.1"/>
</g>
<!-- 22 -->
<g id="node10" class="node">
<title>22</title>
<polygon fill="lightgreen" stroke="black" points="1564.62,-108 1073.88,-108 1073.88,-72 1564.62,-72 1564.62,-108"/>
<text text-anchor="middle" x="1319.25" y="-84.58" font-family="Times New Roman,serif" font-size="14.00">56AF7788792228F6CD62CB22FF435C8F01081035F347AF8839F3B648F825D9BF</text>
</g>
<!-- 21&#45;&#45;22 -->
<g id="edge9" class="edge">
<title>21&#45;&#45;22</title>
<path fill="none" stroke="black" d="M1611.84,-143.52C1552.17,-132.81 1476.06,-119.15 1416.43,-108.44"/>
</g>
<!-- 23 -->
<g id="node11" class="node">
<title>23</title>
<polygon fill="lightgreen" stroke="black" points="2087.75,-108 1582.75,-108 1582.75,-72 2087.75,-72 2087.75,-108"/>
<text text-anchor="middle" x="1835.25" y="-84.58" font-family="Times New Roman,serif" font-size="14.00">1BAD6B8CF97131FCEAB8543E81F7757195FBB1D36B376EE994AD1CF17699C464</text>
</g>
<!-- 21&#45;&#45;23 -->
<g id="edge10" class="edge">
<title>21&#45;&#45;23</title>
<path fill="none" stroke="black" d="M1740.72,-143.52C1760.11,-132.74 1784.87,-118.99 1804.18,-108.26"/>
</g>
<!-- 1 -->
<g id="node8" class="node">
<title>1</title>
<polygon fill="orange" stroke="black" points="530.5,-36 0,-36 0,0 530.5,0 530.5,-36"/>
<text text-anchor="middle" x="265.25" y="-12.57" font-family="Times New Roman,serif" font-size="14.00">8DIRECCION DE LA 67DIRECCION DE LA 7 &#160;&#160;&#160;&#160;&#160;&#160;&#160;&#160;&#160;&#160;&#160;&#160;&#160;&#160;&#160;&#160;&#160;&#160;&#160;&#160;&#160;&#160;&#160;&#160;&#160;&#160;&#160;&#160;&#160;&#160;&#160;&#160;&#160;&#160;&#160;&#160;&#160;&#160;&#160;&#160;&#160;&#160;&#160;&#160;&#160;&#160;&#160;&#160;&#160;&#160;&#160;&#160;&#160;&#160;&#160;&#160;&#160;&#160;&#160;&#160;&#160;&#160;&#160;</text>
</g>
<!-- 19&#45;&#45;1 -->
<g id="edge7" class="edge">
<title>19&#45;&#45;1</title>
<path fill="none" stroke="black" d="M269.01,-71.7C268.24,-60.85 267.24,-46.92 266.47,-36.1"/>
</g>
<!-- 2 -->
<g id="node9" class="node">
<title>2</title>
<polygon fill="orange" stroke="black" points="1059.75,-36 548.75,-36 548.75,0 1059.75,0 1059.75,-36"/>
<text text-anchor="middle" x="804.25" y="-12.57" font-family="Times New Roman,serif" font-size="14.00">7DIRECCION DE LA 75ova calle A ZONA 5 &#160;&#160;&#160;&#160;&#160;&#160;&#160;&#160;&#160;&#160;&#160;&#160;&#160;&#160;&#160;&#160;&#160;&#160;&#160;&#160;&#160;&#160;&#160;&#160;&#160;&#160;&#160;&#160;&#160;&#160;&#160;&#160;&#160;&#160;&#160;&#160;&#160;&#160;&#160;&#160;&#160;&#160;&#160;&#160;&#160;&#160;&#160;&#160;&#160;&#160;&#160;&#160;&#160;&#160;&#160;&#160;&#160;&#160;&#160;&#160;&#160;&#160;</text>
</g>
<!-- 20&#45;&#45;2 -->
<g id="edge8" class="edge">
<title>20&#45;&#45;2</title>
<path fill="none" stroke="black" d="M804.25,-71.7C804.25,-60.85 804.25,-46.92 804.25,-36.1"/>
</g>
<!-- 3 -->
<g id="node12" class="node">
<title>3</title>
<polygon fill="orange" stroke="black" points="1569,-36 1077.5,-36 1077.5,0 1569,0 1569,-36"/>
<text text-anchor="middle" x="1323.25" y="-12.57" font-family="Times New Roman,serif" font-size="14.00">5ova calle A ZONA 51ova calle A ZONA 1 &#160;&#160;&#160;&#160;&#160;&#160;&#160;&#160;&#160;&#160;&#160;&#160;&#160;&#160;&#160;&#160;&#160;&#160;&#160;&#160;&#160;&#160;&#160;&#160;&#160;&#160;&#160;&#160;&#160;&#160;&#160;&#160;&#160;&#160;&#160;&#160;&#160;&#160;&#160;&#160;&#160;&#160;&#160;&#160;&#160;&#160;&#160;&#160;&#160;&#160;&#160;&#160;&#160;&#160;&#160;&#160;&#160;&#160;&#160;&#160;&#160;</text>
</g>
<!-- 22&#45;&#45;3 -->
<g id="edge11" class="edge">
<title>22&#45;&#45;3</title>
<path fill="none" stroke="black" d="M1320.24,-71.7C1320.86,-60.85 1321.65,-46.92 1322.27,-36.1"/>
</g>
<!-- 4 -->
<g id="node13" class="node">
<title>4</title>
<polygon fill="orange" stroke="black" points="1862.25,-36 1808.25,-36 1808.25,0 1862.25,0 1862.25,-36"/>
<text text-anchor="middle" x="1835.25" y="-12.57" font-family="Times New Roman,serif" font-size="14.00">&#45;1</text>
</g>
<!-- 23&#45;&#45;4 -->
<g id="edge12" class="edge">
<title>23&#45;&#45;4</title>
<path fill="none" stroke="black" d="M1835.25,-71.7C1835.25,-60.85 1835.25,-46.92 1835.25,-36.1"/>
</g>
<!-- 26 -->
<g id="node16" class="node">
<title>26</title>
<polygon fill="lightgreen" stroke="black" points="2608.62,-108 2105.88,-108 2105.88,-72 2608.62,-72 2608.62,-108"/>
<text text-anchor="middle" x="2357.25" y="-84.58" font-family="Times New Roman,serif" font-size="14.00">DE86857FDCB8C8582509A05EB4A815D2339FB50F88246BE8F9100EBBD814B6A8</text>
</g>
<!-- 25&#45;&#45;26 -->
<g id="edge15" class="edge">
<title>25&#45;&#45;26</title>
<path fill="none" stroke="black" d="M2451.78,-143.52C2432.39,-132.74 2407.63,-118.99 2388.32,-108.26"/>
</g>
<!-- 27 -->
<g id="node17" class="node">
<title>27</title>
<polygon fill="lightgreen" stroke="black" points="3125.75,-108 2626.75,-108 2626.75,-72 3125.75,-72 3125.75,-108"/>
<text text-anchor="middle" x="2876.25" y="-84.58" font-family="Times New Roman,serif" font-size="14.00">E943179B2D5F5539BDF411B09E16977F3291D33CC57A1CBA7B82140D26871BC9</text>
</g>
<!-- 25&#45;&#45;27 -->
<g id="edge16" class="edge">
<title>25&#45;&#45;27</title>
<path fill="none" stroke="black" d="M2581.41,-143.52C2641.54,-132.81 2718.23,-119.15 2778.32,-108.44"/>
</g>
<!-- 29 -->
<g id="node20" class="node">
<title>29</title>
<polygon fill="lightgreen" stroke="black" points="3648.75,-108 3143.75,-108 3143.75,-72 3648.75,-72 3648.75,-108"/>
<text text-anchor="middle" x="3396.25" y="-84.58" font-family="Times New Roman,serif" font-size="14.00">1BAD6B8CF97131FCEAB8543E81F7757195FBB1D36B376EE994AD1CF17699C464</text>
</g>
<!-- 28&#45;&#45;29 -->
<g id="edge19" class="edge">
<title>28&#45;&#45;29</title>
<path fill="none" stroke="black" d="M3396.25,-143.7C3396.25,-132.85 3396.25,-118.92 3396.25,-108.1"/>
</g>
<!-- 30 -->
<g id="node21" class="node">
<title>30</title>
<polygon fill="lightgreen" stroke="black" points="4171.75,-108 3666.75,-108 3666.75,-72 4171.75,-72 4171.75,-108"/>
<text text-anchor="middle" x="3919.25" y="-84.58" font-family="Times New Roman,serif" font-size="14.00">1BAD6B8CF97131FCEAB8543E81F7757195FBB1D36B376EE994AD1CF17699C464</text>
</g>
<!-- 28&#45;&#45;30 -->
<g id="edge20" class="edge">
<title>28&#45;&#45;30</title>
<path fill="none" stroke="black" d="M3526.88,-143.52C3606.9,-132.81 3708.96,-119.15 3788.93,-108.44"/>
</g>
<!-- 12 -->
<g id="node18" class="node">
<title>12</title>
<polygon fill="orange" stroke="black" points="2603,-36 2111.5,-36 2111.5,0 2603,0 2603,-36"/>
<text text-anchor="middle" x="2357.25" y="-12.57" font-family="Times New Roman,serif" font-size="14.00">3ova calle A ZONA 25ova calle A ZONA 5 &#160;&#160;&#160;&#160;&#160;&#160;&#160;&#160;&#160;&#160;&#160;&#160;&#160;&#160;&#160;&#160;&#160;&#160;&#160;&#160;&#160;&#160;&#160;&#160;&#160;&#160;&#160;&#160;&#160;&#160;&#160;&#160;&#160;&#160;&#160;&#160;&#160;&#160;&#160;&#160;&#160;&#160;&#160;&#160;&#160;&#160;&#160;&#160;&#160;&#160;&#160;&#160;&#160;&#160;&#160;&#160;&#160;&#160;&#160;&#160;&#160;</text>
</g>
<!-- 26&#45;&#45;12 -->
<g id="edge17" class="edge">
<title>26&#45;&#45;12</title>
<path fill="none" stroke="black" d="M2357.25,-71.7C2357.25,-60.85 2357.25,-46.92 2357.25,-36.1"/>
</g>
<!-- 13 -->
<g id="node19" class="node">
<title>13</title>
<polygon fill="orange" stroke="black" points="3122,-36 2630.5,-36 2630.5,0 3122,0 3122,-36"/>
<text text-anchor="middle" x="2876.25" y="-12.57" font-family="Times New Roman,serif" font-size="14.00">5ova calle A ZONA 52ova calle A ZONA 3 &#160;&#160;&#160;&#160;&#160;&#160;&#160;&#160;&#160;&#160;&#160;&#160;&#160;&#160;&#160;&#160;&#160;&#160;&#160;&#160;&#160;&#160;&#160;&#160;&#160;&#160;&#160;&#160;&#160;&#160;&#160;&#160;&#160;&#160;&#160;&#160;&#160;&#160;&#160;&#160;&#160;&#160;&#160;&#160;&#160;&#160;&#160;&#160;&#160;&#160;&#160;&#160;&#160;&#160;&#160;&#160;&#160;&#160;&#160;&#160;&#160;</text>
</g>
<!-- 27&#45;&#45;13 -->
<g id="edge18" class="edge">
<title>27&#45;&#45;13</title>
<path fill="none" stroke="black" d="M2876.25,-71.7C2876.25,-60.85 2876.25,-46.92 2876.25,-36.1"/>
</g>
<!-- 14 -->
<g id="node22" class="node">
<title>14</title>
<polygon fill="orange" stroke="black" points="3423.25,-36 3369.25,-36 3369.25,0 3423.25,0 3423.25,-36"/>
<text text-anchor="middle" x="3396.25" y="-12.57" font-family="Times New Roman,serif" font-size="14.00">&#45;1</text>
</g>
<!-- 29&#45;&#45;14 -->
<g id="edge21" class="edge">
<title>29&#45;&#45;14</title>
<path fill="none" stroke="black" d="M3396.25,-71.7C3396.25,-60.85 3396.25,-46.92 3396.25,-36.1"/>
</g>
<!-- 15 -->
<g id="node23" class="node">
<title>15</title>
<polygon fill="orange" stroke="black" points="3946.25,-36 3892.25,-36 3892.25,0 3946.25,0 3946.25,-36"/>
<text text-anchor="middle" x="3919.25" y="-12.57" font-family="Times New Roman,serif" font-size="14.00">&#45;1</text>
</g>
<!-- 30&#45;&#45;15 -->
<g id="edge22" class="edge">
<title>30&#45;&#45;15</title>
<path fill="none" stroke="black" d="M3919.25,-71.7C3919.25,-60.85 3919.25,-46.92 3919.25,-36.1"/>
</g>
</g>
</svg>
