<?xml version="1.0" encoding="UTF-8" standalone="no"?>
<!DOCTYPE svg PUBLIC "-//W3C//DTD SVG 1.1//EN"
 "http://www.w3.org/Graphics/SVG/1.1/DTD/svg11.dtd">
<!-- Generated by graphviz version 8.1.0 (20230707.0739)
 -->
<!-- Pages: 1 -->
<svg width="2078pt" height="260pt"
 viewBox="0.00 0.00 2077.88 260.00" xmlns="http://www.w3.org/2000/svg" xmlns:xlink="http://www.w3.org/1999/xlink">
<g id="graph0" class="graph" transform="scale(1 1) rotate(0) translate(4 256)">
<polygon fill="white" stroke="none" points="-4,4 -4,-256 2073.88,-256 2073.88,4 -4,4"/>
<!-- 5 -->
<g id="node1" class="node">
<title>5</title>
<polygon fill="lightgreen" stroke="black" points="1301.88,-252 769.12,-252 769.12,-216 1301.88,-216 1301.88,-252"/>
<text text-anchor="middle" x="1035.5" y="-228.57" font-family="Times New Roman,serif" font-size="14.00">C8012B9AB40FE0CEC8184F8CED52B5E5D727FB1C77AAAB79CDCEEDEF0CA3ECE3</text>
</g>
<!-- 6 -->
<g id="node2" class="node">
<title>6</title>
<polygon fill="lightgreen" stroke="black" points="1024.12,-180 522.88,-180 522.88,-144 1024.12,-144 1024.12,-180"/>
<text text-anchor="middle" x="773.5" y="-156.57" font-family="Times New Roman,serif" font-size="14.00">98FF3D2C608BCB83B301670422CA61EC9A4E3307451A955E911E46C4ACFA0127</text>
</g>
<!-- 5&#45;&#45;6 -->
<g id="edge1" class="edge">
<title>5&#45;&#45;6</title>
<path fill="none" stroke="black" d="M970.06,-215.52C929.9,-204.79 878.65,-191.09 838.56,-180.38"/>
</g>
<!-- 9 -->
<g id="node3" class="node">
<title>9</title>
<polygon fill="lightgreen" stroke="black" points="1553.25,-180 1043.75,-180 1043.75,-144 1553.25,-144 1553.25,-180"/>
<text text-anchor="middle" x="1298.5" y="-156.57" font-family="Times New Roman,serif" font-size="14.00">9BF5DA063717624A6696F39F3F99D39D2B863F977B3BACEA71C6C6A0CF025C5C</text>
</g>
<!-- 5&#45;&#45;9 -->
<g id="edge2" class="edge">
<title>5&#45;&#45;9</title>
<path fill="none" stroke="black" d="M1101.19,-215.52C1141.51,-204.79 1192.95,-191.09 1233.19,-180.38"/>
</g>
<!-- 7 -->
<g id="node4" class="node">
<title>7</title>
<polygon fill="lightgreen" stroke="black" points="504.75,-108 10.25,-108 10.25,-72 504.75,-72 504.75,-108"/>
<text text-anchor="middle" x="257.5" y="-84.58" font-family="Times New Roman,serif" font-size="14.00">2592A37F792A7E05385E898BCACC24875F6245DB7E0AB056C14412106B5974A8</text>
</g>
<!-- 6&#45;&#45;7 -->
<g id="edge3" class="edge">
<title>6&#45;&#45;7</title>
<path fill="none" stroke="black" d="M644.62,-143.52C565.67,-132.81 464.97,-119.15 386.08,-108.44"/>
</g>
<!-- 8 -->
<g id="node5" class="node">
<title>8</title>
<polygon fill="lightgreen" stroke="black" points="1023,-108 524,-108 524,-72 1023,-72 1023,-108"/>
<text text-anchor="middle" x="773.5" y="-84.58" font-family="Times New Roman,serif" font-size="14.00">E943179B2D5F5539BDF411B09E16977F3291D33CC57A1CBA7B82140D26871BC9</text>
</g>
<!-- 6&#45;&#45;8 -->
<g id="edge4" class="edge">
<title>6&#45;&#45;8</title>
<path fill="none" stroke="black" d="M773.5,-143.7C773.5,-132.85 773.5,-118.92 773.5,-108.1"/>
</g>
<!-- 10 -->
<g id="node8" class="node">
<title>10</title>
<polygon fill="lightgreen" stroke="black" points="1555.5,-108 1041.5,-108 1041.5,-72 1555.5,-72 1555.5,-108"/>
<text text-anchor="middle" x="1298.5" y="-84.58" font-family="Times New Roman,serif" font-size="14.00">49CC09DDCE228B5D11D952FDDA3167079C9C249BD3DB912AF787469851AFCB80</text>
</g>
<!-- 9&#45;&#45;10 -->
<g id="edge7" class="edge">
<title>9&#45;&#45;10</title>
<path fill="none" stroke="black" d="M1298.5,-143.7C1298.5,-132.85 1298.5,-118.92 1298.5,-108.1"/>
</g>
<!-- 11 -->
<g id="node9" class="node">
<title>11</title>
<polygon fill="lightgreen" stroke="black" points="2069.88,-108 1573.12,-108 1573.12,-72 2069.88,-72 2069.88,-108"/>
<text text-anchor="middle" x="1821.5" y="-84.58" font-family="Times New Roman,serif" font-size="14.00">0577CD80E69842F24BE3257098451BD5BC6EBC6294CA6B0379590488294E8DDC</text>
</g>
<!-- 9&#45;&#45;11 -->
<g id="edge8" class="edge">
<title>9&#45;&#45;11</title>
<path fill="none" stroke="black" d="M1429.13,-143.52C1509.15,-132.81 1611.21,-119.15 1691.18,-108.44"/>
</g>
<!-- 1 -->
<g id="node6" class="node">
<title>1</title>
<polygon fill="orange" stroke="black" points="511,-36 0,-36 0,0 511,0 511,-36"/>
<text text-anchor="middle" x="255.5" y="-12.57" font-family="Times New Roman,serif" font-size="14.00">7DIRECCION DE LA 75ova calle A ZONA 5 &#160;&#160;&#160;&#160;&#160;&#160;&#160;&#160;&#160;&#160;&#160;&#160;&#160;&#160;&#160;&#160;&#160;&#160;&#160;&#160;&#160;&#160;&#160;&#160;&#160;&#160;&#160;&#160;&#160;&#160;&#160;&#160;&#160;&#160;&#160;&#160;&#160;&#160;&#160;&#160;&#160;&#160;&#160;&#160;&#160;&#160;&#160;&#160;&#160;&#160;&#160;&#160;&#160;&#160;&#160;&#160;&#160;&#160;&#160;&#160;&#160;&#160;</text>
</g>
<!-- 7&#45;&#45;1 -->
<g id="edge5" class="edge">
<title>7&#45;&#45;1</title>
<path fill="none" stroke="black" d="M257.01,-71.7C256.7,-60.85 256.3,-46.92 255.99,-36.1"/>
</g>
<!-- 2 -->
<g id="node7" class="node">
<title>2</title>
<polygon fill="orange" stroke="black" points="1020.25,-36 528.75,-36 528.75,0 1020.25,0 1020.25,-36"/>
<text text-anchor="middle" x="774.5" y="-12.57" font-family="Times New Roman,serif" font-size="14.00">5ova calle A ZONA 52ova calle A ZONA 3 &#160;&#160;&#160;&#160;&#160;&#160;&#160;&#160;&#160;&#160;&#160;&#160;&#160;&#160;&#160;&#160;&#160;&#160;&#160;&#160;&#160;&#160;&#160;&#160;&#160;&#160;&#160;&#160;&#160;&#160;&#160;&#160;&#160;&#160;&#160;&#160;&#160;&#160;&#160;&#160;&#160;&#160;&#160;&#160;&#160;&#160;&#160;&#160;&#160;&#160;&#160;&#160;&#160;&#160;&#160;&#160;&#160;&#160;&#160;&#160;&#160;</text>
</g>
<!-- 8&#45;&#45;2 -->
<g id="edge6" class="edge">
<title>8&#45;&#45;2</title>
<path fill="none" stroke="black" d="M773.75,-71.7C773.9,-60.85 774.1,-46.92 774.26,-36.1"/>
</g>
<!-- 3 -->
<g id="node10" class="node">
<title>3</title>
<polygon fill="orange" stroke="black" points="1544.25,-36 1052.75,-36 1052.75,0 1544.25,0 1544.25,-36"/>
<text text-anchor="middle" x="1298.5" y="-12.57" font-family="Times New Roman,serif" font-size="14.00">2ova calle A ZONA 34ova calle A ZONA 4 &#160;&#160;&#160;&#160;&#160;&#160;&#160;&#160;&#160;&#160;&#160;&#160;&#160;&#160;&#160;&#160;&#160;&#160;&#160;&#160;&#160;&#160;&#160;&#160;&#160;&#160;&#160;&#160;&#160;&#160;&#160;&#160;&#160;&#160;&#160;&#160;&#160;&#160;&#160;&#160;&#160;&#160;&#160;&#160;&#160;&#160;&#160;&#160;&#160;&#160;&#160;&#160;&#160;&#160;&#160;&#160;&#160;&#160;&#160;&#160;&#160;</text>
</g>
<!-- 10&#45;&#45;3 -->
<g id="edge9" class="edge">
<title>10&#45;&#45;3</title>
<path fill="none" stroke="black" d="M1298.5,-71.7C1298.5,-60.85 1298.5,-46.92 1298.5,-36.1"/>
</g>
<!-- 4 -->
<g id="node11" class="node">
<title>4</title>
<polygon fill="orange" stroke="black" points="2067.25,-36 1575.75,-36 1575.75,0 2067.25,0 2067.25,-36"/>
<text text-anchor="middle" x="1821.5" y="-12.57" font-family="Times New Roman,serif" font-size="14.00">4ova calle A ZONA 43ova calle A ZONA 2 &#160;&#160;&#160;&#160;&#160;&#160;&#160;&#160;&#160;&#160;&#160;&#160;&#160;&#160;&#160;&#160;&#160;&#160;&#160;&#160;&#160;&#160;&#160;&#160;&#160;&#160;&#160;&#160;&#160;&#160;&#160;&#160;&#160;&#160;&#160;&#160;&#160;&#160;&#160;&#160;&#160;&#160;&#160;&#160;&#160;&#160;&#160;&#160;&#160;&#160;&#160;&#160;&#160;&#160;&#160;&#160;&#160;&#160;&#160;&#160;&#160;</text>
</g>
<!-- 11&#45;&#45;4 -->
<g id="edge10" class="edge">
<title>11&#45;&#45;4</title>
<path fill="none" stroke="black" d="M1821.5,-71.7C1821.5,-60.85 1821.5,-46.92 1821.5,-36.1"/>
</g>
</g>
</svg>
