<?xml version="1.0" encoding="UTF-8" standalone="no"?>
<!DOCTYPE svg PUBLIC "-//W3C//DTD SVG 1.1//EN"
 "http://www.w3.org/Graphics/SVG/1.1/DTD/svg11.dtd">
<!-- Generated by graphviz version 8.1.0 (20230707.0739)
 -->
<!-- Pages: 1 -->
<svg width="4233pt" height="332pt"
 viewBox="0.00 0.00 4233.12 332.00" xmlns="http://www.w3.org/2000/svg" xmlns:xlink="http://www.w3.org/1999/xlink">
<g id="graph0" class="graph" transform="scale(1 1) rotate(0) translate(4 328)">
<polygon fill="white" stroke="none" points="-4,4 -4,-328 4229.12,-328 4229.12,4 -4,4"/>
<!-- 9 -->
<g id="node1" class="node">
<title>9</title>
<polygon fill="lightgreen" stroke="black" points="2234.38,-324 1730.12,-324 1730.12,-288 2234.38,-288 2234.38,-324"/>
<text text-anchor="middle" x="1982.25" y="-300.57" font-family="Times New Roman,serif" font-size="14.00">BF75B5EDD1DD70928BE75F19947F08D52928787908D650C9DEDD601054CEC11C</text>
</g>
<!-- 10 -->
<g id="node2" class="node">
<title>10</title>
<polygon fill="lightgreen" stroke="black" points="1979,-252 1457.5,-252 1457.5,-216 1979,-216 1979,-252"/>
<text text-anchor="middle" x="1718.25" y="-228.57" font-family="Times New Roman,serif" font-size="14.00">7CBE7D98C916B948DBA905DFFD3504B982087AF969ABAA0FAE9A07A47EE1BC3A</text>
</g>
<!-- 9&#45;&#45;10 -->
<g id="edge1" class="edge">
<title>9&#45;&#45;10</title>
<path fill="none" stroke="black" d="M1916.31,-287.52C1875.84,-276.79 1824.21,-263.09 1783.8,-252.38"/>
</g>
<!-- 17 -->
<g id="node3" class="node">
<title>17</title>
<polygon fill="lightgreen" stroke="black" points="2744.12,-252 2250.38,-252 2250.38,-216 2744.12,-216 2744.12,-252"/>
<text text-anchor="middle" x="2497.25" y="-228.57" font-family="Times New Roman,serif" font-size="14.00">6938999FE1440689EDDF7E4534F8869A285D32043397A52FE7D8DD45EE5BF3C0</text>
</g>
<!-- 9&#45;&#45;17 -->
<g id="edge2" class="edge">
<title>9&#45;&#45;17</title>
<path fill="none" stroke="black" d="M2110.88,-287.52C2189.68,-276.81 2290.18,-263.15 2368.92,-252.44"/>
</g>
<!-- 11 -->
<g id="node4" class="node">
<title>11</title>
<polygon fill="lightgreen" stroke="black" points="1062.38,-180 546.12,-180 546.12,-144 1062.38,-144 1062.38,-180"/>
<text text-anchor="middle" x="804.25" y="-156.57" font-family="Times New Roman,serif" font-size="14.00">B7488643968FC26AC05D97E44B1CA08F7CB4A61F3D007D1A28C5B85CA3FABC0F</text>
</g>
<!-- 10&#45;&#45;11 -->
<g id="edge3" class="edge">
<title>10&#45;&#45;11</title>
<path fill="none" stroke="black" d="M1489.97,-215.52C1350.24,-204.82 1172.09,-191.17 1032.39,-180.47"/>
</g>
<!-- 14 -->
<g id="node5" class="node">
<title>14</title>
<polygon fill="lightgreen" stroke="black" points="1974.5,-180 1462,-180 1462,-144 1974.5,-144 1974.5,-180"/>
<text text-anchor="middle" x="1718.25" y="-156.57" font-family="Times New Roman,serif" font-size="14.00">6D23187438B6C90B85614403CFCF5E99FF8E3D6DB09C62572C5AA13C5BA1FACD</text>
</g>
<!-- 10&#45;&#45;14 -->
<g id="edge4" class="edge">
<title>10&#45;&#45;14</title>
<path fill="none" stroke="black" d="M1718.25,-215.7C1718.25,-204.85 1718.25,-190.92 1718.25,-180.1"/>
</g>
<!-- 18 -->
<g id="node14" class="node">
<title>18</title>
<polygon fill="lightgreen" stroke="black" points="2751.25,-180 2243.25,-180 2243.25,-144 2751.25,-144 2751.25,-180"/>
<text text-anchor="middle" x="2497.25" y="-156.57" font-family="Times New Roman,serif" font-size="14.00">744A07E7019FD083F97B2C2E7095C2FFE4ADA5AC8070D70E2A13AA7B31246EA5</text>
</g>
<!-- 17&#45;&#45;18 -->
<g id="edge13" class="edge">
<title>17&#45;&#45;18</title>
<path fill="none" stroke="black" d="M2497.25,-215.7C2497.25,-204.85 2497.25,-190.92 2497.25,-180.1"/>
</g>
<!-- 21 -->
<g id="node15" class="node">
<title>21</title>
<polygon fill="lightgreen" stroke="black" points="3684.62,-180 3175.88,-180 3175.88,-144 3684.62,-144 3684.62,-180"/>
<text text-anchor="middle" x="3430.25" y="-156.57" font-family="Times New Roman,serif" font-size="14.00">619A4222B2B53145BE3D6D4301F87C85669F893B04BAD5148CAD8CCDC60A755A</text>
</g>
<!-- 17&#45;&#45;21 -->
<g id="edge14" class="edge">
<title>17&#45;&#45;21</title>
<path fill="none" stroke="black" d="M2730.28,-215.52C2872.91,-204.82 3054.76,-191.17 3197.36,-180.47"/>
</g>
<!-- 12 -->
<g id="node6" class="node">
<title>12</title>
<polygon fill="lightgreen" stroke="black" points="535.12,-108 5.38,-108 5.38,-72 535.12,-72 535.12,-108"/>
<text text-anchor="middle" x="270.25" y="-84.58" font-family="Times New Roman,serif" font-size="14.00">B3D8A5696F8A66AADCF7EC2676E37CDE5ABAA9BF828335AB4FBB2C8DF0FFB0D3</text>
</g>
<!-- 11&#45;&#45;12 -->
<g id="edge5" class="edge">
<title>11&#45;&#45;12</title>
<path fill="none" stroke="black" d="M670.88,-143.52C589.17,-132.81 484.96,-119.15 403.31,-108.44"/>
</g>
<!-- 13 -->
<g id="node7" class="node">
<title>13</title>
<polygon fill="lightgreen" stroke="black" points="1051.5,-108 557,-108 557,-72 1051.5,-72 1051.5,-108"/>
<text text-anchor="middle" x="804.25" y="-84.58" font-family="Times New Roman,serif" font-size="14.00">2592A37F792A7E05385E898BCACC24875F6245DB7E0AB056C14412106B5974A8</text>
</g>
<!-- 11&#45;&#45;13 -->
<g id="edge6" class="edge">
<title>11&#45;&#45;13</title>
<path fill="none" stroke="black" d="M804.25,-143.7C804.25,-132.85 804.25,-118.92 804.25,-108.1"/>
</g>
<!-- 15 -->
<g id="node10" class="node">
<title>15</title>
<polygon fill="lightgreen" stroke="black" points="1570.75,-108 1071.75,-108 1071.75,-72 1570.75,-72 1570.75,-108"/>
<text text-anchor="middle" x="1321.25" y="-84.58" font-family="Times New Roman,serif" font-size="14.00">E943179B2D5F5539BDF411B09E16977F3291D33CC57A1CBA7B82140D26871BC9</text>
</g>
<!-- 14&#45;&#45;15 -->
<g id="edge9" class="edge">
<title>14&#45;&#45;15</title>
<path fill="none" stroke="black" d="M1619.09,-143.52C1558.35,-132.81 1480.88,-119.15 1420.17,-108.44"/>
</g>
<!-- 16 -->
<g id="node11" class="node">
<title>16</title>
<polygon fill="lightgreen" stroke="black" points="2103.25,-108 1589.25,-108 1589.25,-72 2103.25,-72 2103.25,-108"/>
<text text-anchor="middle" x="1846.25" y="-84.58" font-family="Times New Roman,serif" font-size="14.00">49CC09DDCE228B5D11D952FDDA3167079C9C249BD3DB912AF787469851AFCB80</text>
</g>
<!-- 14&#45;&#45;16 -->
<g id="edge10" class="edge">
<title>14&#45;&#45;16</title>
<path fill="none" stroke="black" d="M1750.22,-143.52C1769.92,-132.74 1795.07,-118.99 1814.69,-108.26"/>
</g>
<!-- 1 -->
<g id="node8" class="node">
<title>1</title>
<polygon fill="orange" stroke="black" points="530.5,-36 0,-36 0,0 530.5,0 530.5,-36"/>
<text text-anchor="middle" x="265.25" y="-12.57" font-family="Times New Roman,serif" font-size="14.00">8DIRECCION DE LA 67DIRECCION DE LA 7 &#160;&#160;&#160;&#160;&#160;&#160;&#160;&#160;&#160;&#160;&#160;&#160;&#160;&#160;&#160;&#160;&#160;&#160;&#160;&#160;&#160;&#160;&#160;&#160;&#160;&#160;&#160;&#160;&#160;&#160;&#160;&#160;&#160;&#160;&#160;&#160;&#160;&#160;&#160;&#160;&#160;&#160;&#160;&#160;&#160;&#160;&#160;&#160;&#160;&#160;&#160;&#160;&#160;&#160;&#160;&#160;&#160;&#160;&#160;&#160;&#160;&#160;&#160;</text>
</g>
<!-- 12&#45;&#45;1 -->
<g id="edge7" class="edge">
<title>12&#45;&#45;1</title>
<path fill="none" stroke="black" d="M269.01,-71.7C268.24,-60.85 267.24,-46.92 266.47,-36.1"/>
</g>
<!-- 2 -->
<g id="node9" class="node">
<title>2</title>
<polygon fill="orange" stroke="black" points="1059.75,-36 548.75,-36 548.75,0 1059.75,0 1059.75,-36"/>
<text text-anchor="middle" x="804.25" y="-12.57" font-family="Times New Roman,serif" font-size="14.00">7DIRECCION DE LA 75ova calle A ZONA 5 &#160;&#160;&#160;&#160;&#160;&#160;&#160;&#160;&#160;&#160;&#160;&#160;&#160;&#160;&#160;&#160;&#160;&#160;&#160;&#160;&#160;&#160;&#160;&#160;&#160;&#160;&#160;&#160;&#160;&#160;&#160;&#160;&#160;&#160;&#160;&#160;&#160;&#160;&#160;&#160;&#160;&#160;&#160;&#160;&#160;&#160;&#160;&#160;&#160;&#160;&#160;&#160;&#160;&#160;&#160;&#160;&#160;&#160;&#160;&#160;&#160;&#160;</text>
</g>
<!-- 13&#45;&#45;2 -->
<g id="edge8" class="edge">
<title>13&#45;&#45;2</title>
<path fill="none" stroke="black" d="M804.25,-71.7C804.25,-60.85 804.25,-46.92 804.25,-36.1"/>
</g>
<!-- 3 -->
<g id="node12" class="node">
<title>3</title>
<polygon fill="orange" stroke="black" points="1569,-36 1077.5,-36 1077.5,0 1569,0 1569,-36"/>
<text text-anchor="middle" x="1323.25" y="-12.57" font-family="Times New Roman,serif" font-size="14.00">5ova calle A ZONA 52ova calle A ZONA 3 &#160;&#160;&#160;&#160;&#160;&#160;&#160;&#160;&#160;&#160;&#160;&#160;&#160;&#160;&#160;&#160;&#160;&#160;&#160;&#160;&#160;&#160;&#160;&#160;&#160;&#160;&#160;&#160;&#160;&#160;&#160;&#160;&#160;&#160;&#160;&#160;&#160;&#160;&#160;&#160;&#160;&#160;&#160;&#160;&#160;&#160;&#160;&#160;&#160;&#160;&#160;&#160;&#160;&#160;&#160;&#160;&#160;&#160;&#160;&#160;&#160;</text>
</g>
<!-- 15&#45;&#45;3 -->
<g id="edge11" class="edge">
<title>15&#45;&#45;3</title>
<path fill="none" stroke="black" d="M1321.74,-71.7C1322.05,-60.85 1322.45,-46.92 1322.76,-36.1"/>
</g>
<!-- 4 -->
<g id="node13" class="node">
<title>4</title>
<polygon fill="orange" stroke="black" points="2092,-36 1600.5,-36 1600.5,0 2092,0 2092,-36"/>
<text text-anchor="middle" x="1846.25" y="-12.57" font-family="Times New Roman,serif" font-size="14.00">2ova calle A ZONA 34ova calle A ZONA 4 &#160;&#160;&#160;&#160;&#160;&#160;&#160;&#160;&#160;&#160;&#160;&#160;&#160;&#160;&#160;&#160;&#160;&#160;&#160;&#160;&#160;&#160;&#160;&#160;&#160;&#160;&#160;&#160;&#160;&#160;&#160;&#160;&#160;&#160;&#160;&#160;&#160;&#160;&#160;&#160;&#160;&#160;&#160;&#160;&#160;&#160;&#160;&#160;&#160;&#160;&#160;&#160;&#160;&#160;&#160;&#160;&#160;&#160;&#160;&#160;&#160;</text>
</g>
<!-- 16&#45;&#45;4 -->
<g id="edge12" class="edge">
<title>16&#45;&#45;4</title>
<path fill="none" stroke="black" d="M1846.25,-71.7C1846.25,-60.85 1846.25,-46.92 1846.25,-36.1"/>
</g>
<!-- 19 -->
<g id="node16" class="node">
<title>19</title>
<polygon fill="lightgreen" stroke="black" points="2617.62,-108 2120.88,-108 2120.88,-72 2617.62,-72 2617.62,-108"/>
<text text-anchor="middle" x="2369.25" y="-84.58" font-family="Times New Roman,serif" font-size="14.00">0577CD80E69842F24BE3257098451BD5BC6EBC6294CA6B0379590488294E8DDC</text>
</g>
<!-- 18&#45;&#45;19 -->
<g id="edge15" class="edge">
<title>18&#45;&#45;19</title>
<path fill="none" stroke="black" d="M2465.28,-143.52C2445.58,-132.74 2420.43,-118.99 2400.81,-108.26"/>
</g>
<!-- 20 -->
<g id="node17" class="node">
<title>20</title>
<polygon fill="lightgreen" stroke="black" points="3153.12,-108 2635.38,-108 2635.38,-72 3153.12,-72 3153.12,-108"/>
<text text-anchor="middle" x="2894.25" y="-84.58" font-family="Times New Roman,serif" font-size="14.00">2E1CFA82B035C26CBBBDAE632CEA070514EB8B773F616AAEAF668E2F0BE8F10D</text>
</g>
<!-- 18&#45;&#45;20 -->
<g id="edge16" class="edge">
<title>18&#45;&#45;20</title>
<path fill="none" stroke="black" d="M2596.41,-143.52C2657.15,-132.81 2734.62,-119.15 2795.33,-108.44"/>
</g>
<!-- 22 -->
<g id="node20" class="node">
<title>22</title>
<polygon fill="lightgreen" stroke="black" points="3689.12,-108 3171.38,-108 3171.38,-72 3689.12,-72 3689.12,-108"/>
<text text-anchor="middle" x="3430.25" y="-84.58" font-family="Times New Roman,serif" font-size="14.00">2E1CFA82B035C26CBBBDAE632CEA070514EB8B773F616AAEAF668E2F0BE8F10D</text>
</g>
<!-- 21&#45;&#45;22 -->
<g id="edge19" class="edge">
<title>21&#45;&#45;22</title>
<path fill="none" stroke="black" d="M3430.25,-143.7C3430.25,-132.85 3430.25,-118.92 3430.25,-108.1"/>
</g>
<!-- 23 -->
<g id="node21" class="node">
<title>23</title>
<polygon fill="lightgreen" stroke="black" points="4225.12,-108 3707.38,-108 3707.38,-72 4225.12,-72 4225.12,-108"/>
<text text-anchor="middle" x="3966.25" y="-84.58" font-family="Times New Roman,serif" font-size="14.00">2E1CFA82B035C26CBBBDAE632CEA070514EB8B773F616AAEAF668E2F0BE8F10D</text>
</g>
<!-- 21&#45;&#45;23 -->
<g id="edge20" class="edge">
<title>21&#45;&#45;23</title>
<path fill="none" stroke="black" d="M3564.12,-143.52C3646.14,-132.81 3750.73,-119.15 3832.69,-108.44"/>
</g>
<!-- 5 -->
<g id="node18" class="node">
<title>5</title>
<polygon fill="orange" stroke="black" points="2615,-36 2123.5,-36 2123.5,0 2615,0 2615,-36"/>
<text text-anchor="middle" x="2369.25" y="-12.57" font-family="Times New Roman,serif" font-size="14.00">4ova calle A ZONA 43ova calle A ZONA 2 &#160;&#160;&#160;&#160;&#160;&#160;&#160;&#160;&#160;&#160;&#160;&#160;&#160;&#160;&#160;&#160;&#160;&#160;&#160;&#160;&#160;&#160;&#160;&#160;&#160;&#160;&#160;&#160;&#160;&#160;&#160;&#160;&#160;&#160;&#160;&#160;&#160;&#160;&#160;&#160;&#160;&#160;&#160;&#160;&#160;&#160;&#160;&#160;&#160;&#160;&#160;&#160;&#160;&#160;&#160;&#160;&#160;&#160;&#160;&#160;&#160;</text>
</g>
<!-- 19&#45;&#45;5 -->
<g id="edge17" class="edge">
<title>19&#45;&#45;5</title>
<path fill="none" stroke="black" d="M2369.25,-71.7C2369.25,-60.85 2369.25,-46.92 2369.25,-36.1"/>
</g>
<!-- 6 -->
<g id="node19" class="node">
<title>6</title>
<polygon fill="orange" stroke="black" points="2921.25,-36 2867.25,-36 2867.25,0 2921.25,0 2921.25,-36"/>
<text text-anchor="middle" x="2894.25" y="-12.57" font-family="Times New Roman,serif" font-size="14.00">empty</text>
</g>
<!-- 20&#45;&#45;6 -->
<g id="edge18" class="edge">
<title>20&#45;&#45;6</title>
<path fill="none" stroke="black" d="M2894.25,-71.7C2894.25,-60.85 2894.25,-46.92 2894.25,-36.1"/>
</g>
<!-- 7 -->
<g id="node22" class="node">
<title>7</title>
<polygon fill="orange" stroke="black" points="3457.25,-36 3403.25,-36 3403.25,0 3457.25,0 3457.25,-36"/>
<text text-anchor="middle" x="3430.25" y="-12.57" font-family="Times New Roman,serif" font-size="14.00">empty</text>
</g>
<!-- 22&#45;&#45;7 -->
<g id="edge21" class="edge">
<title>22&#45;&#45;7</title>
<path fill="none" stroke="black" d="M3430.25,-71.7C3430.25,-60.85 3430.25,-46.92 3430.25,-36.1"/>
</g>
<!-- 8 -->
<g id="node23" class="node">
<title>8</title>
<polygon fill="orange" stroke="black" points="3993.25,-36 3939.25,-36 3939.25,0 3993.25,0 3993.25,-36"/>
<text text-anchor="middle" x="3966.25" y="-12.57" font-family="Times New Roman,serif" font-size="14.00">empty</text>
</g>
<!-- 23&#45;&#45;8 -->
<g id="edge22" class="edge">
<title>23&#45;&#45;8</title>
<path fill="none" stroke="black" d="M3966.25,-71.7C3966.25,-60.85 3966.25,-46.92 3966.25,-36.1"/>
</g>
</g>
</svg>
