<?xml version="1.0" encoding="UTF-8" standalone="no"?>
<!DOCTYPE svg PUBLIC "-//W3C//DTD SVG 1.1//EN"
 "http://www.w3.org/Graphics/SVG/1.1/DTD/svg11.dtd">
<!-- Generated by graphviz version 8.1.0 (20230707.0739)
 -->
<!-- Pages: 1 -->
<svg width="2116pt" height="260pt"
 viewBox="0.00 0.00 2116.25 260.00" xmlns="http://www.w3.org/2000/svg" xmlns:xlink="http://www.w3.org/1999/xlink">
<g id="graph0" class="graph" transform="scale(1 1) rotate(0) translate(4 256)">
<polygon fill="white" stroke="none" points="-4,4 -4,-256 2112.25,-256 2112.25,4 -4,4"/>
<!-- 5 -->
<g id="node1" class="node">
<title>5</title>
<polygon fill="lightgreen" stroke="black" points="1319.38,-252 809.12,-252 809.12,-216 1319.38,-216 1319.38,-252"/>
<text text-anchor="middle" x="1064.25" y="-228.57" font-family="Times New Roman,serif" font-size="14.00">5890BC4A1418DEFA8754CF907493FCC812402EDAECAC5E92214B142B7CDD9906</text>
</g>
<!-- 6 -->
<g id="node2" class="node">
<title>6</title>
<polygon fill="lightgreen" stroke="black" points="1053.25,-180 551.25,-180 551.25,-144 1053.25,-144 1053.25,-180"/>
<text text-anchor="middle" x="802.25" y="-156.57" font-family="Times New Roman,serif" font-size="14.00">A97C54683BBE41477610178CC8DD8086597E3E9D33533DB85C83121FADFFA8B6</text>
</g>
<!-- 5&#45;&#45;6 -->
<g id="edge1" class="edge">
<title>5&#45;&#45;6</title>
<path fill="none" stroke="black" d="M998.81,-215.52C958.65,-204.79 907.4,-191.09 867.31,-180.38"/>
</g>
<!-- 9 -->
<g id="node3" class="node">
<title>9</title>
<polygon fill="lightgreen" stroke="black" points="1583.5,-180 1071,-180 1071,-144 1583.5,-144 1583.5,-180"/>
<text text-anchor="middle" x="1327.25" y="-156.57" font-family="Times New Roman,serif" font-size="14.00">6D23187438B6C90B85614403CFCF5E99FF8E3D6DB09C62572C5AA13C5BA1FACD</text>
</g>
<!-- 5&#45;&#45;9 -->
<g id="edge2" class="edge">
<title>5&#45;&#45;9</title>
<path fill="none" stroke="black" d="M1129.94,-215.52C1170.26,-204.79 1221.7,-191.09 1261.94,-180.38"/>
</g>
<!-- 7 -->
<g id="node4" class="node">
<title>7</title>
<polygon fill="lightgreen" stroke="black" points="531.5,-108 19,-108 19,-72 531.5,-72 531.5,-108"/>
<text text-anchor="middle" x="275.25" y="-84.58" font-family="Times New Roman,serif" font-size="14.00">AAFF709ED4EBF37636ED2BB2D8740E865CAB69AD6F8E4CA39A3C48F500E25607</text>
</g>
<!-- 6&#45;&#45;7 -->
<g id="edge3" class="edge">
<title>6&#45;&#45;7</title>
<path fill="none" stroke="black" d="M670.63,-143.52C589.99,-132.81 487.15,-119.15 406.57,-108.44"/>
</g>
<!-- 8 -->
<g id="node5" class="node">
<title>8</title>
<polygon fill="lightgreen" stroke="black" points="1047.12,-108 559.38,-108 559.38,-72 1047.12,-72 1047.12,-108"/>
<text text-anchor="middle" x="803.25" y="-84.58" font-family="Times New Roman,serif" font-size="14.00">1934AF1A8C77371071ABE594B38687C81E54CF889FF86527A49F9B2E72217754</text>
</g>
<!-- 6&#45;&#45;8 -->
<g id="edge4" class="edge">
<title>6&#45;&#45;8</title>
<path fill="none" stroke="black" d="M802.5,-143.7C802.65,-132.85 802.85,-118.92 803.01,-108.1"/>
</g>
<!-- 10 -->
<g id="node8" class="node">
<title>10</title>
<polygon fill="lightgreen" stroke="black" points="1575.75,-108 1076.75,-108 1076.75,-72 1575.75,-72 1575.75,-108"/>
<text text-anchor="middle" x="1326.25" y="-84.58" font-family="Times New Roman,serif" font-size="14.00">E943179B2D5F5539BDF411B09E16977F3291D33CC57A1CBA7B82140D26871BC9</text>
</g>
<!-- 9&#45;&#45;10 -->
<g id="edge7" class="edge">
<title>9&#45;&#45;10</title>
<path fill="none" stroke="black" d="M1327,-143.7C1326.85,-132.85 1326.65,-118.92 1326.49,-108.1"/>
</g>
<!-- 11 -->
<g id="node9" class="node">
<title>11</title>
<polygon fill="lightgreen" stroke="black" points="2108.25,-108 1594.25,-108 1594.25,-72 2108.25,-72 2108.25,-108"/>
<text text-anchor="middle" x="1851.25" y="-84.58" font-family="Times New Roman,serif" font-size="14.00">49CC09DDCE228B5D11D952FDDA3167079C9C249BD3DB912AF787469851AFCB80</text>
</g>
<!-- 9&#45;&#45;11 -->
<g id="edge8" class="edge">
<title>9&#45;&#45;11</title>
<path fill="none" stroke="black" d="M1458.13,-143.52C1538.3,-132.81 1640.56,-119.15 1720.68,-108.44"/>
</g>
<!-- 1 -->
<g id="node6" class="node">
<title>1</title>
<polygon fill="orange" stroke="black" points="530.5,-36 0,-36 0,0 530.5,0 530.5,-36"/>
<text text-anchor="middle" x="265.25" y="-12.57" font-family="Times New Roman,serif" font-size="14.00">9DIRECCION DE LA 76DIRECCION DE LA 6 &#160;&#160;&#160;&#160;&#160;&#160;&#160;&#160;&#160;&#160;&#160;&#160;&#160;&#160;&#160;&#160;&#160;&#160;&#160;&#160;&#160;&#160;&#160;&#160;&#160;&#160;&#160;&#160;&#160;&#160;&#160;&#160;&#160;&#160;&#160;&#160;&#160;&#160;&#160;&#160;&#160;&#160;&#160;&#160;&#160;&#160;&#160;&#160;&#160;&#160;&#160;&#160;&#160;&#160;&#160;&#160;&#160;&#160;&#160;&#160;&#160;&#160;&#160;</text>
</g>
<!-- 7&#45;&#45;1 -->
<g id="edge5" class="edge">
<title>7&#45;&#45;1</title>
<path fill="none" stroke="black" d="M272.78,-71.7C271.23,-60.85 269.24,-46.92 267.69,-36.1"/>
</g>
<!-- 2 -->
<g id="node7" class="node">
<title>2</title>
<polygon fill="orange" stroke="black" points="1059.75,-36 548.75,-36 548.75,0 1059.75,0 1059.75,-36"/>
<text text-anchor="middle" x="804.25" y="-12.57" font-family="Times New Roman,serif" font-size="14.00">6DIRECCION DE LA 65ova calle A ZONA 5 &#160;&#160;&#160;&#160;&#160;&#160;&#160;&#160;&#160;&#160;&#160;&#160;&#160;&#160;&#160;&#160;&#160;&#160;&#160;&#160;&#160;&#160;&#160;&#160;&#160;&#160;&#160;&#160;&#160;&#160;&#160;&#160;&#160;&#160;&#160;&#160;&#160;&#160;&#160;&#160;&#160;&#160;&#160;&#160;&#160;&#160;&#160;&#160;&#160;&#160;&#160;&#160;&#160;&#160;&#160;&#160;&#160;&#160;&#160;&#160;&#160;&#160;</text>
</g>
<!-- 8&#45;&#45;2 -->
<g id="edge6" class="edge">
<title>8&#45;&#45;2</title>
<path fill="none" stroke="black" d="M803.5,-71.7C803.65,-60.85 803.85,-46.92 804.01,-36.1"/>
</g>
<!-- 3 -->
<g id="node10" class="node">
<title>3</title>
<polygon fill="orange" stroke="black" points="1572,-36 1080.5,-36 1080.5,0 1572,0 1572,-36"/>
<text text-anchor="middle" x="1326.25" y="-12.57" font-family="Times New Roman,serif" font-size="14.00">5ova calle A ZONA 52ova calle A ZONA 3 &#160;&#160;&#160;&#160;&#160;&#160;&#160;&#160;&#160;&#160;&#160;&#160;&#160;&#160;&#160;&#160;&#160;&#160;&#160;&#160;&#160;&#160;&#160;&#160;&#160;&#160;&#160;&#160;&#160;&#160;&#160;&#160;&#160;&#160;&#160;&#160;&#160;&#160;&#160;&#160;&#160;&#160;&#160;&#160;&#160;&#160;&#160;&#160;&#160;&#160;&#160;&#160;&#160;&#160;&#160;&#160;&#160;&#160;&#160;&#160;&#160;</text>
</g>
<!-- 10&#45;&#45;3 -->
<g id="edge9" class="edge">
<title>10&#45;&#45;3</title>
<path fill="none" stroke="black" d="M1326.25,-71.7C1326.25,-60.85 1326.25,-46.92 1326.25,-36.1"/>
</g>
<!-- 4 -->
<g id="node11" class="node">
<title>4</title>
<polygon fill="orange" stroke="black" points="2097,-36 1605.5,-36 1605.5,0 2097,0 2097,-36"/>
<text text-anchor="middle" x="1851.25" y="-12.57" font-family="Times New Roman,serif" font-size="14.00">2ova calle A ZONA 34ova calle A ZONA 4 &#160;&#160;&#160;&#160;&#160;&#160;&#160;&#160;&#160;&#160;&#160;&#160;&#160;&#160;&#160;&#160;&#160;&#160;&#160;&#160;&#160;&#160;&#160;&#160;&#160;&#160;&#160;&#160;&#160;&#160;&#160;&#160;&#160;&#160;&#160;&#160;&#160;&#160;&#160;&#160;&#160;&#160;&#160;&#160;&#160;&#160;&#160;&#160;&#160;&#160;&#160;&#160;&#160;&#160;&#160;&#160;&#160;&#160;&#160;&#160;&#160;</text>
</g>
<!-- 11&#45;&#45;4 -->
<g id="edge10" class="edge">
<title>11&#45;&#45;4</title>
<path fill="none" stroke="black" d="M1851.25,-71.7C1851.25,-60.85 1851.25,-46.92 1851.25,-36.1"/>
</g>
</g>
</svg>
