<?xml version="1.0" encoding="UTF-8" standalone="no"?>
<!DOCTYPE svg PUBLIC "-//W3C//DTD SVG 1.1//EN"
 "http://www.w3.org/Graphics/SVG/1.1/DTD/svg11.dtd">
<!-- Generated by graphviz version 8.1.0 (20230707.0739)
 -->
<!-- Pages: 1 -->
<svg width="259pt" height="188pt"
 viewBox="0.00 0.00 259.19 188.00" xmlns="http://www.w3.org/2000/svg" xmlns:xlink="http://www.w3.org/1999/xlink">
<g id="graph0" class="graph" transform="scale(1 1) rotate(0) translate(4 184)">
<polygon fill="white" stroke="none" points="-4,4 -4,-184 255.19,-184 255.19,4 -4,4"/>
<!-- 1 -->
<g id="node1" class="node">
<title>1</title>
<ellipse fill="none" stroke="black" cx="168.6" cy="-162" rx="36.59" ry="18"/>
<text text-anchor="middle" x="168.6" y="-156.57" font-family="Times New Roman,serif" font-size="14.00"> &#160;&#160;25p1</text>
</g>
<!-- 2 -->
<g id="node2" class="node">
<title>2</title>
<ellipse fill="none" stroke="black" cx="123.6" cy="-90" rx="36.59" ry="18"/>
<text text-anchor="middle" x="123.6" y="-84.58" font-family="Times New Roman,serif" font-size="14.00"> &#160;&#160;10p2</text>
</g>
<!-- 1&#45;&#45;2 -->
<g id="edge1" class="edge">
<title>1&#45;&#45;2</title>
<path fill="none" stroke="black" d="M157.93,-144.41C150.76,-133.25 141.34,-118.6 134.18,-107.47"/>
</g>
<!-- 3 -->
<g id="node3" class="node">
<title>3</title>
<ellipse fill="none" stroke="black" cx="214.6" cy="-90" rx="36.59" ry="18"/>
<text text-anchor="middle" x="214.6" y="-84.58" font-family="Times New Roman,serif" font-size="14.00"> &#160;&#160;35p3</text>
</g>
<!-- 1&#45;&#45;3 -->
<g id="edge2" class="edge">
<title>1&#45;&#45;3</title>
<path fill="none" stroke="black" d="M179.5,-144.41C186.83,-133.25 196.46,-118.6 203.77,-107.47"/>
</g>
<!-- 4 -->
<g id="node4" class="node">
<title>4</title>
<ellipse fill="none" stroke="black" cx="34.6" cy="-18" rx="34.6" ry="18"/>
<text text-anchor="middle" x="34.6" y="-12.57" font-family="Times New Roman,serif" font-size="14.00"> &#160;&#160;&#160;5p4</text>
</g>
<!-- 2&#45;&#45;4 -->
<g id="edge3" class="edge">
<title>2&#45;&#45;4</title>
<path fill="none" stroke="black" d="M104.72,-74.15C89.52,-62.2 68.26,-45.47 53.14,-33.58"/>
</g>
<!-- 5 -->
<g id="node5" class="node">
<title>5</title>
<ellipse fill="none" stroke="black" cx="123.6" cy="-18" rx="36.59" ry="18"/>
<text text-anchor="middle" x="123.6" y="-12.57" font-family="Times New Roman,serif" font-size="14.00"> &#160;&#160;20p5</text>
</g>
<!-- 2&#45;&#45;5 -->
<g id="edge4" class="edge">
<title>2&#45;&#45;5</title>
<path fill="none" stroke="black" d="M123.6,-71.7C123.6,-60.85 123.6,-46.92 123.6,-36.1"/>
</g>
<!-- 6 -->
<g id="node6" class="node">
<title>6</title>
<ellipse fill="none" stroke="black" cx="214.6" cy="-18" rx="36.59" ry="18"/>
<text text-anchor="middle" x="214.6" y="-12.57" font-family="Times New Roman,serif" font-size="14.00"> &#160;&#160;30p6</text>
</g>
<!-- 3&#45;&#45;6 -->
<g id="edge5" class="edge">
<title>3&#45;&#45;6</title>
<path fill="none" stroke="black" d="M214.6,-71.7C214.6,-60.85 214.6,-46.92 214.6,-36.1"/>
</g>
</g>
</svg>
