<?xml version="1.0" encoding="UTF-8" standalone="no"?>
<!DOCTYPE svg PUBLIC "-//W3C//DTD SVG 1.1//EN"
 "http://www.w3.org/Graphics/SVG/1.1/DTD/svg11.dtd">
<!-- Generated by graphviz version 8.1.0 (20230707.0739)
 -->
<!-- Pages: 1 -->
<svg width="1449pt" height="404pt"
 viewBox="0.00 0.00 1448.90 404.00" xmlns="http://www.w3.org/2000/svg" xmlns:xlink="http://www.w3.org/1999/xlink">
<g id="graph0" class="graph" transform="scale(1 1) rotate(0) translate(4 400)">
<polygon fill="white" stroke="none" points="-4,4 -4,-400 1444.9,-400 1444.9,4 -4,4"/>
<!-- 1 -->
<g id="node1" class="node">
<title>1</title>
<ellipse fill="none" stroke="black" cx="719.95" cy="-378" rx="356.95" ry="18"/>
<text text-anchor="middle" x="719.95" y="-372.57" font-family="Times New Roman,serif" font-size="14.00"> &#160;&#160;&#160;15994471ABB01112AFCC18159F6CC74B4F511B99806DA59B3CAF5A9C173CACFC5</text>
</g>
<!-- 2 -->
<g id="node2" class="node">
<title>2</title>
<ellipse fill="none" stroke="black" cx="719.95" cy="-306" rx="351.96" ry="18"/>
<text text-anchor="middle" x="719.95" y="-300.57" font-family="Times New Roman,serif" font-size="14.00"> &#160;&#160;&#160;3499BC7DF9D8873C1C38E6898177C343B2A34D2EB43178A9EB4EFCB993366C8CD</text>
</g>
<!-- 1&#45;&#45;2 -->
<g id="edge1" class="edge">
<title>1&#45;&#45;2</title>
<path fill="none" stroke="black" d="M719.95,-359.7C719.95,-348.85 719.95,-334.92 719.95,-324.1"/>
</g>
<!-- 3 -->
<g id="node3" class="node">
<title>3</title>
<ellipse fill="none" stroke="black" cx="356.95" cy="-234" rx="356.95" ry="18"/>
<text text-anchor="middle" x="356.95" y="-228.57" font-family="Times New Roman,serif" font-size="14.00"> &#160;&#160;&#160;25994471ABB01112AFCC18159F6CC74B4F511B99806DA59B3CAF5A9C173CACFC5</text>
</g>
<!-- 2&#45;&#45;3 -->
<g id="edge2" class="edge">
<title>2&#45;&#45;3</title>
<path fill="none" stroke="black" d="M632.54,-288.14C575.58,-277.16 501.54,-262.88 444.54,-251.89"/>
</g>
<!-- 4 -->
<g id="node4" class="node">
<title>4</title>
<ellipse fill="none" stroke="black" cx="1083.95" cy="-234" rx="351.96" ry="18"/>
<text text-anchor="middle" x="1083.95" y="-228.57" font-family="Times New Roman,serif" font-size="14.00"> &#160;&#160;&#160;4499BC7DF9D8873C1C38E6898177C343B2A34D2EB43178A9EB4EFCB993366C8CD</text>
</g>
<!-- 2&#45;&#45;4 -->
<g id="edge3" class="edge">
<title>2&#45;&#45;4</title>
<path fill="none" stroke="black" d="M807.6,-288.14C864.71,-277.16 938.96,-262.88 996.11,-251.89"/>
</g>
<!-- 5 -->
<g id="node5" class="node">
<title>5</title>
<ellipse fill="none" stroke="black" cx="1083.95" cy="-162" rx="356.95" ry="18"/>
<text text-anchor="middle" x="1083.95" y="-156.57" font-family="Times New Roman,serif" font-size="14.00"> &#160;&#160;&#160;55994471ABB01112AFCC18159F6CC74B4F511B99806DA59B3CAF5A9C173CACFC5</text>
</g>
<!-- 4&#45;&#45;5 -->
<g id="edge4" class="edge">
<title>4&#45;&#45;5</title>
<path fill="none" stroke="black" d="M1083.95,-215.7C1083.95,-204.85 1083.95,-190.92 1083.95,-180.1"/>
</g>
<!-- 6 -->
<g id="node6" class="node">
<title>6</title>
<ellipse fill="none" stroke="black" cx="1083.95" cy="-90" rx="351.96" ry="18"/>
<text text-anchor="middle" x="1083.95" y="-84.58" font-family="Times New Roman,serif" font-size="14.00"> &#160;&#160;&#160;6499BC7DF9D8873C1C38E6898177C343B2A34D2EB43178A9EB4EFCB993366C8CD</text>
</g>
<!-- 5&#45;&#45;6 -->
<g id="edge5" class="edge">
<title>5&#45;&#45;6</title>
<path fill="none" stroke="black" d="M1083.95,-143.7C1083.95,-132.85 1083.95,-118.92 1083.95,-108.1"/>
</g>
<!-- 7 -->
<g id="node7" class="node">
<title>7</title>
<ellipse fill="none" stroke="black" cx="1083.95" cy="-18" rx="351.96" ry="18"/>
<text text-anchor="middle" x="1083.95" y="-12.57" font-family="Times New Roman,serif" font-size="14.00"> &#160;&#160;&#160;7499BC7DF9D8873C1C38E6898177C343B2A34D2EB43178A9EB4EFCB993366C8CD</text>
</g>
<!-- 6&#45;&#45;7 -->
<g id="edge6" class="edge">
<title>6&#45;&#45;7</title>
<path fill="none" stroke="black" d="M1083.95,-71.7C1083.95,-60.85 1083.95,-46.92 1083.95,-36.1"/>
</g>
</g>
</svg>
