<?xml version="1.0" encoding="UTF-8" standalone="no"?>
<!DOCTYPE svg PUBLIC "-//W3C//DTD SVG 1.1//EN"
 "http://www.w3.org/Graphics/SVG/1.1/DTD/svg11.dtd">
<!-- Generated by graphviz version 8.1.0 (20230707.0739)
 -->
<!-- Pages: 1 -->
<svg width="212pt" height="404pt"
 viewBox="0.00 0.00 212.14 404.00" xmlns="http://www.w3.org/2000/svg" xmlns:xlink="http://www.w3.org/1999/xlink">
<g id="graph0" class="graph" transform="scale(1 1) rotate(0) translate(4 400)">
<polygon fill="white" stroke="none" points="-4,4 -4,-400 208.14,-400 208.14,4 -4,4"/>
<!-- 1 -->
<g id="node1" class="node">
<title>1</title>
<ellipse fill="none" stroke="black" cx="101.57" cy="-378" rx="47.57" ry="18"/>
<text text-anchor="middle" x="101.57" y="-372.57" font-family="Times New Roman,serif" font-size="14.00"> &#160;&#160;&#160;112345</text>
</g>
<!-- 2 -->
<g id="node2" class="node">
<title>2</title>
<ellipse fill="none" stroke="black" cx="101.57" cy="-306" rx="43.08" ry="18"/>
<text text-anchor="middle" x="101.57" y="-300.57" font-family="Times New Roman,serif" font-size="14.00"> &#160;&#160;&#160;36789</text>
</g>
<!-- 1&#45;&#45;2 -->
<g id="edge1" class="edge">
<title>1&#45;&#45;2</title>
<path fill="none" stroke="black" d="M101.57,-359.7C101.57,-348.85 101.57,-334.92 101.57,-324.1"/>
</g>
<!-- 3 -->
<g id="node3" class="node">
<title>3</title>
<ellipse fill="none" stroke="black" cx="47.57" cy="-234" rx="47.57" ry="18"/>
<text text-anchor="middle" x="47.57" y="-228.57" font-family="Times New Roman,serif" font-size="14.00"> &#160;&#160;&#160;212345</text>
</g>
<!-- 2&#45;&#45;3 -->
<g id="edge2" class="edge">
<title>2&#45;&#45;3</title>
<path fill="none" stroke="black" d="M88.77,-288.41C80.17,-277.25 68.87,-262.6 60.28,-251.47"/>
</g>
<!-- 4 -->
<g id="node4" class="node">
<title>4</title>
<ellipse fill="none" stroke="black" cx="156.57" cy="-234" rx="43.08" ry="18"/>
<text text-anchor="middle" x="156.57" y="-228.57" font-family="Times New Roman,serif" font-size="14.00"> &#160;&#160;&#160;46789</text>
</g>
<!-- 2&#45;&#45;4 -->
<g id="edge3" class="edge">
<title>2&#45;&#45;4</title>
<path fill="none" stroke="black" d="M114.61,-288.41C123.37,-277.25 134.88,-262.6 143.63,-251.47"/>
</g>
<!-- 5 -->
<g id="node5" class="node">
<title>5</title>
<ellipse fill="none" stroke="black" cx="156.57" cy="-162" rx="47.57" ry="18"/>
<text text-anchor="middle" x="156.57" y="-156.57" font-family="Times New Roman,serif" font-size="14.00"> &#160;&#160;&#160;512345</text>
</g>
<!-- 4&#45;&#45;5 -->
<g id="edge4" class="edge">
<title>4&#45;&#45;5</title>
<path fill="none" stroke="black" d="M156.57,-215.7C156.57,-204.85 156.57,-190.92 156.57,-180.1"/>
</g>
<!-- 6 -->
<g id="node6" class="node">
<title>6</title>
<ellipse fill="none" stroke="black" cx="156.57" cy="-90" rx="43.08" ry="18"/>
<text text-anchor="middle" x="156.57" y="-84.58" font-family="Times New Roman,serif" font-size="14.00"> &#160;&#160;&#160;66789</text>
</g>
<!-- 5&#45;&#45;6 -->
<g id="edge5" class="edge">
<title>5&#45;&#45;6</title>
<path fill="none" stroke="black" d="M156.57,-143.7C156.57,-132.85 156.57,-118.92 156.57,-108.1"/>
</g>
<!-- 7 -->
<g id="node7" class="node">
<title>7</title>
<ellipse fill="none" stroke="black" cx="156.57" cy="-18" rx="43.08" ry="18"/>
<text text-anchor="middle" x="156.57" y="-12.57" font-family="Times New Roman,serif" font-size="14.00"> &#160;&#160;&#160;76789</text>
</g>
<!-- 6&#45;&#45;7 -->
<g id="edge6" class="edge">
<title>6&#45;&#45;7</title>
<path fill="none" stroke="black" d="M156.57,-71.7C156.57,-60.85 156.57,-46.92 156.57,-36.1"/>
</g>
</g>
</svg>
