<?xml version="1.0" encoding="UTF-8" standalone="no"?>
<!DOCTYPE svg PUBLIC "-//W3C//DTD SVG 1.1//EN"
 "http://www.w3.org/Graphics/SVG/1.1/DTD/svg11.dtd">
<!-- Generated by graphviz version 8.1.0 (20230707.0739)
 -->
<!-- Pages: 1 -->
<svg width="927pt" height="60pt"
 viewBox="0.00 0.00 927.00 60.00" xmlns="http://www.w3.org/2000/svg" xmlns:xlink="http://www.w3.org/1999/xlink">
<g id="graph0" class="graph" transform="scale(1 1) rotate(0) translate(4 56)">
<polygon fill="white" stroke="none" points="-4,4 -4,-56 923,-56 923,4 -4,4"/>
<!-- hash_table -->
<g id="node1" class="node">
<title>hash_table</title>
<polygon fill="none" stroke="black" points="9,-26 9,-47 61,-47 61,-26 9,-26"/>
<polygon fill="none" stroke="black" points="61,-26 61,-47 78,-47 78,-26 61,-26"/>
<text text-anchor="start" x="66.12" y="-30.7" font-family="Times New Roman,serif" font-size="14.00">0</text>
<polygon fill="none" stroke="black" points="78,-26 78,-47 95,-47 95,-26 78,-26"/>
<text text-anchor="start" x="83.12" y="-30.7" font-family="Times New Roman,serif" font-size="14.00">1</text>
<polygon fill="none" stroke="black" points="95,-26 95,-47 112,-47 112,-26 95,-26"/>
<text text-anchor="start" x="100.12" y="-30.7" font-family="Times New Roman,serif" font-size="14.00">2</text>
<polygon fill="none" stroke="black" points="112,-26 112,-47 178,-47 178,-26 112,-26"/>
<text text-anchor="start" x="141.62" y="-30.7" font-family="Times New Roman,serif" font-size="14.00">3</text>
<polygon fill="none" stroke="black" points="178,-26 178,-47 244,-47 244,-26 178,-26"/>
<text text-anchor="start" x="207.62" y="-30.7" font-family="Times New Roman,serif" font-size="14.00">4</text>
<polygon fill="none" stroke="black" points="244,-26 244,-47 310,-47 310,-26 244,-26"/>
<text text-anchor="start" x="273.62" y="-30.7" font-family="Times New Roman,serif" font-size="14.00">5</text>
<polygon fill="none" stroke="black" points="310,-26 310,-47 376,-47 376,-26 310,-26"/>
<text text-anchor="start" x="339.62" y="-30.7" font-family="Times New Roman,serif" font-size="14.00">6</text>
<polygon fill="none" stroke="black" points="376,-26 376,-47 393,-47 393,-26 376,-26"/>
<text text-anchor="start" x="381.12" y="-30.7" font-family="Times New Roman,serif" font-size="14.00">7</text>
<polygon fill="none" stroke="black" points="393,-26 393,-47 410,-47 410,-26 393,-26"/>
<text text-anchor="start" x="398.12" y="-30.7" font-family="Times New Roman,serif" font-size="14.00">8</text>
<polygon fill="none" stroke="black" points="410,-26 410,-47 427,-47 427,-26 410,-26"/>
<text text-anchor="start" x="415.12" y="-30.7" font-family="Times New Roman,serif" font-size="14.00">9</text>
<polygon fill="none" stroke="black" points="427,-26 427,-47 446,-47 446,-26 427,-26"/>
<text text-anchor="start" x="429.75" y="-30.7" font-family="Times New Roman,serif" font-size="14.00">10</text>
<polygon fill="none" stroke="black" points="446,-26 446,-47 465,-47 465,-26 446,-26"/>
<text text-anchor="start" x="448.75" y="-30.7" font-family="Times New Roman,serif" font-size="14.00">11</text>
<polygon fill="none" stroke="black" points="465,-26 465,-47 484,-47 484,-26 465,-26"/>
<text text-anchor="start" x="467.75" y="-30.7" font-family="Times New Roman,serif" font-size="14.00">12</text>
<polygon fill="none" stroke="black" points="484,-26 484,-47 503,-47 503,-26 484,-26"/>
<text text-anchor="start" x="486.75" y="-30.7" font-family="Times New Roman,serif" font-size="14.00">13</text>
<polygon fill="none" stroke="black" points="503,-26 503,-47 522,-47 522,-26 503,-26"/>
<text text-anchor="start" x="505.75" y="-30.7" font-family="Times New Roman,serif" font-size="14.00">14</text>
<polygon fill="none" stroke="black" points="522,-26 522,-47 541,-47 541,-26 522,-26"/>
<text text-anchor="start" x="524.75" y="-30.7" font-family="Times New Roman,serif" font-size="14.00">15</text>
<polygon fill="none" stroke="black" points="541,-26 541,-47 560,-47 560,-26 541,-26"/>
<text text-anchor="start" x="543.75" y="-30.7" font-family="Times New Roman,serif" font-size="14.00">16</text>
<polygon fill="none" stroke="black" points="560,-26 560,-47 579,-47 579,-26 560,-26"/>
<text text-anchor="start" x="562.75" y="-30.7" font-family="Times New Roman,serif" font-size="14.00">17</text>
<polygon fill="none" stroke="black" points="579,-26 579,-47 598,-47 598,-26 579,-26"/>
<text text-anchor="start" x="581.75" y="-30.7" font-family="Times New Roman,serif" font-size="14.00">18</text>
<polygon fill="none" stroke="black" points="598,-26 598,-47 664,-47 664,-26 598,-26"/>
<text text-anchor="start" x="624.25" y="-30.7" font-family="Times New Roman,serif" font-size="14.00">19</text>
<polygon fill="none" stroke="black" points="664,-26 664,-47 730,-47 730,-26 664,-26"/>
<text text-anchor="start" x="690.25" y="-30.7" font-family="Times New Roman,serif" font-size="14.00">20</text>
<polygon fill="none" stroke="black" points="730,-26 730,-47 749,-47 749,-26 730,-26"/>
<text text-anchor="start" x="732.75" y="-30.7" font-family="Times New Roman,serif" font-size="14.00">21</text>
<polygon fill="none" stroke="black" points="749,-26 749,-47 768,-47 768,-26 749,-26"/>
<text text-anchor="start" x="751.75" y="-30.7" font-family="Times New Roman,serif" font-size="14.00">22</text>
<polygon fill="none" stroke="black" points="768,-26 768,-47 787,-47 787,-26 768,-26"/>
<text text-anchor="start" x="770.75" y="-30.7" font-family="Times New Roman,serif" font-size="14.00">23</text>
<polygon fill="none" stroke="black" points="787,-26 787,-47 806,-47 806,-26 787,-26"/>
<text text-anchor="start" x="789.75" y="-30.7" font-family="Times New Roman,serif" font-size="14.00">24</text>
<polygon fill="none" stroke="black" points="806,-26 806,-47 872,-47 872,-26 806,-26"/>
<text text-anchor="start" x="832.25" y="-30.7" font-family="Times New Roman,serif" font-size="14.00">25</text>
<polygon fill="none" stroke="black" points="872,-26 872,-47 891,-47 891,-26 872,-26"/>
<text text-anchor="start" x="874.75" y="-30.7" font-family="Times New Roman,serif" font-size="14.00">26</text>
<polygon fill="none" stroke="black" points="891,-26 891,-47 910,-47 910,-26 891,-26"/>
<text text-anchor="start" x="893.75" y="-30.7" font-family="Times New Roman,serif" font-size="14.00">27</text>
<polygon fill="none" stroke="black" points="9,-5 9,-26 61,-26 61,-5 9,-5"/>
<text text-anchor="start" x="11.75" y="-9.7" font-family="Times New Roman,serif" font-size="14.00">tecnicos</text>
<polygon fill="none" stroke="black" points="61,-5 61,-26 78,-26 78,-5 61,-5"/>
<text text-anchor="start" x="63.88" y="-9.7" font-family="Times New Roman,serif" font-size="14.00">&#45;1</text>
<polygon fill="none" stroke="black" points="78,-5 78,-26 95,-26 95,-5 78,-5"/>
<text text-anchor="start" x="80.88" y="-9.7" font-family="Times New Roman,serif" font-size="14.00">&#45;1</text>
<polygon fill="none" stroke="black" points="95,-5 95,-26 112,-26 112,-5 95,-5"/>
<text text-anchor="start" x="97.88" y="-9.7" font-family="Times New Roman,serif" font-size="14.00">&#45;1</text>
<polygon fill="none" stroke="black" points="112,-5 112,-26 178,-26 178,-5 112,-5"/>
<text text-anchor="start" x="114.62" y="-9.7" font-family="Times New Roman,serif" font-size="14.00">301684771</text>
<polygon fill="none" stroke="black" points="178,-5 178,-26 244,-26 244,-5 178,-5"/>
<text text-anchor="start" x="180.62" y="-9.7" font-family="Times New Roman,serif" font-size="14.00">200778456</text>
<polygon fill="none" stroke="black" points="244,-5 244,-26 310,-26 310,-5 244,-5"/>
<text text-anchor="start" x="246.62" y="-9.7" font-family="Times New Roman,serif" font-size="14.00">454212140</text>
<polygon fill="none" stroke="black" points="310,-5 310,-26 376,-26 376,-5 310,-5"/>
<text text-anchor="start" x="312.62" y="-9.7" font-family="Times New Roman,serif" font-size="14.00">454212140</text>
<polygon fill="none" stroke="black" points="376,-5 376,-26 393,-26 393,-5 376,-5"/>
<text text-anchor="start" x="378.88" y="-9.7" font-family="Times New Roman,serif" font-size="14.00">&#45;1</text>
<polygon fill="none" stroke="black" points="393,-5 393,-26 410,-26 410,-5 393,-5"/>
<text text-anchor="start" x="395.88" y="-9.7" font-family="Times New Roman,serif" font-size="14.00">&#45;1</text>
<polygon fill="none" stroke="black" points="410,-5 410,-26 427,-26 427,-5 410,-5"/>
<text text-anchor="start" x="412.88" y="-9.7" font-family="Times New Roman,serif" font-size="14.00">&#45;1</text>
<polygon fill="none" stroke="black" points="427,-5 427,-26 446,-26 446,-5 427,-5"/>
<text text-anchor="start" x="430.88" y="-9.7" font-family="Times New Roman,serif" font-size="14.00">&#45;1</text>
<polygon fill="none" stroke="black" points="446,-5 446,-26 465,-26 465,-5 446,-5"/>
<text text-anchor="start" x="449.88" y="-9.7" font-family="Times New Roman,serif" font-size="14.00">&#45;1</text>
<polygon fill="none" stroke="black" points="465,-5 465,-26 484,-26 484,-5 465,-5"/>
<text text-anchor="start" x="468.88" y="-9.7" font-family="Times New Roman,serif" font-size="14.00">&#45;1</text>
<polygon fill="none" stroke="black" points="484,-5 484,-26 503,-26 503,-5 484,-5"/>
<text text-anchor="start" x="487.88" y="-9.7" font-family="Times New Roman,serif" font-size="14.00">&#45;1</text>
<polygon fill="none" stroke="black" points="503,-5 503,-26 522,-26 522,-5 503,-5"/>
<text text-anchor="start" x="506.88" y="-9.7" font-family="Times New Roman,serif" font-size="14.00">&#45;1</text>
<polygon fill="none" stroke="black" points="522,-5 522,-26 541,-26 541,-5 522,-5"/>
<text text-anchor="start" x="525.88" y="-9.7" font-family="Times New Roman,serif" font-size="14.00">&#45;1</text>
<polygon fill="none" stroke="black" points="541,-5 541,-26 560,-26 560,-5 541,-5"/>
<text text-anchor="start" x="544.88" y="-9.7" font-family="Times New Roman,serif" font-size="14.00">&#45;1</text>
<polygon fill="none" stroke="black" points="560,-5 560,-26 579,-26 579,-5 560,-5"/>
<text text-anchor="start" x="563.88" y="-9.7" font-family="Times New Roman,serif" font-size="14.00">&#45;1</text>
<polygon fill="none" stroke="black" points="579,-5 579,-26 598,-26 598,-5 579,-5"/>
<text text-anchor="start" x="582.88" y="-9.7" font-family="Times New Roman,serif" font-size="14.00">&#45;1</text>
<polygon fill="none" stroke="black" points="598,-5 598,-26 664,-26 664,-5 598,-5"/>
<text text-anchor="start" x="600.62" y="-9.7" font-family="Times New Roman,serif" font-size="14.00">301477811</text>
<polygon fill="none" stroke="black" points="664,-5 664,-26 730,-26 730,-5 664,-5"/>
<text text-anchor="start" x="666.62" y="-9.7" font-family="Times New Roman,serif" font-size="14.00">201301456</text>
<polygon fill="none" stroke="black" points="730,-5 730,-26 749,-26 749,-5 730,-5"/>
<text text-anchor="start" x="733.88" y="-9.7" font-family="Times New Roman,serif" font-size="14.00">&#45;1</text>
<polygon fill="none" stroke="black" points="749,-5 749,-26 768,-26 768,-5 749,-5"/>
<text text-anchor="start" x="752.88" y="-9.7" font-family="Times New Roman,serif" font-size="14.00">&#45;1</text>
<polygon fill="none" stroke="black" points="768,-5 768,-26 787,-26 787,-5 768,-5"/>
<text text-anchor="start" x="771.88" y="-9.7" font-family="Times New Roman,serif" font-size="14.00">&#45;1</text>
<polygon fill="none" stroke="black" points="787,-5 787,-26 806,-26 806,-5 787,-5"/>
<text text-anchor="start" x="790.88" y="-9.7" font-family="Times New Roman,serif" font-size="14.00">&#45;1</text>
<polygon fill="none" stroke="black" points="806,-5 806,-26 872,-26 872,-5 806,-5"/>
<text text-anchor="start" x="808.62" y="-9.7" font-family="Times New Roman,serif" font-size="14.00">200325101</text>
<polygon fill="none" stroke="black" points="872,-5 872,-26 891,-26 891,-5 872,-5"/>
<text text-anchor="start" x="875.88" y="-9.7" font-family="Times New Roman,serif" font-size="14.00">&#45;1</text>
<polygon fill="none" stroke="black" points="891,-5 891,-26 910,-26 910,-5 891,-5"/>
<text text-anchor="start" x="894.88" y="-9.7" font-family="Times New Roman,serif" font-size="14.00">&#45;1</text>
<polygon fill="none" stroke="black" points="8,-4 8,-48 911,-48 911,-4 8,-4"/>
</g>
</g>
</svg>
