<?xml version="1.0" encoding="UTF-8" standalone="no"?>
<!DOCTYPE svg PUBLIC "-//W3C//DTD SVG 1.1//EN"
 "http://www.w3.org/Graphics/SVG/1.1/DTD/svg11.dtd">
<!-- Generated by graphviz version 8.1.0 (20230707.0739)
 -->
<!-- Title: HashTable Pages: 1 -->
<svg width="618pt" height="60pt"
 viewBox="0.00 0.00 618.00 60.00" xmlns="http://www.w3.org/2000/svg" xmlns:xlink="http://www.w3.org/1999/xlink">
<g id="graph0" class="graph" transform="scale(1 1) rotate(0) translate(4 56)">
<title>HashTable</title>
<polygon fill="white" stroke="none" points="-4,4 -4,-56 614,-56 614,4 -4,4"/>
<!-- hash_table -->
<g id="node1" class="node">
<title>hash_table</title>
<polygon fill="none" stroke="black" points="9,-26 9,-47 61,-47 61,-26 9,-26"/>
<polygon fill="none" stroke="black" points="61,-26 61,-47 127,-47 127,-26 61,-26"/>
<text text-anchor="start" x="90.62" y="-30.7" font-family="Times New Roman,serif" font-size="14.00">0</text>
<polygon fill="none" stroke="black" points="127,-26 127,-47 193,-47 193,-26 127,-26"/>
<text text-anchor="start" x="156.62" y="-30.7" font-family="Times New Roman,serif" font-size="14.00">1</text>
<polygon fill="none" stroke="black" points="193,-26 193,-47 259,-47 259,-26 193,-26"/>
<text text-anchor="start" x="222.62" y="-30.7" font-family="Times New Roman,serif" font-size="14.00">2</text>
<polygon fill="none" stroke="black" points="259,-26 259,-47 325,-47 325,-26 259,-26"/>
<text text-anchor="start" x="288.62" y="-30.7" font-family="Times New Roman,serif" font-size="14.00">3</text>
<polygon fill="none" stroke="black" points="325,-26 325,-47 391,-47 391,-26 325,-26"/>
<text text-anchor="start" x="354.62" y="-30.7" font-family="Times New Roman,serif" font-size="14.00">4</text>
<polygon fill="none" stroke="black" points="391,-26 391,-47 457,-47 457,-26 391,-26"/>
<text text-anchor="start" x="420.62" y="-30.7" font-family="Times New Roman,serif" font-size="14.00">5</text>
<polygon fill="none" stroke="black" points="457,-26 457,-47 474,-47 474,-26 457,-26"/>
<text text-anchor="start" x="462.12" y="-30.7" font-family="Times New Roman,serif" font-size="14.00">6</text>
<polygon fill="none" stroke="black" points="474,-26 474,-47 491,-47 491,-26 474,-26"/>
<text text-anchor="start" x="479.12" y="-30.7" font-family="Times New Roman,serif" font-size="14.00">7</text>
<polygon fill="none" stroke="black" points="491,-26 491,-47 508,-47 508,-26 491,-26"/>
<text text-anchor="start" x="496.12" y="-30.7" font-family="Times New Roman,serif" font-size="14.00">8</text>
<polygon fill="none" stroke="black" points="508,-26 508,-47 525,-47 525,-26 508,-26"/>
<text text-anchor="start" x="513.12" y="-30.7" font-family="Times New Roman,serif" font-size="14.00">9</text>
<polygon fill="none" stroke="black" points="525,-26 525,-47 544,-47 544,-26 525,-26"/>
<text text-anchor="start" x="527.75" y="-30.7" font-family="Times New Roman,serif" font-size="14.00">10</text>
<polygon fill="none" stroke="black" points="544,-26 544,-47 563,-47 563,-26 544,-26"/>
<text text-anchor="start" x="546.75" y="-30.7" font-family="Times New Roman,serif" font-size="14.00">11</text>
<polygon fill="none" stroke="black" points="563,-26 563,-47 582,-47 582,-26 563,-26"/>
<text text-anchor="start" x="565.75" y="-30.7" font-family="Times New Roman,serif" font-size="14.00">12</text>
<polygon fill="none" stroke="black" points="582,-26 582,-47 601,-47 601,-26 582,-26"/>
<text text-anchor="start" x="584.75" y="-30.7" font-family="Times New Roman,serif" font-size="14.00">13</text>
<polygon fill="none" stroke="black" points="9,-5 9,-26 61,-26 61,-5 9,-5"/>
<text text-anchor="start" x="11.75" y="-9.7" font-family="Times New Roman,serif" font-size="14.00">tecnicos</text>
<polygon fill="none" stroke="black" points="61,-5 61,-26 127,-26 127,-5 61,-5"/>
<text text-anchor="start" x="63.62" y="-9.7" font-family="Times New Roman,serif" font-size="14.00">301684771</text>
<polygon fill="none" stroke="black" points="127,-5 127,-26 193,-26 193,-5 127,-5"/>
<text text-anchor="start" x="129.62" y="-9.7" font-family="Times New Roman,serif" font-size="14.00">301477811</text>
<polygon fill="none" stroke="black" points="193,-5 193,-26 259,-26 259,-5 193,-5"/>
<text text-anchor="start" x="195.62" y="-9.7" font-family="Times New Roman,serif" font-size="14.00">454212140</text>
<polygon fill="none" stroke="black" points="259,-5 259,-26 325,-26 325,-5 259,-5"/>
<text text-anchor="start" x="261.62" y="-9.7" font-family="Times New Roman,serif" font-size="14.00">201301456</text>
<polygon fill="none" stroke="black" points="325,-5 325,-26 391,-26 391,-5 325,-5"/>
<text text-anchor="start" x="327.62" y="-9.7" font-family="Times New Roman,serif" font-size="14.00">200778456</text>
<polygon fill="none" stroke="black" points="391,-5 391,-26 457,-26 457,-5 391,-5"/>
<text text-anchor="start" x="393.62" y="-9.7" font-family="Times New Roman,serif" font-size="14.00">200325101</text>
<polygon fill="none" stroke="black" points="457,-5 457,-26 474,-26 474,-5 457,-5"/>
<text text-anchor="start" x="459.88" y="-9.7" font-family="Times New Roman,serif" font-size="14.00">&#45;1</text>
<polygon fill="none" stroke="black" points="474,-5 474,-26 491,-26 491,-5 474,-5"/>
<text text-anchor="start" x="476.88" y="-9.7" font-family="Times New Roman,serif" font-size="14.00">&#45;1</text>
<polygon fill="none" stroke="black" points="491,-5 491,-26 508,-26 508,-5 491,-5"/>
<text text-anchor="start" x="493.88" y="-9.7" font-family="Times New Roman,serif" font-size="14.00">&#45;1</text>
<polygon fill="none" stroke="black" points="508,-5 508,-26 525,-26 525,-5 508,-5"/>
<text text-anchor="start" x="510.88" y="-9.7" font-family="Times New Roman,serif" font-size="14.00">&#45;1</text>
<polygon fill="none" stroke="black" points="525,-5 525,-26 544,-26 544,-5 525,-5"/>
<text text-anchor="start" x="528.88" y="-9.7" font-family="Times New Roman,serif" font-size="14.00">&#45;1</text>
<polygon fill="none" stroke="black" points="544,-5 544,-26 563,-26 563,-5 544,-5"/>
<text text-anchor="start" x="547.88" y="-9.7" font-family="Times New Roman,serif" font-size="14.00">&#45;1</text>
<polygon fill="none" stroke="black" points="563,-5 563,-26 582,-26 582,-5 563,-5"/>
<text text-anchor="start" x="566.88" y="-9.7" font-family="Times New Roman,serif" font-size="14.00">&#45;1</text>
<polygon fill="none" stroke="black" points="582,-5 582,-26 601,-26 601,-5 582,-5"/>
<text text-anchor="start" x="585.88" y="-9.7" font-family="Times New Roman,serif" font-size="14.00">&#45;1</text>
<polygon fill="none" stroke="black" points="8,-4 8,-48 602,-48 602,-4 8,-4"/>
</g>
</g>
</svg>
