<?xml version="1.0" encoding="UTF-8" standalone="no"?>
<!DOCTYPE svg PUBLIC "-//W3C//DTD SVG 1.1//EN"
 "http://www.w3.org/Graphics/SVG/1.1/DTD/svg11.dtd">
<!-- Generated by graphviz version 8.1.0 (20230707.0739)
 -->
<!-- Pages: 1 -->
<svg width="616pt" height="60pt"
 viewBox="0.00 0.00 616.00 60.00" xmlns="http://www.w3.org/2000/svg" xmlns:xlink="http://www.w3.org/1999/xlink">
<g id="graph0" class="graph" transform="scale(1 1) rotate(0) translate(4 56)">
<polygon fill="white" stroke="none" points="-4,4 -4,-56 612,-56 612,4 -4,4"/>
<!-- hash_table -->
<g id="node1" class="node">
<title>hash_table</title>
<polygon fill="none" stroke="black" points="9,-26 9,-47 61,-47 61,-26 9,-26"/>
<polygon fill="none" stroke="black" points="61,-26 61,-47 78,-47 78,-26 61,-26"/>
<text text-anchor="start" x="66.12" y="-30.7" font-family="Times New Roman,serif" font-size="14.00">0</text>
<polygon fill="none" stroke="black" points="78,-26 78,-47 95,-47 95,-26 78,-26"/>
<text text-anchor="start" x="83.12" y="-30.7" font-family="Times New Roman,serif" font-size="14.00">1</text>
<polygon fill="none" stroke="black" points="95,-26 95,-47 112,-47 112,-26 95,-26"/>
<text text-anchor="start" x="100.12" y="-30.7" font-family="Times New Roman,serif" font-size="14.00">2</text>
<polygon fill="none" stroke="black" points="112,-26 112,-47 178,-47 178,-26 112,-26"/>
<text text-anchor="start" x="141.62" y="-30.7" font-family="Times New Roman,serif" font-size="14.00">3</text>
<polygon fill="none" stroke="black" points="178,-26 178,-47 244,-47 244,-26 178,-26"/>
<text text-anchor="start" x="207.62" y="-30.7" font-family="Times New Roman,serif" font-size="14.00">4</text>
<polygon fill="none" stroke="black" points="244,-26 244,-47 310,-47 310,-26 244,-26"/>
<text text-anchor="start" x="273.62" y="-30.7" font-family="Times New Roman,serif" font-size="14.00">5</text>
<polygon fill="none" stroke="black" points="310,-26 310,-47 376,-47 376,-26 310,-26"/>
<text text-anchor="start" x="339.62" y="-30.7" font-family="Times New Roman,serif" font-size="14.00">6</text>
<polygon fill="none" stroke="black" points="376,-26 376,-47 442,-47 442,-26 376,-26"/>
<text text-anchor="start" x="405.62" y="-30.7" font-family="Times New Roman,serif" font-size="14.00">7</text>
<polygon fill="none" stroke="black" points="442,-26 442,-47 459,-47 459,-26 442,-26"/>
<text text-anchor="start" x="447.12" y="-30.7" font-family="Times New Roman,serif" font-size="14.00">8</text>
<polygon fill="none" stroke="black" points="459,-26 459,-47 476,-47 476,-26 459,-26"/>
<text text-anchor="start" x="464.12" y="-30.7" font-family="Times New Roman,serif" font-size="14.00">9</text>
<polygon fill="none" stroke="black" points="476,-26 476,-47 495,-47 495,-26 476,-26"/>
<text text-anchor="start" x="478.75" y="-30.7" font-family="Times New Roman,serif" font-size="14.00">10</text>
<polygon fill="none" stroke="black" points="495,-26 495,-47 561,-47 561,-26 495,-26"/>
<text text-anchor="start" x="521.25" y="-30.7" font-family="Times New Roman,serif" font-size="14.00">11</text>
<polygon fill="none" stroke="black" points="561,-26 561,-47 580,-47 580,-26 561,-26"/>
<text text-anchor="start" x="563.75" y="-30.7" font-family="Times New Roman,serif" font-size="14.00">12</text>
<polygon fill="none" stroke="black" points="580,-26 580,-47 599,-47 599,-26 580,-26"/>
<text text-anchor="start" x="582.75" y="-30.7" font-family="Times New Roman,serif" font-size="14.00">13</text>
<polygon fill="none" stroke="black" points="9,-5 9,-26 61,-26 61,-5 9,-5"/>
<text text-anchor="start" x="11.75" y="-9.7" font-family="Times New Roman,serif" font-size="14.00">tecnicos</text>
<polygon fill="none" stroke="black" points="61,-5 61,-26 78,-26 78,-5 61,-5"/>
<text text-anchor="start" x="63.88" y="-9.7" font-family="Times New Roman,serif" font-size="14.00">&#45;1</text>
<polygon fill="none" stroke="black" points="78,-5 78,-26 95,-26 95,-5 78,-5"/>
<text text-anchor="start" x="80.88" y="-9.7" font-family="Times New Roman,serif" font-size="14.00">&#45;1</text>
<polygon fill="none" stroke="black" points="95,-5 95,-26 112,-26 112,-5 95,-5"/>
<text text-anchor="start" x="97.88" y="-9.7" font-family="Times New Roman,serif" font-size="14.00">&#45;1</text>
<polygon fill="none" stroke="black" points="112,-5 112,-26 178,-26 178,-5 112,-5"/>
<text text-anchor="start" x="114.62" y="-9.7" font-family="Times New Roman,serif" font-size="14.00">301684771</text>
<polygon fill="none" stroke="black" points="178,-5 178,-26 244,-26 244,-5 178,-5"/>
<text text-anchor="start" x="180.62" y="-9.7" font-family="Times New Roman,serif" font-size="14.00">200778456</text>
<polygon fill="none" stroke="black" points="244,-5 244,-26 310,-26 310,-5 244,-5"/>
<text text-anchor="start" x="246.62" y="-9.7" font-family="Times New Roman,serif" font-size="14.00">454212140</text>
<polygon fill="none" stroke="black" points="310,-5 310,-26 376,-26 376,-5 310,-5"/>
<text text-anchor="start" x="312.62" y="-9.7" font-family="Times New Roman,serif" font-size="14.00">301477811</text>
<polygon fill="none" stroke="black" points="376,-5 376,-26 442,-26 442,-5 376,-5"/>
<text text-anchor="start" x="378.62" y="-9.7" font-family="Times New Roman,serif" font-size="14.00">201301456</text>
<polygon fill="none" stroke="black" points="442,-5 442,-26 459,-26 459,-5 442,-5"/>
<text text-anchor="start" x="444.88" y="-9.7" font-family="Times New Roman,serif" font-size="14.00">&#45;1</text>
<polygon fill="none" stroke="black" points="459,-5 459,-26 476,-26 476,-5 459,-5"/>
<text text-anchor="start" x="461.88" y="-9.7" font-family="Times New Roman,serif" font-size="14.00">&#45;1</text>
<polygon fill="none" stroke="black" points="476,-5 476,-26 495,-26 495,-5 476,-5"/>
<text text-anchor="start" x="479.88" y="-9.7" font-family="Times New Roman,serif" font-size="14.00">&#45;1</text>
<polygon fill="none" stroke="black" points="495,-5 495,-26 561,-26 561,-5 495,-5"/>
<text text-anchor="start" x="497.62" y="-9.7" font-family="Times New Roman,serif" font-size="14.00">200325101</text>
<polygon fill="none" stroke="black" points="561,-5 561,-26 580,-26 580,-5 561,-5"/>
<text text-anchor="start" x="564.88" y="-9.7" font-family="Times New Roman,serif" font-size="14.00">&#45;1</text>
<polygon fill="none" stroke="black" points="580,-5 580,-26 599,-26 599,-5 580,-5"/>
<text text-anchor="start" x="583.88" y="-9.7" font-family="Times New Roman,serif" font-size="14.00">&#45;1</text>
<polygon fill="none" stroke="black" points="8,-4 8,-48 600,-48 600,-4 8,-4"/>
</g>
</g>
</svg>
